<?xml version="1.0" encoding="UTF-8" standalone="no"?>
<!DOCTYPE svg PUBLIC "-//W3C//DTD SVG 1.1//EN" "http://www.w3.org/Graphics/SVG/1.1/DTD/svg11.dtd">
<svg width="100%" height="100%" viewBox="0 0 280 152" version="1.1" xmlns="http://www.w3.org/2000/svg" xmlns:xlink="http://www.w3.org/1999/xlink" xml:space="preserve" style="fill-rule:evenodd;clip-rule:evenodd;stroke-linejoin:round;stroke-miterlimit:1.41421;">
    <g id="Layer-1">
        <path d="M125.995,85.252C131.207,85.252 135.02,82.941 135.02,71.608C135.02,60.223 131.207,57.966 125.995,57.966L120.732,57.966L120.732,85.252L125.995,85.252ZM126.478,52.273C136.256,52.273 142.379,57.698 142.379,71.608C142.379,85.52 136.256,90.945 126.478,90.945L113.857,90.945L113.857,52.273L126.478,52.273Z" style="fill:rgb(102,103,102);fill-rule:nonzero;"/>
        <path d="M157.687,67.419C154.946,67.419 152.904,69.245 152.422,74.239L161.874,74.239C161.931,73.65 161.982,73.059 161.982,72.467C161.982,69.675 161.07,67.419 157.687,67.419M152.367,78.914C152.853,84.393 155.27,85.789 159.029,85.789C162.628,85.789 165.153,84.499 165.153,84.499C166.284,85.572 167.14,87.399 167.192,89.279C167.192,89.279 164.026,91.481 158.064,91.481C149.308,91.481 145.442,86.38 145.442,76.658C145.442,66.506 150.276,62.156 157.687,62.156C164.348,62.156 168.696,65.592 168.696,73.273C168.696,76.712 168.107,78.914 168.107,78.914L152.367,78.914Z" style="fill:rgb(102,103,102);fill-rule:nonzero;"/>
        <path d="M181.961,66.829C179.276,66.829 177.453,68.388 177.453,72.038C177.453,75.691 179.276,77.195 181.961,77.195C184.649,77.195 186.42,75.691 186.42,72.038C186.42,68.388 184.649,66.829 181.961,66.829M177.99,91.697C177.237,92.449 176.218,93.845 176.218,95.67C176.218,97.821 177.827,99.647 181.801,99.647C186.958,99.647 189.375,98.036 189.375,95.67C189.375,92.287 182.717,92.987 177.99,91.697M195.821,62.156C196.359,63.499 196.359,65.915 195.821,67.312L191.688,66.775C192.492,68.225 192.867,69.997 192.867,72.038C192.867,78.162 189.216,81.923 181.961,81.923C181.268,81.923 180.622,81.923 180.032,81.869C179.547,82.621 179.276,83.425 179.44,84.232C180.3,88.634 195.766,83.695 195.766,94.921C195.766,100.506 190.287,104.373 181.586,104.373C173.264,104.373 169.72,101.365 169.72,97.068C169.72,93.094 173.049,90.783 174.554,89.924C173.854,89.172 173.423,88.153 173.423,86.811C173.423,84.446 174.713,82.297 176.055,80.794C172.726,79.236 171.062,76.175 171.062,72.038C171.062,65.915 174.769,62.156 181.961,62.156C184.437,62.156 186.476,62.585 188.085,63.391L195.821,62.156Z" style="fill:rgb(102,103,102);fill-rule:nonzero;"/>
        <path d="M205.598,90.516C205.598,90.516 204.415,90.946 202.213,90.946C199.852,90.946 198.828,90.516 198.828,90.516L198.828,63.122C198.828,63.122 199.852,62.694 202.213,62.694C204.415,62.694 205.598,63.122 205.598,63.122L205.598,90.516ZM205.598,57.966C205.598,57.966 204.415,58.395 202.213,58.395C199.852,58.395 198.828,57.966 198.828,57.966L198.828,51.789C198.828,51.789 199.852,51.359 202.213,51.359C204.415,51.359 205.598,51.789 205.598,51.789L205.598,57.966Z" style="fill:rgb(102,103,102);fill-rule:nonzero;"/>
        <path d="M216.341,76.819C216.341,83.211 218.273,85.789 222.839,85.789C225.579,85.789 227.673,85.036 227.673,85.036C228.801,86.056 229.497,87.991 229.553,89.816C229.553,89.816 227.243,91.481 221.494,91.481C213.278,91.481 209.408,86.38 209.408,76.819C209.408,67.258 213.278,62.155 221.494,62.155C227.029,62.155 229.016,63.551 229.016,63.551C229.016,65.323 228.319,67.204 227.136,68.333C227.136,68.333 225.309,67.634 222.624,67.634C218.005,67.634 216.341,70.428 216.341,76.819" style="fill:rgb(102,103,102);fill-rule:nonzero;"/>
        <path d="M242.12,78.161C239.384,78.161 237.771,79.289 237.771,82.19C237.771,85.252 239.221,86.326 241.638,86.326C245.397,86.326 246.58,82.833 246.58,79.989L246.58,78.377C245.237,78.268 243.681,78.161 242.12,78.161M242.605,62.156C250.446,62.156 253.346,65.378 253.346,72.144L253.346,90.515C253.346,90.515 252.597,90.945 250.713,90.945C249.049,90.945 247.977,90.515 247.977,90.515L246.954,87.614C245.72,90.139 242.98,91.481 239.113,91.481C234.013,91.481 230.787,88.474 230.787,82.19C230.787,76.12 234.601,73.65 241.26,73.65C243.142,73.65 245.022,73.757 246.58,73.918L246.58,72.736C246.58,70.05 245.612,67.848 241.742,67.848C238.201,67.848 234.869,69.136 234.869,69.136C234.869,69.136 234.013,68.6 233.364,67.15C232.723,65.7 232.937,64.304 232.937,64.304C232.937,64.304 236.908,62.156 242.605,62.156" style="fill:rgb(102,103,102);fill-rule:nonzero;"/>
        <path d="M90.044,52.228L80.834,46.938L80.834,77.457L75.765,77.457L85.421,83.047L95.114,77.457L90.044,77.457L90.044,52.228Z" style="fill:rgb(47,125,192);fill-rule:nonzero;"/>
        <path d="M53.508,36.985L44.325,42.317L70.755,57.576L68.22,61.965L77.888,56.398L77.892,45.208L75.359,49.599L53.508,36.985Z" style="fill:rgb(47,125,192);fill-rule:nonzero;"/>
        <path d="M95.114,91.028L95.088,80.405L68.658,95.665L66.127,91.276L66.113,102.434L75.799,108.031L73.263,103.64L95.114,91.028Z" style="fill:rgb(47,125,192);fill-rule:nonzero;"/>
        <path d="M27.602,99.653L36.81,104.943L36.81,74.424L41.879,74.424L32.223,68.832L22.53,74.424L27.602,74.424L27.602,99.653Z" style="fill:rgb(47,125,192);fill-rule:nonzero;"/>
        <path d="M64.135,114.896L73.318,109.566L46.891,94.304L49.425,89.917L39.755,95.483L39.753,106.674L42.286,102.281L64.135,114.896Z" style="fill:rgb(47,125,192);fill-rule:nonzero;"/>
        <path d="M22.53,60.853L22.554,71.474L48.986,56.217L51.519,60.604L51.534,49.447L41.845,43.849L44.379,48.24L22.53,60.853Z" style="fill:rgb(47,125,192);fill-rule:nonzero;"/>
    </g>
</svg>
