<?xml version="1.0" encoding="UTF-8" standalone="no"?>
<!DOCTYPE svg PUBLIC "-//W3C//DTD SVG 1.1//EN" "http://www.w3.org/Graphics/SVG/1.1/DTD/svg11.dtd">
<svg width="100%" height="100%" viewBox="0 0 231 78" version="1.1" xmlns="http://www.w3.org/2000/svg" xmlns:xlink="http://www.w3.org/1999/xlink" xml:space="preserve" style="fill-rule:evenodd;clip-rule:evenodd;stroke-linejoin:round;stroke-miterlimit:1.41421;">
    <g>
        <path d="M103.557,48.311C108.769,48.311 112.582,46.001 112.582,34.668C112.582,23.283 108.769,21.026 103.557,21.026L98.294,21.026L98.294,48.311L103.557,48.311ZM104.04,15.333C113.818,15.333 119.941,20.758 119.941,34.668C119.941,48.579 113.818,54.004 104.04,54.004L91.419,54.004L91.419,15.333L104.04,15.333Z" style="fill:rgb(102,103,102);fill-rule:nonzero;"/>
        <path d="M135.249,30.478C132.508,30.478 130.466,32.305 129.984,37.299L139.436,37.299C139.493,36.71 139.544,36.119 139.544,35.527C139.544,32.734 138.632,30.478 135.249,30.478M129.929,41.974C130.415,47.453 132.832,48.849 136.591,48.849C140.19,48.849 142.715,47.558 142.715,47.558C143.846,48.632 144.702,50.459 144.754,52.338C144.754,52.338 141.588,54.54 135.626,54.54C126.87,54.54 123.004,49.439 123.004,39.718C123.004,29.566 127.838,25.215 135.249,25.215C141.91,25.215 146.258,28.651 146.258,36.332C146.258,39.772 145.669,41.974 145.669,41.974L129.929,41.974Z" style="fill:rgb(102,103,102);fill-rule:nonzero;"/>
        <path d="M159.523,29.888C156.838,29.888 155.015,31.448 155.015,35.097C155.015,38.751 156.838,40.254 159.523,40.254C162.211,40.254 163.982,38.751 163.982,35.097C163.982,31.448 162.211,29.888 159.523,29.888M155.552,54.757C154.799,55.509 153.78,56.905 153.78,58.73C153.78,60.881 155.389,62.707 159.363,62.707C164.52,62.707 166.937,61.096 166.937,58.73C166.937,55.347 160.279,56.046 155.552,54.757M173.383,25.215C173.921,26.559 173.921,28.975 173.383,30.371L169.25,29.835C170.054,31.284 170.429,33.057 170.429,35.097C170.429,41.222 166.778,44.983 159.523,44.983C158.83,44.983 158.184,44.983 157.594,44.929C157.109,45.68 156.838,46.484 157.002,47.292C157.862,51.694 173.328,46.754 173.328,57.981C173.328,63.566 167.849,67.433 159.148,67.433C150.826,67.433 147.282,64.424 147.282,60.128C147.282,56.153 150.611,53.843 152.116,52.984C151.416,52.231 150.985,51.213 150.985,49.871C150.985,47.506 152.275,45.356 153.617,43.853C150.288,42.296 148.624,39.234 148.624,35.097C148.624,28.975 152.331,25.215 159.523,25.215C161.999,25.215 164.038,25.645 165.647,26.45L173.383,25.215Z" style="fill:rgb(102,103,102);fill-rule:nonzero;"/>
        <path d="M183.16,53.576C183.16,53.576 181.977,54.006 179.775,54.006C177.414,54.006 176.39,53.576 176.39,53.576L176.39,26.182C176.39,26.182 177.414,25.754 179.775,25.754C181.977,25.754 183.16,26.182 183.16,26.182L183.16,53.576ZM183.16,21.026C183.16,21.026 181.977,21.455 179.775,21.455C177.414,21.455 176.39,21.026 176.39,21.026L176.39,14.849C176.39,14.849 177.414,14.419 179.775,14.419C181.977,14.419 183.16,14.849 183.16,14.849L183.16,21.026Z" style="fill:rgb(102,103,102);fill-rule:nonzero;"/>
        <path d="M193.903,39.879C193.903,46.271 195.835,48.849 200.401,48.849C203.141,48.849 205.235,48.096 205.235,48.096C206.363,49.115 207.059,51.051 207.115,52.876C207.115,52.876 204.805,54.54 199.056,54.54C190.84,54.54 186.97,49.439 186.97,39.879C186.97,30.317 190.84,25.215 199.056,25.215C204.591,25.215 206.578,26.611 206.578,26.611C206.578,28.382 205.881,30.263 204.698,31.392C204.698,31.392 202.871,30.694 200.186,30.694C195.567,30.694 193.903,33.488 193.903,39.879" style="fill:rgb(102,103,102);fill-rule:nonzero;"/>
        <path d="M219.682,41.221C216.946,41.221 215.333,42.349 215.333,45.25C215.333,48.311 216.783,49.385 219.2,49.385C222.959,49.385 224.142,45.893 224.142,43.049L224.142,41.436C222.799,41.328 221.243,41.221 219.682,41.221M220.167,25.215C228.008,25.215 230.908,28.438 230.908,35.204L230.908,53.575C230.908,53.575 230.159,54.004 228.275,54.004C226.611,54.004 225.539,53.575 225.539,53.575L224.516,50.674C223.282,53.198 220.542,54.54 216.675,54.54C211.575,54.54 208.349,51.534 208.349,45.25C208.349,39.18 212.163,36.71 218.822,36.71C220.704,36.71 222.584,36.817 224.142,36.978L224.142,35.796C224.142,33.109 223.174,30.908 219.304,30.908C215.763,30.908 212.431,32.195 212.431,32.195C212.431,32.195 211.575,31.659 210.926,30.21C210.285,28.76 210.499,27.364 210.499,27.364C210.499,27.364 214.47,25.215 220.167,25.215" style="fill:rgb(102,103,102);fill-rule:nonzero;"/>
        <path d="M67.606,15.288L58.396,9.998L58.396,40.516L53.327,40.516L62.983,46.106L72.676,40.516L67.606,40.516L67.606,15.288Z" style="fill:rgb(47,125,192);fill-rule:nonzero;"/>
        <path d="M31.07,0.044L21.887,5.377L48.317,20.636L45.782,25.025L55.45,19.458L55.454,8.267L52.921,12.658L31.07,0.044Z" style="fill:rgb(47,125,192);fill-rule:nonzero;"/>
        <path d="M72.676,54.088L72.65,43.465L46.22,58.725L43.689,54.335L43.675,65.493L53.361,71.091L50.825,66.7L72.676,54.088Z" style="fill:rgb(47,125,192);fill-rule:nonzero;"/>
        <path d="M5.164,62.713L14.372,68.003L14.372,37.484L19.441,37.484L9.785,31.891L0.092,37.484L5.164,37.484L5.164,62.713Z" style="fill:rgb(47,125,192);fill-rule:nonzero;"/>
        <path d="M41.697,77.956L50.88,72.626L24.453,57.364L26.987,52.977L17.317,58.543L17.315,69.734L19.848,65.341L41.697,77.956Z" style="fill:rgb(47,125,192);fill-rule:nonzero;"/>
        <path d="M0.092,23.913L0.116,34.534L26.548,19.277L29.081,23.664L29.096,12.507L19.407,6.908L21.941,11.3L0.092,23.913Z" style="fill:rgb(47,125,192);fill-rule:nonzero;"/>
    </g>
</svg>
