<?xml version="1.0" encoding="UTF-8" standalone="no"?>
<!DOCTYPE svg PUBLIC "-//W3C//DTD SVG 1.1//EN" "http://www.w3.org/Graphics/SVG/1.1/DTD/svg11.dtd">
<svg width="100%" height="100%" viewBox="0 0 1187 334" version="1.1" xmlns="http://www.w3.org/2000/svg" xmlns:xlink="http://www.w3.org/1999/xlink" xml:space="preserve" style="fill-rule:evenodd;clip-rule:evenodd;stroke-linejoin:round;stroke-miterlimit:1.41421;">
    <g>
        <path d="M283.498,303.667C283.498,311.016 277.519,317.001 270.165,317.001L30.165,317.001C22.811,317.001 16.832,311.016 16.832,303.667L16.832,30.333C16.832,22.983 22.811,17 30.165,17L270.165,17C277.519,17 283.498,22.983 283.498,30.333L283.498,303.667ZM270.165,0.333L30.165,0.333C13.594,0.333 0.165,13.766 0.165,30.333L0.165,303.667C0.165,320.233 13.594,333.667 30.165,333.667L270.165,333.667C286.732,333.667 300.165,320.233 300.165,303.667L300.165,30.333C300.165,13.766 286.732,0.333 270.165,0.333Z" style="fill:rgb(72,45,141);fill-rule:nonzero;"/>
        <path d="M75.165,283.667L112.665,250.333L75.165,217L75.165,283.667Z" style="fill:rgb(72,45,141);fill-rule:nonzero;"/>
        <path d="M210.652,148.567C203.932,141.771 191.598,133.667 170.998,133.667C148.398,133.667 125.136,139.547 108.498,144.963L108.498,50.333L75.165,50.333L75.165,194.887L98.707,184.221C99.086,184.047 137.102,167 170.998,167C187.919,167 191.665,176.345 191.832,184.125L191.832,283.667L225.165,283.667L225.161,183.667C225.186,181.538 224.986,163.062 210.652,148.567Z" style="fill:rgb(72,45,141);fill-rule:nonzero;"/>
        <path d="M166.832,104.5L200.165,104.5C215.236,87.416 222.911,69.266 225.165,50.333L191.832,50.333C188.157,69.229 179.927,87.313 166.832,104.5Z" style="fill:rgb(72,45,141);fill-rule:nonzero;"/>
        <path d="M375.165,108.867L408.394,108.867L408.394,154.55L449.265,154.55L449.265,108.867L482.498,108.867L482.498,231.812L449.265,231.812L449.265,182.134L408.394,182.134L408.394,231.812L375.165,231.812L375.165,108.867Z" style="fill:rgb(72,45,141);fill-rule:nonzero;"/>
        <path d="M525.298,108.867L613.023,108.867L613.023,136.446L558.528,136.446L558.528,156.387L597.407,156.387L597.407,182.305L558.528,182.305L558.528,205.062L615.852,205.062L615.852,231.812L525.298,231.812L525.298,108.867Z" style="fill:rgb(72,45,141);fill-rule:nonzero;"/>
        <path d="M699.198,163.858C712.823,163.858 718.803,160.038 718.803,149.737C718.803,139.437 712.823,135.78 699.198,135.78L684.911,135.78L684.911,163.858L699.198,163.858ZM652.348,108.867L700.365,108.867C731.932,108.867 751.207,119.338 751.207,148.905C751.207,168.175 743.061,179.317 726.948,184.788L753.032,231.812L717.811,231.812L694.048,189.117L684.911,189.117L684.911,231.812L652.348,231.812L652.348,108.867Z" style="fill:rgb(72,45,141);fill-rule:nonzero;"/>
        <path d="M873.425,170.333C873.425,147.742 863.625,133.954 846.348,133.954C828.903,133.954 819.102,147.742 819.102,170.333C819.102,192.937 828.903,207.559 846.348,207.559C863.625,207.559 873.425,192.937 873.425,170.333ZM785.873,170.333C785.873,125.316 816.607,106.533 846.348,106.533C875.925,106.533 906.665,125.316 906.665,170.333C906.665,215.362 875.925,234.134 846.348,234.134C816.607,234.134 785.873,215.362 785.873,170.333Z" style="fill:rgb(72,45,141);fill-rule:nonzero;"/>
        <path d="M943.655,108.867L976.875,108.867L976.875,153.396L1010.77,108.867L1049.32,108.867L1007.95,157.379L1052.97,231.812L1015.43,231.812L986.355,182.629L976.875,193.6L976.875,231.812L943.655,231.812L943.655,108.867Z" style="fill:rgb(72,45,141);fill-rule:nonzero;"/>
        <path d="M1083.65,182.466L1083.65,108.867L1116.88,108.867L1116.88,182.305C1116.88,199.245 1122.37,206.887 1135.66,206.887C1148.94,206.887 1154.27,199.245 1154.27,182.305L1154.27,108.867L1186.84,108.867L1186.84,182.466C1186.84,215.038 1171.21,233.637 1135.33,233.637C1099.43,233.637 1083.65,215.038 1083.65,182.466Z" style="fill:rgb(72,45,141);fill-rule:nonzero;"/>
    </g>
</svg>
