<?xml version="1.0" encoding="UTF-8" standalone="no"?>
<!DOCTYPE svg PUBLIC "-//W3C//DTD SVG 1.1//EN" "http://www.w3.org/Graphics/SVG/1.1/DTD/svg11.dtd">
<svg width="100%" height="100%" viewBox="0 0 1500 634" version="1.1" xmlns="http://www.w3.org/2000/svg" xmlns:xlink="http://www.w3.org/1999/xlink" xml:space="preserve" style="fill-rule:evenodd;clip-rule:evenodd;stroke-linejoin:round;stroke-miterlimit:1.41421;">
    <g>
        <g>
            <path d="M433.333,453.333C433.333,460.683 427.354,466.667 420,466.667L180,466.667C172.646,466.667 166.667,460.683 166.667,453.333L166.667,180C166.667,172.65 172.646,166.667 180,166.667L420,166.667C427.354,166.667 433.333,172.65 433.333,180L433.333,453.333ZM420,150L180,150C163.429,150 150,163.433 150,180L150,453.333C150,469.9 163.429,483.333 180,483.333L420,483.333C436.567,483.333 450,469.9 450,453.333L450,180C450,163.433 436.567,150 420,150Z" style="fill:rgb(72,45,141);fill-rule:nonzero;"/>
            <path d="M225,433.333L262.5,400L225,366.667L225,433.333Z" style="fill:rgb(72,45,141);fill-rule:nonzero;"/>
            <path d="M360.487,298.233C353.767,291.437 341.433,283.333 320.833,283.333C298.233,283.333 274.971,289.213 258.333,294.629L258.333,200L225,200L225,344.554L248.542,333.888C248.921,333.713 286.937,316.667 320.833,316.667C337.754,316.667 341.5,326.012 341.667,333.792L341.667,433.333L375,433.333L374.996,333.333C375.021,331.204 374.821,312.729 360.487,298.233Z" style="fill:rgb(72,45,141);fill-rule:nonzero;"/>
            <path d="M316.667,254.167L350,254.167C365.071,237.083 372.746,218.933 375,200L341.667,200C337.992,218.896 329.762,236.979 316.667,254.167Z" style="fill:rgb(72,45,141);fill-rule:nonzero;"/>
            <path d="M525,258.533L558.229,258.533L558.229,304.217L599.1,304.217L599.1,258.533L632.333,258.533L632.333,381.479L599.1,381.479L599.1,331.8L558.229,331.8L558.229,381.479L525,381.479L525,258.533Z" style="fill:rgb(72,45,141);fill-rule:nonzero;"/>
            <path d="M675.133,258.533L762.858,258.533L762.858,286.112L708.363,286.112L708.363,306.054L747.242,306.054L747.242,331.971L708.363,331.971L708.363,354.729L765.687,354.729L765.687,381.479L675.133,381.479L675.133,258.533Z" style="fill:rgb(72,45,141);fill-rule:nonzero;"/>
            <path d="M849.033,313.525C862.658,313.525 868.638,309.704 868.638,299.404C868.638,289.104 862.658,285.446 849.033,285.446L834.746,285.446L834.746,313.525L849.033,313.525ZM802.183,258.533L850.2,258.533C881.767,258.533 901.042,269.004 901.042,298.571C901.042,317.842 892.896,328.983 876.783,334.454L902.867,381.479L867.646,381.479L843.883,338.783L834.746,338.783L834.746,381.479L802.183,381.479L802.183,258.533Z" style="fill:rgb(72,45,141);fill-rule:nonzero;"/>
            <path d="M1023.26,320C1023.26,297.408 1013.46,283.621 996.183,283.621C978.738,283.621 968.937,297.408 968.937,320C968.937,342.604 978.738,357.225 996.183,357.225C1013.46,357.225 1023.26,342.604 1023.26,320ZM935.708,320C935.708,274.983 966.442,256.2 996.183,256.2C1025.76,256.2 1056.5,274.983 1056.5,320C1056.5,365.029 1025.76,383.8 996.183,383.8C966.442,383.8 935.708,365.029 935.708,320Z" style="fill:rgb(72,45,141);fill-rule:nonzero;"/>
            <path d="M1093.49,258.533L1126.71,258.533L1126.71,303.063L1160.61,258.533L1199.15,258.533L1157.78,307.046L1202.81,381.479L1165.26,381.479L1136.19,332.296L1126.71,343.267L1126.71,381.479L1093.49,381.479L1093.49,258.533Z" style="fill:rgb(72,45,141);fill-rule:nonzero;"/>
            <path d="M1233.49,332.133L1233.49,258.533L1266.72,258.533L1266.72,331.971C1266.72,348.912 1272.2,356.554 1285.5,356.554C1298.78,356.554 1304.1,348.912 1304.1,331.971L1304.1,258.533L1336.67,258.533L1336.67,332.133C1336.67,364.704 1321.05,383.304 1285.16,383.304C1249.27,383.304 1233.49,364.704 1233.49,332.133Z" style="fill:rgb(72,45,141);fill-rule:nonzero;"/>
        </g>
    </g>
</svg>
