<?xml version="1.0" encoding="UTF-8" standalone="no"?>
<!DOCTYPE svg PUBLIC "-//W3C//DTD SVG 1.1//EN" "http://www.w3.org/Graphics/SVG/1.1/DTD/svg11.dtd">
<svg width="100%" height="100%" viewBox="0 0 500 542" version="1.1" xmlns="http://www.w3.org/2000/svg" xmlns:xlink="http://www.w3.org/1999/xlink" xml:space="preserve" style="fill-rule:evenodd;clip-rule:evenodd;stroke-linejoin:round;stroke-miterlimit:1.41421;">
    <g>
        <path d="M493.848,298.895C497.389,295.587 499.715,290.968 499.976,285.743C500.503,275.075 492.285,265.999 481.616,265.468C476.458,265.211 471.694,267.035 468.066,270.157L468.045,270.132L119.243,461.021C111.295,464.421 104.296,470.243 99.544,478.253C87.656,498.309 94.274,524.207 114.326,536.103C128.564,544.541 145.722,543.616 158.745,535.224L158.749,535.224C159.774,534.561 160.773,533.864 161.743,533.109L486.198,304.837C488.155,303.49 492.612,300.052 493.777,298.974L493.864,298.912L493.848,298.895Z" style="fill:url(#_Linear1);"/>
        <path d="M494.283,271.156L494.316,271.123L228.959,10.502C223.055,4.075 214.621,0.007 205.263,0.007C187.537,0.007 173.038,14.507 173.038,32.228C173.038,40.795 176.446,48.586 181.944,54.374L181.932,54.386L182.052,54.494C183.545,56.045 185.178,57.45 186.949,58.682L467.365,298.829L467.419,298.771C470.653,301.835 474.899,303.867 479.701,304.103C490.369,304.634 499.445,296.412 499.976,285.743C500.258,280.063 498.011,274.884 494.283,271.156Z" style="fill:url(#_Linear2);"/>
        <path d="M237.609,247.838C237.223,247.535 73.853,118.472 70.486,116.453L70.333,116.337L70.321,116.361C67.966,114.964 65.486,113.724 62.832,112.733C38.759,103.736 11.953,115.959 2.955,140.033C-4.968,161.237 3.585,184.548 22.19,195.955L22.178,195.971L22.323,196.029C24.802,197.538 27.439,198.853 30.259,199.906C31.938,200.536 219.149,278.201 219.149,278.201L219.17,278.168C226.484,281.468 235.361,279.578 240.565,272.993C246.693,265.227 245.37,253.966 237.609,247.838Z" style="fill:url(#_Linear3);"/>
        <path d="M205.263,0.007C198.181,0.007 191.634,2.35 186.302,6.26L20.274,117.954C19.951,118.169 19.623,118.377 19.308,118.601L19.084,118.75L19.097,118.766C11.994,123.949 6.264,131.18 2.955,140.033C-6.038,164.106 6.185,190.913 30.259,199.906C45.327,205.537 61.464,202.854 73.634,194.155L73.638,194.155L73.663,194.134C76.378,192.19 78.87,189.918 81.134,187.4L225.128,57.629L225.078,57.558C232.608,51.646 237.488,42.49 237.488,32.228C237.488,14.507 222.984,0.007 205.263,0.007Z" style="fill:url(#_Linear4);"/>
        <rect x="143.404" y="155.13" width="211.289" height="211.289" style="fill-rule:nonzero;"/>
        <rect x="161.631" y="326.8" width="79.232" height="13.206" style="fill:white;fill-rule:nonzero;"/>
        <path d="M160.74,210.765L166.889,204.956C168.56,206.975 170.135,208.157 172.3,208.157C174.659,208.157 176.185,206.532 176.185,203.335L176.185,181.542L185.68,181.542L185.68,203.385C185.68,207.714 184.598,210.765 182.288,213.075C180.024,215.339 176.778,216.57 172.843,216.57C166.839,216.57 163.198,214.057 160.74,210.765Z" style="fill:white;fill-rule:nonzero;"/>
        <path d="M187.894,181.542L215.591,181.542L215.591,189.611L197.339,189.611L197.339,194.872L213.871,194.872L213.871,202.398L197.339,202.398L197.339,207.859L215.836,207.859L215.836,215.977L187.894,215.977L187.894,181.542Z" style="fill:white;fill-rule:nonzero;"/>
        <path d="M228.068,189.905L217.785,189.905L217.785,181.542L247.941,181.542L247.941,189.905L237.613,189.905L237.613,215.977L228.068,215.977L228.068,189.905Z" style="fill:white;fill-rule:nonzero;"/>
        <path d="M182.877,247.643C182.877,249.658 181.252,250.79 178.304,250.79L170.923,250.79L170.923,244.442L178.204,244.442C181.401,244.442 182.877,245.673 182.877,247.543L182.877,247.643ZM170.923,231.7L177.172,231.7C179.975,231.7 181.5,232.732 181.5,234.652L181.5,234.752C181.5,236.767 179.825,237.754 176.923,237.754L170.923,237.754L170.923,231.7ZM185.584,240.457C188.632,239.13 190.896,236.767 190.896,232.782L190.896,232.687C190.896,230.323 190.058,228.503 188.682,227.077C186.667,225.107 183.615,224.025 179.286,224.025L161.623,224.025L161.623,258.465L179.386,258.465C187.6,258.465 192.422,254.874 192.422,248.969L192.422,248.87C192.422,244.197 189.764,241.838 185.584,240.457Z" style="fill:white;fill-rule:nonzero;"/>
        <path d="M214.854,236.472C214.854,238.981 212.934,240.556 209.737,240.556L203.389,240.556L203.389,232.243L209.687,232.243C212.838,232.243 214.854,233.62 214.854,236.377L214.854,236.472ZM217.312,246.461C221.591,244.641 224.398,241.145 224.398,235.834L224.398,235.734C224.398,232.343 223.366,229.735 221.347,227.715C219.037,225.406 215.393,224.025 210.131,224.025L193.848,224.025L193.848,258.465L203.389,258.465L203.389,248.037L207.622,248.037L214.559,258.465L225.53,258.465L217.312,246.461Z" style="fill:white;fill-rule:nonzero;"/>
        <path d="M236.203,244.836L240.088,235.096L243.928,244.836L236.203,244.836ZM244.765,223.781L235.564,223.781L220.953,258.465L230.941,258.465L233.4,252.266L246.73,252.266L249.189,258.465L259.422,258.465L244.765,223.781Z" style="fill:white;fill-rule:nonzero;"/>
        <rect x="260.554" y="224.025" width="9.545" height="34.44" style="fill:white;fill-rule:nonzero;"/>
        <path d="M272.459,224.025L281.365,224.025L295.533,242.232L295.533,224.025L304.978,224.025L304.978,258.465L296.665,258.465L281.904,239.574L281.904,258.465L272.459,258.465L272.459,224.025Z" style="fill:white;fill-rule:nonzero;"/>
        <path d="M305.575,253.348L310.887,247C314.332,249.708 318.072,251.134 322.057,251.134C324.665,251.134 326.042,250.251 326.042,248.774L326.042,248.675C326.042,247.199 324.91,246.461 320.187,245.329C312.856,243.658 307.201,241.589 307.201,234.557L307.201,234.457C307.201,228.06 312.267,223.436 320.531,223.436C326.386,223.436 330.959,225.012 334.699,228.014L329.927,234.752C326.78,232.488 323.334,231.356 320.286,231.356C317.973,231.356 316.841,232.293 316.841,233.57L316.841,233.67C316.841,235.245 318.023,235.933 322.845,237.015C330.714,238.736 335.636,241.295 335.636,247.738L335.636,247.838C335.636,254.874 330.076,259.053 321.713,259.053C315.614,259.053 309.854,257.138 305.575,253.348Z" style="fill:white;fill-rule:nonzero;"/>
    </g>
    <defs>
        <linearGradient id="_Linear1" x1="0" y1="0" x2="1" y2="0" gradientUnits="userSpaceOnUse" gradientTransform="matrix(326.313,-196.946,196.946,326.313,132.528,501.792)"><stop offset="0%" style="stop-color:rgb(250,239,58);stop-opacity:1"/><stop offset="100%" style="stop-color:rgb(244,123,62);stop-opacity:1"/><stop offset="100%" style="stop-color:rgb(244,123,62);stop-opacity:1"/></linearGradient>
        <linearGradient id="_Linear2" x1="0" y1="0" x2="1" y2="0" gradientUnits="userSpaceOnUse" gradientTransform="matrix(297.837,260.748,-260.748,297.837,201.291,28.7577)"><stop offset="0%" style="stop-color:rgb(240,90,107);stop-opacity:1"/><stop offset="100%" style="stop-color:rgb(244,123,62);stop-opacity:1"/><stop offset="100%" style="stop-color:rgb(244,123,62);stop-opacity:1"/></linearGradient>
        <linearGradient id="_Linear3" x1="0" y1="0" x2="1" y2="0" gradientUnits="userSpaceOnUse" gradientTransform="matrix(-176.515,-110.235,110.235,-176.515,220.376,264.891)"><stop offset="0%" style="stop-color:rgb(125,90,166);stop-opacity:1"/><stop offset="90%" style="stop-color:rgb(234,62,126);stop-opacity:1"/><stop offset="90%" style="stop-color:rgb(234,62,126);stop-opacity:1"/><stop offset="100%" style="stop-color:rgb(238,60,124);stop-opacity:1"/><stop offset="100%" style="stop-color:rgb(238,60,124);stop-opacity:1"/></linearGradient>
        <linearGradient id="_Linear4" x1="0" y1="0" x2="1" y2="0" gradientUnits="userSpaceOnUse" gradientTransform="matrix(-172.328,142.328,-142.328,-172.328,217.159,15.4148)"><stop offset="0%" style="stop-color:rgb(240,90,107);stop-opacity:1"/><stop offset="100%" style="stop-color:rgb(238,60,124);stop-opacity:1"/><stop offset="100%" style="stop-color:rgb(238,60,124);stop-opacity:1"/></linearGradient>
    </defs>
</svg>
