<svg width="100%" height="100%" xmlns="http://www.w3.org/2000/svg" viewBox="0 0 134 32">
    <g fill="none" fill-rule="evenodd">
        <path fill="#3D474D" d="M49.6563676 22.5896154l1.1283089-8.15538463c.3159264-2.19742308-1.1960074-3.96442308-3.3849265-3.96442308-1.3539706 0-2.66280882.7022692-3.52032353 1.7443461-.54158823-1.04207697-1.66989706-1.7443462-3.02386765-1.7443462-2.1889191 0-4.19730882 1.767-4.5132353 3.96442307l-1.1283088 8.15538463c-.06769854.4530769.24822793.6796154.58672057.6796154s.6995514-.2265385.76725-.6796154l1.1283088-8.15538462c.2030956-1.44984613 1.5119338-2.6051923 2.9561691-2.6051923s2.437147 1.15534617 2.23405142 2.6051923l-1.1283088 8.15538467c-.06769854.4757308.22566176.7022692.5641544.7022692.33849265 0 .72211765-.2265384.7898162-.7022692l1.1283088-8.15538464c.2030956-1.44984613 1.5119338-2.6051923 2.9561691-2.6051923s2.4371471 1.15534617 2.2340515 2.6051923l-1.1283088 8.15538465c-.0676986.4530769.2482279.6796154.5867205.6796154.3384927 0 .6995515-.2265385.76725-.6796154zm11.3944633-6.1165385c-.0676985.3624616-.4287573.6796154-.7898162.6796154h-6.7698529l-.2482279 1.9255769c-.248228 1.631077 1.1057426 3.0582693 2.8433382 3.0582693.8575147 0 1.918125-.2491923 2.685375-1.0873847.2030956-.2038846.4287573-.2945.6092868-.2945.3610588 0 .6544191.2945.6092867.6569616-.0225662.1359231-.0902647.2945-.2030956.4304231-1.0154779 1.1326923-2.5274117 1.6537307-3.9039485 1.6537307-2.3694485 0-4.3552721-1.9255769-3.9942132-4.4175l.5867206-4.1909615c.3384926-2.4466154 2.5725441-4.4175 5.0096911-4.4175 2.4371471 0 4.1296103 1.9708846 3.7911177 4.4175l-.2256618 1.5857692zm-1.2637059-.6796154l.1353971-.9061538c.2256618-1.69903847-.9477794-3.05826924-2.6402427-3.05826924-1.6924632 0-3.2269632 1.35923077-3.452625 3.05826923l-.135397.9061538h6.0928676zm3.3834707 6.7961539c-.0676986.4530769-.4287574.6796154-.76725.6796154-.3384927 0-.6544192-.2265385-.5867206-.6796154l1.5570661-11.21365386c.0676986-.45307692.4513236-.6796154.7898162-.6796154.3384927 0 .631853.22653848.5641544.6796154L63.1705957 22.5896154zm.6318529-15.81238463c-.0676985.4983846.2707941.90615385.76725.90615385s.9703456-.40776924 1.0380441-.90615385c.0676985-.49838462-.2933603-.90615385-.7898162-.90615385-.4964558 0-.9477794.40776923-1.0154779.90615385zm8.8896177 13.13923073c-.2933603 2.1974231-2.4597133 3.5793077-4.6937647 3.5793077-1.150875 0-2.6628088-.5210384-3.2043971-1.5631154-.0676985-.135923-.1128309-.2718461-.0902647-.3851153.0676985-.3851154.4287574-.6796154.7898162-.6796154.2030956 0 .383625.0679615.519022.2945 0 0 .0225662.0453077.0902648.1132692.4738897.589 1.286272.8608462 2.0986544.8608462 1.7601617 0 2.9787353-1.0194231 3.1366985-2.220077.4513235-3.2168461-6.0477353-2.0388461-5.4610147-6.2071538.2933603-2.1521154 2.3243162-3.2395 4.1070441-3.2395 1.2637059 0 2.6628088.67961538 3.2043971 1.78965384.0451323.11326923.0676985.2491923.0451323.38511538-.0451323.36246154-.4513235.65696154-.7898162.65696154-.2030955 0-.383625-.09061538-.519022-.31715384 0 0-.0225662-.0453077-.0902647-.15857693-.4513236-.6116539-1.1960074-.9967693-2.0535221-.9967693-1.3539706 0-2.3920147.77023074-2.5499779 1.8802692-.4061912 2.8090769 6.0928676 1.767 5.4610147 6.2071538zm8.7542206 2.1068077c-.0451323.2945-.2933603.4757308-.5415882.6569616-.7446839.4983846-1.6473309.8155384-2.5048456.8155384-1.9858235 0-3.2269633-1.3818846-2.9787353-3.1941923l1.150875-8.24599998h-2.0535221c-.4513235 0-.6318529-.3398077-.5867206-.67961538.0451324-.3398077.3384927-.6796154.7898162-.6796154h2.0535221l.383625-2.87703845c.0676985-.453077.4513235-.6796154.7898162-.6796154.3384926 0 .6318529.2265384.5641544.6796154l-.383625 2.8770384h3.9942132c.4513235 0 .6092868.3398077.5641544.6796154-.0451323.3398077-.3159265.67961533-.76725.67961533h-3.9942132l-1.150875 8.246c-.1353971.9967693.519022 1.8349616 1.8278603 1.8349616 1.2411397 0 1.7827279-.8155385 2.30175-.8155385.3610588 0 .5867206.3398077.5415882.7022692zm10.1984559-5.5501923c-.0676985.3624616-.4287573.6796154-.7898162.6796154h-6.7698529l-.2482279 1.9255769c-.248228 1.631077 1.1057426 3.0582693 2.8433382 3.0582693.8575147 0 1.918125-.2491923 2.685375-1.0873847.2030956-.2038846.4287574-.2945.6092868-.2945.3610588 0 .6544191.2945.6092867.6569616-.0225661.1359231-.0902647.2945-.2030956.4304231-1.0154779 1.1326923-2.5274117 1.6537307-3.9039485 1.6537307-2.3694485 0-4.355272-1.9255769-3.9942132-4.4175l.5867206-4.1909615c.3384926-2.4466154 2.5725441-4.4175 5.0096911-4.4175 2.4371471 0 4.1296103 1.9708846 3.7911177 4.4175l-.2256618 1.5857692zm-1.2637059-.6796154l.1353971-.9061538c.2256618-1.69903847-.9477794-3.05826924-2.6402426-3.05826924-1.6924633 0-3.2269633 1.35923077-3.452625 3.05826923l-.1353971.9061538h6.0928676zm10.4692501-3.73788458c.0225661-.15857692-.0225662-.31715384-.1579633-.47573077-.5867206-.70226923-1.7150294-1.11003846-2.6402426-1.11003846-2.6176765 0-4.2424412 2.0615-4.5809338 4.5760769l-1.0606103 7.5437308c-.0676986.4530769.2482279.6796154.5867206.6796154.3384926 0 .6995514-.2265385.76725-.6796154l1.0606103-7.5437308c.2707941-2.0388462 1.3991029-3.2168462 3.0238676-3.2168462.6318529 0 1.2411397.22653843 1.6698971.61165382l.0902647.0906154c.135397.13592306.2933603.2038846.4513235.2038846.383625 0 .7446838-.31715385.7898162-.6796154z"/>
        <path fill="#0AF" d="M104.3451324 22.8161538c-.0451324.3398077-.3610589.6796154-.7446839.6796154-.0676985 0-.1805294 0-.2707941-.0453077 0 0-.1128309-.0453077-.3159265-.2038846-1.0831764-.7475769-1.3539705-2.1747692-1.150875-3.534l1.8729927-13.43373075c.0676985-.45307692.4287573-.67961538.76725-.67961538.3384926 0 .6544191.22653846.5867206.67961538l-1.8729927 13.43373075c-.135397.8381923-.0225661 2.0841539.7898162 2.4692693.2707941.135923.383625.3851153.3384927.6343076zm8.9121838-3.2168461c-.3159265 2.3333461-2.437147 3.8964615-4.6260662 3.8964615-2.1437867 0-3.9265147-1.2686154-3.588022-3.6472692.3159264-2.2653846 2.3694485-3.3754231 4.4681029-3.8058462l2.9787353-.6116538.1579632-1.06473077c.2030956-1.5178077-.519022-2.53723077-2.3468823-2.53723077-.8575147 0-1.4442353.27184616-1.9632574.6343077-.519022.36246153-.6769853.72492307-1.150875.72492307-.3384926 0-.6092867-.27184615-.5641544-.65696154.0451324-.2491924.2256618-.4757308.4061912-.6569616.9477794-.9288077 2.2340515-1.4045385 3.4751912-1.4045385 2.5499779 0 3.8136838 1.63107692 3.4977573 3.89646153l-.7446838 5.23303847zm-1.3539706 0l.4061912-2.8090769-3.0013015.6343077c-1.6021985.3398077-2.7530735 1.2459615-2.9110367 2.4013077-.2030956 1.4045384.76725 2.3106923 2.4145808 2.3106923 1.5796324 0 2.8884706-1.0647308 3.0915662-2.5372308zm11.9811839-.5210385c-.3610588 2.4466154-2.5951103 4.4175-5.0322574 4.4175-2.437147 0-4.1296103-1.9708846-3.7685514-4.4175l1.7827279-12.79942305c.0676985-.45307692.4287574-.67961538.76725-.67961538s.6544191.22653846.5867206.67961538L117.430603 11.897c.8800809-.8381923 2.0535221-1.4271923 3.2495294-1.4271923 2.4371471 0 4.1296103 1.9708846 3.7911177 4.4175l-.5867206 4.1909615zm-1.3539706 0l.5867206-4.1909615c.2256617-1.69903847-.9477794-3.05826924-2.6402427-3.05826924-1.6924632 0-3.2269632 1.35923077-3.452625 3.05826923l-.5867206 4.1909615c-.2482279 1.6990385.9252133 3.0582693 2.6176765 3.0582693 1.6924633 0 3.2269633-1.3592308 3.4751912-3.0582693zm10.2661544.8381923c.631853-4.4401538-5.8672058-3.3980769-5.4610147-6.2071538.1579633-1.11003847 1.1960074-1.88026924 2.549978-1.88026924.8575147 0 1.6021985.3851154 2.053522.99676923.0676986.1132692.0902647.1585769.0902647.1585769.1353971.2265384.3159265.3171538.5190221.3171538.3384926 0 .7446838-.2945.7898162-.65696157.0225662-.13592307 0-.27184615-.0451324-.38511538-.5415882-1.11003847-1.9406912-1.78965386-3.204397-1.78965386-1.782728 0-3.8136839 1.0873846-4.1070442 3.2395-.5867205 4.1683077 5.9123383 2.9903077 5.4610148 6.2071538-.1579633 1.2006539-1.3765368 2.220077-3.1366986 2.220077-.8123823 0-1.6247647-.2718462-2.0986544-.8608462-.0676985-.0679615-.0902647-.1132692-.0902647-.1132692-.1353971-.2265385-.3159265-.2945-.5190221-.2945-.3610588 0-.7221176.2945-.7898161.6796154-.0225662.1132692.0225661.2491923.0902647.3851153.5415882 1.042077 2.053522 1.5631154 3.204397 1.5631154 2.2340515 0 4.4004044-1.3818846 4.6937647-3.5793077z"/>
        <path fill="#FFF" stroke="#FFF" stroke-width="2" d="M22.888819 12.2476036l.5232-.9481671c.046781.0090148.0944.0136141.1420953.0136141.2728381 0 .5212571-.1448246.6481524-.3779201l.1217523-.22345524c.0910477-.16708552.1092191-.35845564.0512762-.5388241-.058019-.18033167-.1852571-.32806308-.3582857-.41600283l-4.6268952-2.3512291c-.0836572-.04249808-.1755429-.06873282-.2691429-.07767397L16.999981 1.0230336l-3.776 11.22457H1.00470476l9.8856 6.9371579-3.7759238 11.22457 9.88560004-6.9371947 9.8856 6.9371947-3.7759239-11.22457 9.8856-6.9371579H22.888819z" stroke-linecap="round" stroke-linejoin="round"/>
        <path fill="#FFF" stroke="#FFF" stroke-width=".76923077" d="M21.0964762 7.12851705c.5976381.0000368 1.1091048-.43204538 1.1898667-1.00497833.0432761-.30742116-.0398858-.6127082-.2343239-.8596386-.1944-.24696717-.4767619-.4059946-.7950476-.44783038-.0543238-.0071382-.1094476-.0107809-.1638476-.0107809-.5975619 0-1.1091048.4320822-1.1897905 1.00497834-.0433143.30742115.0398857.6127082.2342857.8596386.1944381.24696717.4768.4059946.7950477.44783037.0542857.0071382.1094095.0107809.1638095.0107809z" stroke-linecap="round" stroke-linejoin="round"/>
        <path fill="#0AF" d="M22.888819 12.2476036h10.1064381l-9.8856 6.9371579 3.7759239 11.22457-9.8856-6.9371947-9.88560005 6.9371947 3.7759238-11.22457-9.8856-6.9371579H13.223981l3.776-11.22457 2.1209904 6.30491166c.0936.00894115.1854857.0351759.2691429.07767397l4.6268952 2.3512291c.1730286.08793975.3002667.23567116.3582857.41600282.0579429.18036847.0397715.3717386-.0512762.5388241l-.1217523.22345526c-.1268953.2330955-.3753143.3779201-.6481524.3779201-.0476953 0-.0953143-.0045993-.1420953-.0136141l-.5232.9481671zm-.8121523 1.4717949l-3.2558477 5.9002416c-.4892952.8981996-1.4475047 1.4567458-2.5001523 1.4567458-.4542857 0-.9080762-.1086185-1.3124191-.3141178-1.3776762-.700096-1.9088381-2.3522594-1.184-3.6829459l4.3332191-7.85265117-1.1574857-3.44083565-2.6688762 7.93356312H5.69449524l6.98719996 4.9031742-2.66887615 7.9335263 6.98716195-4.9032111 6.9871619 4.9032111-2.6688381-7.9335263 6.9871238-4.9031742h-6.2287619zm-3.2073143-4.92392658l-4.6754286 8.47286548c-.6169905 1.1326198-.1645333 2.5400236 1.0090286 3.1363949.3445714.1751068.7310476.2676459 1.1176.2676827.8969143.0000368 1.7133333-.4757945 2.1306286-1.2418269l.0766095-.1388271-1.2848762-.6636323.1120381-.2023718 1.2845714.6634852L19.7204 17.1305038l-1.2863619-.6644417.1120381-.2023718 1.2860571.6642946 1.0808762-1.958775-1.2878476-.6652145.1120381-.2023718 1.287581.6650673 1.0808761-1.958775-1.2893714-.6659504.1120381-.2024086 1.2891048.66584.9087238-1.64679126-1.3198476-.67069692c.006019-.04150462.0089142-.0753191.0102857-.10891282.0015619-.038745.0008762-.07712205-.0019429-.11509436l1.5979429.81202602c.0444952.02181936.0920381.03315218.1415238.03315218.1170286 0 .2235809-.06210974.278019-.1620446l.1217143-.22345527c.0390095-.07160282.0468572-.1536186.021981-.23088782-.0248381-.07730602-.0793905-.14063-.1535238-.17830795L19.1954095 7.763155c-.0456381-.02321756-.0946285-.03495513-.1456-.03495513-.1171428 0-.2236571.06207295-.2780952.16200782L18.65 8.1136629c-.0170286.03120205-.0277333.06439102-.0327619.0982791-.0065143.04393308-.0032762.0890068.0107429.1326455.0148952.04628796.0406095.08742463.0746285.12116553.022781.02259205.049181.04198295.0789334.05710564l1.4032381.71279025c-.0342858.0195013-.0673905.04076872-.0992.06369193-.0302858.02185613-.0593143.0451841-.0870858.06991023l-1.1291428-.57377922zm1.4273524.61119962c.0374095-.0208995.0763047-.0393705.1167619-.05482436.0990476-.03775154.2063238-.05868782.3178285-.05868782.0396191 0 .0797715.00264923.1193524.0078373.3696762.04860603.6543238.31474334.7346667.64637552.0098286.04054795.0166095.08208936.0201143.12432987.0031238.03775154.0035428.0760918.0012571.1147632-.0012952.02215052-.0032381.04437462-.0063619.0667091-.058819.41725386-.4313143.7319236-.8664762.7318868-.0396571 0-.0798095-.00264923-.1193524-.0078373-.106019-.01394526-.2060952-.04650872-.2975238-.0941213-.1084952-.0564801-.2046476-.13441165-.2814476-.23202845-.1416-.17981654-.2022476-.40216795-.1707048-.62602795.0125715-.08919077.0402286-.17330384.0790477-.2510514.0596952-.11965693.1472762-.2231977.2543619-.30326334.0312762-.0234015.0641143-.0448897.0984762-.0640598zm.6385142.4850668c.0013334-.0093091.0019429-.01854462.0024762-.02778013.0024381-.0423877-.0032762-.0835611-.0158095-.1221957-.0403047-.1241459-.1513524-.22128433-.2936762-.23997613-.0534476-.00702782-.1056381-.00195013-.1539809.01251026-.0412191.0122895-.0796191.031386-.1133715.0565169-.0720381.05368374-.1231619.1335654-.1363809.2275027-.0267429.189604.1107428.36419565.3070095.38998886.1962667.0257932.3770286-.1069627.4037333-.29656666zm-3.4609904 6.91011376c-.0202286 0-.0407238-.0013247-.0609143-.0039739-.2441905-.0321219-.4157333-.2500579-.3825143-.4858763.029981-.2128951.2200381-.3734679.442019-.3734679.0202286 0 .0407239.0013614.0609905.0040106.1182476.0155275.2232.0746568.2954667.1663864.0722286.0918032.1031619.2052418.0870476.3194899-.0299809.2128951-.2200381.3734312-.4420952.3734312zm3.6222476-9.67333505c-.0544 0-.1095238-.0036427-.1638095-.0107809-.3182477-.04183577-.6006096-.2008632-.7950477-.44783038-.1944-.2469304-.2776-.55221744-.2342857-.8596386.0806857-.57289614.5922286-1.00497832 1.1897905-1.00497832.0544 0 .1095238.0036427.1638476.0107809.3182857.04183576.6006476.2008632.7950476.44783038.1944381.24693038.2776.55221743.2343239.8596386-.0807619.57293294-.5922286 1.00501512-1.1898667 1.00497832zm-3.853981 9.10286735c-.0150095.1066683.0622858.2048738.1727238.219371.1104.014534.2120762-.0601596.2270858-.1667912.0150476-.1066315-.0622858-.204837-.1726858-.219371-.1104-.0144972-.2120761.0601596-.2271238.1667912zm4.0717334-10.64335825c.035619-.25274397-.1476572-.48554512-.4093334-.51994833-.2617142-.0344032-.5027428.14261692-.5383619.3953977-.035619.25274397.1476953.48554512.4093715.51994833.2617142.0344032.5027428-.14261693.5383238-.3953977zm-2.9604953 8.05296245c-.0285333 0-.0574857-.0019133-.0859809-.0056664-.3445714-.0452577-.5867429-.3528628-.5398857-.6856725.0423619-.3004669.3106285-.5270497.624-.5270497.0285333 0 .0574476.0018765.0859809.0056296.1669334.0219298.3150095.1053437.4169524.2348617.101981.1295179.1456381.2896124.1228952.4508108-.0423238.3005405-.3105904.5271233-.6239619.5270865zm-.3724952-.8555912c-.0200381.1421754.0830476.2731284.2302476.2924825.1472381.0193541.282781-.0802128.3028191-.222425.0200381-.1421754-.0830477-.2731284-.2302477-.2924825-.1472-.0193541-.2827809.0802497-.302819.222425z"/>
    </g>
</svg>
