<svg xmlns="http://www.w3.org/2000/svg" width="200" height="44" viewBox="0 0 200 44">
  <g fill="none" fill-rule="evenodd">
    <g transform="translate(50 7)">
      <path fill="#3D474D" d="M20.134,24.07 L21.684,12.91 C22.118,9.903 20.041,7.485 17.034,7.485 C15.174,7.485 13.376,8.446 12.198,9.872 C11.454,8.446 9.904,7.485 8.044,7.485 C5.037,7.485 2.278,9.903 1.844,12.91 L0.294,24.07 C0.201,24.69 0.635,25 1.1,25 C1.565,25 2.061,24.69 2.154,24.07 L3.704,12.91 C3.983,10.926 5.781,9.345 7.765,9.345 C9.749,9.345 11.113,10.926 10.834,12.91 L9.284,24.07 C9.191,24.721 9.594,25.031 10.059,25.031 C10.524,25.031 11.051,24.721 11.144,24.07 L12.694,12.91 C12.973,10.926 14.771,9.345 16.755,9.345 C18.739,9.345 20.103,10.926 19.824,12.91 L18.274,24.07 C18.181,24.69 18.615,25 19.08,25 C19.545,25 20.041,24.69 20.134,24.07 Z M35.787,15.7 C35.694,16.196 35.198,16.63 34.702,16.63 L25.402,16.63 L25.061,19.265 C24.72,21.497 26.58,23.45 28.967,23.45 C30.145,23.45 31.602,23.109 32.656,21.962 C32.935,21.683 33.245,21.559 33.493,21.559 C33.989,21.559 34.392,21.962 34.33,22.458 C34.299,22.644 34.206,22.861 34.051,23.047 C32.656,24.597 30.579,25.31 28.688,25.31 C25.433,25.31 22.705,22.675 23.201,19.265 L24.007,13.53 C24.472,10.182 27.541,7.485 30.889,7.485 C34.237,7.485 36.562,10.182 36.097,13.53 L35.787,15.7 Z M34.051,14.77 L34.237,13.53 C34.547,11.205 32.935,9.345 30.61,9.345 C28.285,9.345 26.177,11.205 25.867,13.53 L25.681,14.77 L34.051,14.77 Z M38.6990001,24.07 C38.6060001,24.69 38.1100001,25 37.6450001,25 C37.1800001,25 36.7460001,24.69 36.8390001,24.07 L38.9780001,8.725 C39.0710001,8.105 39.5980001,7.795 40.0630001,7.795 C40.5280001,7.795 40.9310001,8.105 40.8380001,8.725 L38.6990001,24.07 Z M39.5670001,2.432 C39.4740001,3.114 39.9390001,3.672 40.6210001,3.672 C41.3030001,3.672 41.9540001,3.114 42.0470001,2.432 C42.1400001,1.75 41.6440001,1.192 40.9620001,1.192 C40.2800001,1.192 39.6600001,1.75 39.5670001,2.432 Z M51.7790001,20.412 C51.3760001,23.419 48.4000001,25.31 45.3310001,25.31 C43.7500001,25.31 41.6730001,24.597 40.9290001,23.171 C40.8360001,22.985 40.7740001,22.799 40.8050001,22.644 C40.8980001,22.117 41.3940001,21.714 41.8900001,21.714 C42.1690001,21.714 42.4170001,21.807 42.6030001,22.117 C42.6030001,22.117 42.6340001,22.179 42.7270001,22.272 C43.3780001,23.078 44.4940001,23.45 45.6100001,23.45 C48.0280001,23.45 49.7020001,22.055 49.9190001,20.412 C50.5390001,16.01 41.6110001,17.622 42.4170001,11.918 C42.8200001,8.973 45.6100001,7.485 48.0590001,7.485 C49.7950001,7.485 51.7170001,8.415 52.4610001,9.934 C52.5230001,10.089 52.5540001,10.275 52.5230001,10.461 C52.4610001,10.957 51.9030001,11.36 51.4380001,11.36 C51.1590001,11.36 50.9110001,11.236 50.7250001,10.926 C50.7250001,10.926 50.6940001,10.864 50.6010001,10.709 C49.9810001,9.872 48.9580001,9.345 47.7800001,9.345 C45.9200001,9.345 44.4940001,10.399 44.2770001,11.918 C43.7190001,15.762 52.6470001,14.336 51.7790001,20.412 Z M63.8050002,23.295 C63.7430002,23.698 63.4020002,23.946 63.0610002,24.194 C62.0380002,24.876 60.7980002,25.31 59.6200002,25.31 C56.8920002,25.31 55.1870002,23.419 55.5280002,20.939 L57.1090002,9.655 L54.2880002,9.655 C53.6680002,9.655 53.4200002,9.19 53.4820002,8.725 C53.5440002,8.26 53.9470002,7.795 54.5670002,7.795 L57.3880002,7.795 L57.9150002,3.858 C58.0080002,3.238 58.5350002,2.928 59.0000002,2.928 C59.4650002,2.928 59.8680002,3.238 59.7750002,3.858 L59.2480002,7.795 L64.7350002,7.795 C65.3550002,7.795 65.5720002,8.26 65.5100002,8.725 C65.4480002,9.19 65.0760002,9.655 64.4560002,9.655 L58.9690002,9.655 L57.3880002,20.939 C57.2020002,22.303 58.1010002,23.45 59.8990002,23.45 C61.6040002,23.45 62.3480002,22.334 63.0610002,22.334 C63.5570002,22.334 63.8670002,22.799 63.8050002,23.295 Z M77.8150002,15.7 C77.7220002,16.196 77.2260002,16.63 76.7300002,16.63 L67.4300002,16.63 L67.0890002,19.265 C66.7480002,21.497 68.6080002,23.45 70.9950002,23.45 C72.1730002,23.45 73.6300002,23.109 74.6840002,21.962 C74.9630002,21.683 75.2730002,21.559 75.5210002,21.559 C76.0170002,21.559 76.4200002,21.962 76.3580002,22.458 C76.3270002,22.644 76.2340002,22.861 76.0790002,23.047 C74.6840002,24.597 72.6070002,25.31 70.7160002,25.31 C67.4610002,25.31 64.7330002,22.675 65.2290002,19.265 L66.0350002,13.53 C66.5000002,10.182 69.5690002,7.485 72.9170002,7.485 C76.2650002,7.485 78.5900002,10.182 78.1250002,13.53 L77.8150002,15.7 Z M76.0790002,14.77 L76.2650002,13.53 C76.5750002,11.205 74.9630002,9.345 72.6380002,9.345 C70.3130002,9.345 68.2050002,11.205 67.8950002,13.53 L67.7090002,14.77 L76.0790002,14.77 Z M90.4610003,9.655 C90.4920003,9.438 90.4300003,9.221 90.2440003,9.004 C89.4380003,8.043 87.8880003,7.485 86.6170003,7.485 C83.0210003,7.485 80.7890003,10.306 80.3240003,13.747 L78.8670003,24.07 C78.7740003,24.69 79.2080003,25 79.6730003,25 C80.1380003,25 80.6340003,24.69 80.7270003,24.07 L82.1840003,13.747 C82.5560003,10.957 84.1060003,9.345 86.3380003,9.345 C87.2060003,9.345 88.0430003,9.655 88.6320003,10.182 L88.7560003,10.306 C88.9420003,10.492 89.1590003,10.585 89.3760003,10.585 C89.9030003,10.585 90.3990003,10.151 90.4610003,9.655 Z"/>
      <path fill="#0AF" d="M95.262,24.38 C95.2,24.845 94.766,25.31 94.239,25.31 C94.146,25.31 93.991,25.31 93.867,25.248 C93.867,25.248 93.712,25.186 93.433,24.969 C91.945,23.946 91.573,21.993 91.852,20.133 L94.425,1.75 C94.518,1.13 95.014,0.82 95.479,0.82 C95.944,0.82 96.378,1.13 96.285,1.75 L93.712,20.133 C93.526,21.28 93.681,22.985 94.797,23.512 C95.169,23.698 95.324,24.039 95.262,24.38 Z M107.505,19.978 C107.071,23.171 104.157,25.31 101.15,25.31 C98.205,25.31 95.756,23.574 96.221,20.319 C96.655,17.219 99.476,15.7 102.359,15.111 L106.451,14.274 L106.668,12.817 C106.947,10.74 105.955,9.345 103.444,9.345 C102.266,9.345 101.46,9.717 100.747,10.213 C100.034,10.709 99.817,11.205 99.166,11.205 C98.701,11.205 98.329,10.833 98.391,10.306 C98.453,9.965 98.701,9.655 98.949,9.407 C100.251,8.136 102.018,7.485 103.723,7.485 C107.226,7.485 108.962,9.717 108.528,12.817 L107.505,19.978 Z M105.645,19.978 L106.203,16.134 L102.08,17.002 C99.879,17.467 98.298,18.707 98.081,20.288 C97.802,22.21 99.135,23.45 101.398,23.45 C103.568,23.45 105.366,21.993 105.645,19.978 Z M122.104,19.265 C121.608,22.613 118.539,25.31 115.191,25.31 C111.843,25.31 109.518,22.613 110.014,19.265 L112.463,1.75 C112.556,1.13 113.052,0.82 113.517,0.82 C113.982,0.82 114.416,1.13 114.323,1.75 L113.238,9.438 C114.447,8.291 116.059,7.485 117.702,7.485 C121.05,7.485 123.375,10.182 122.91,13.53 L122.104,19.265 Z M120.244,19.265 L121.05,13.53 C121.36,11.205 119.748,9.345 117.423,9.345 C115.098,9.345 112.99,11.205 112.68,13.53 L111.874,19.265 C111.533,21.59 113.145,23.45 115.47,23.45 C117.795,23.45 119.903,21.59 120.244,19.265 Z M134.347,20.412 C135.215,14.336 126.287,15.762 126.845,11.918 C127.062,10.399 128.488,9.345 130.348,9.345 C131.526,9.345 132.549,9.872 133.169,10.709 C133.262,10.864 133.293,10.926 133.293,10.926 C133.479,11.236 133.727,11.36 134.006,11.36 C134.471,11.36 135.029,10.957 135.091,10.461 C135.122,10.275 135.091,10.089 135.029,9.934 C134.285,8.415 132.363,7.485 130.627,7.485 C128.178,7.485 125.388,8.973 124.985,11.918 C124.179,17.622 133.107,16.01 132.487,20.412 C132.27,22.055 130.596,23.45 128.178,23.45 C127.062,23.45 125.946,23.078 125.295,22.272 C125.202,22.179 125.171,22.117 125.171,22.117 C124.985,21.807 124.737,21.714 124.458,21.714 C123.962,21.714 123.466,22.117 123.373,22.644 C123.342,22.799 123.404,22.985 123.497,23.171 C124.241,24.597 126.318,25.31 127.899,25.31 C130.968,25.31 133.944,23.419 134.347,20.412 Z"/>
    </g>
    <g transform="translate(4 1)">
      <path fill="#FFF" stroke="#FFF" stroke-linecap="round" stroke-linejoin="round" d="M28.0450494,14.6218847 L28.7153994,13.3892675 C28.7753375,13.4009867 28.8363494,13.4069658 28.8974589,13.4069658 C29.2470327,13.4069658 29.5653196,13.2186938 29.7279042,12.9156697 L29.8838994,12.6251778 C30.0005542,12.4079667 30.0238363,12.1591855 29.949597,11.9247065 C29.8752601,11.6902753 29.7122363,11.4982245 29.4905435,11.3839028 L23.5623339,8.327305 C23.4551482,8.2720575 23.3374196,8.23795233 23.2174946,8.22632883 L20.4999756,0.0299436667 L15.6619756,14.6218847 L0.00602797619,14.6218847 L12.671953,23.64019 L7.8340506,38.232131 L20.4999756,29.2137778 L33.1659006,38.232131 L28.3279982,23.64019 L40.9939232,14.6218847 L28.0450494,14.6218847 Z"/>
      <path fill="#FFF" stroke="#FFF" stroke-linecap="round" stroke-linejoin="round" d="M25.7486101,7.96707217 C26.5143339,7.96712 27.1696506,7.40541317 27.2731268,6.66060033 C27.3285744,6.26095283 27.2220232,5.86407967 26.9728994,5.54307017 C26.7238244,5.22201283 26.3620482,5.01527717 25.9542446,4.96089067 C25.8846423,4.951611 25.8140149,4.9468755 25.7443149,4.9468755 C24.9786887,4.9468755 24.3232744,5.50858233 24.2198958,6.25334733 C24.1643994,6.65299483 24.2709994,7.049868 24.5200744,7.3708775 C24.7691982,7.69193483 25.1309744,7.8986705 25.5387292,7.953057 C25.6082827,7.96233667 25.6789101,7.96707217 25.7486101,7.96707217 Z"/>
      <path fill="#0AF" d="M28.0450494,14.6218847 L40.9939232,14.6218847 L28.3279982,23.64019 L33.1659006,38.232131 L20.4999756,29.2137778 L7.8340506,38.232131 L12.671953,23.64019 L0.00602797619,14.6218847 L15.6619756,14.6218847 L20.4999756,0.0299436667 L23.2174946,8.22632883 C23.3374196,8.23795233 23.4551482,8.2720575 23.5623339,8.327305 L29.4905435,11.3839028 C29.7122363,11.4982245 29.8752601,11.6902753 29.949597,11.9247065 C30.0238363,12.1591855 30.0005542,12.4079667 29.8838994,12.6251778 L29.7279042,12.9156697 C29.5653196,13.2186938 29.2470327,13.4069658 28.8974589,13.4069658 C28.8363494,13.4069658 28.7753375,13.4009867 28.7153994,13.3892675 L28.0450494,14.6218847 Z M27.0044792,16.535218 L22.8329244,24.2055322 C22.2060149,25.3731917 20.9783089,26.0993017 19.6296042,26.0993017 C19.0475506,26.0993017 18.4661315,25.9580977 17.9480673,25.6909485 C16.1829196,24.7808237 15.5023685,22.6330113 16.4310673,20.9031188 L21.9830042,10.6946723 L20.4999756,6.221586 L17.080478,16.535218 L6.01482202,16.535218 L14.967172,22.9093445 L11.5476744,33.2229287 L20.4999756,26.8487543 L29.4522768,33.2229287 L26.032828,22.9093445 L34.9850804,16.535218 L27.0044792,16.535218 Z M22.8951077,10.1341135 L16.9047149,21.1488387 C16.1141958,22.6212443 16.6939065,24.4508693 18.1975327,25.226152 C18.6390149,25.4537908 19.1341875,25.5740917 19.6294577,25.5741395 C20.7786292,25.5741873 21.8246661,24.9556067 22.3593256,23.9597645 L22.4574815,23.7792893 L20.8112339,22.9165673 L20.9547827,22.653484 L22.6006399,23.5160147 L23.9855125,20.969655 L22.3373613,20.1058807 L22.4809101,19.8427973 L24.1286708,20.7063803 L25.5135435,18.1599728 L23.8634887,17.295194 L24.0070375,17.0321107 L25.6567506,17.8966982 L27.0416232,15.3502907 L25.3896161,14.4845552 L25.5331649,14.221424 L27.1848304,15.087016 L28.3491327,12.9461873 L26.658078,12.0742813 C26.6657899,12.0203253 26.6694994,11.9763665 26.6712565,11.9326947 C26.6732577,11.8823262 26.6723792,11.832436 26.6687673,11.783072 L28.7161315,12.8387058 C28.7731411,12.867071 28.8340554,12.8818037 28.8974589,12.8818037 C29.0474018,12.8818037 29.183922,12.801061 29.2536708,12.6711457 L29.4096173,12.3806538 C29.4595982,12.2875702 29.469653,12.1809497 29.4377804,12.0804997 C29.4059565,11.9800018 29.3360613,11.8976807 29.241078,11.8486993 L23.3128685,8.7921015 C23.2543946,8.76191867 23.1916256,8.74665983 23.1263185,8.74665983 C22.9762292,8.74665983 22.8397577,8.82735467 22.7700089,8.95727 L22.6140625,9.24776183 C22.5922446,9.2883245 22.5785292,9.33147017 22.5720863,9.37552467 C22.5637399,9.43263767 22.5678887,9.4912335 22.5858506,9.54796383 C22.6049351,9.60813817 22.6378815,9.66161583 22.6814685,9.705479 C22.7106565,9.73484867 22.7444815,9.76005683 22.7826018,9.77971633 L24.5805006,10.7063437 C24.536572,10.7316953 24.4941565,10.759343 24.4534006,10.7891432 C24.414597,10.8175562 24.3774042,10.8478825 24.341822,10.8800265 L22.8951077,10.1341135 Z M24.723903,10.928673 C24.7718339,10.9015037 24.8216685,10.8774913 24.8735042,10.8574013 C25.0004089,10.8083243 25.1378565,10.7811072 25.280722,10.7811072 C25.3314839,10.7811072 25.3829292,10.7845512 25.4336423,10.7912957 C25.9072899,10.8544835 26.2719946,11.200462 26.3749339,11.6315838 C26.3875268,11.6842962 26.3962149,11.7383 26.4007054,11.7932127 C26.4047077,11.8422897 26.4052446,11.892132 26.4023161,11.9424048 C26.4006565,11.9712005 26.3981673,12.0000918 26.3941649,12.0291267 C26.318803,12.5715567 25.8415435,12.9806273 25.2839923,12.9805795 C25.2331815,12.9805795 25.1817363,12.9771355 25.131072,12.970391 C24.9952351,12.9522622 24.8670125,12.9099297 24.7498696,12.8480333 C24.6108601,12.7746092 24.4876649,12.6732982 24.3892649,12.5463963 C24.2078399,12.3126348 24.1301351,12.023578 24.1705494,11.73256 C24.1866565,11.616612 24.2220923,11.507265 24.2718292,11.4061932 C24.3483137,11.2506392 24.4605268,11.1160362 24.5977304,11.0119508 C24.637803,10.9815288 24.6798768,10.9535942 24.723903,10.928673 Z M25.5419994,11.5592598 C25.5437077,11.547158 25.5444887,11.5351518 25.545172,11.5231457 C25.5482958,11.4680417 25.5409744,11.4145162 25.5249161,11.3642912 C25.4732756,11.2029015 25.3309958,11.0766215 25.1486435,11.0523222 C25.0801637,11.043186 25.0132946,11.049787 24.9513554,11.0685855 C24.8985435,11.0845618 24.8493435,11.1093873 24.8060982,11.1420575 C24.7137994,11.2118463 24.648297,11.3156925 24.6313601,11.437811 C24.5970958,11.6842962 24.7732494,11.9112653 25.0247161,11.9447965 C25.2761827,11.9783277 25.5077839,11.805745 25.5419994,11.5592598 Z M21.1076054,20.5424077 C21.0816875,20.5424077 21.055428,20.5406857 21.0295589,20.5372417 C20.7166899,20.4954832 20.4969006,20.2121663 20.5394625,19.9056025 C20.5778756,19.6288388 20.8213863,19.4200942 21.1057994,19.4200942 C21.1317173,19.4200942 21.1579768,19.421864 21.1839435,19.425308 C21.3354482,19.4454937 21.4699185,19.5223618 21.5625101,19.6416103 C21.655053,19.7609545 21.6946863,19.9084247 21.6740399,20.0569472 C21.6356268,20.3337108 21.3921161,20.5424077 21.1076054,20.5424077 Z M25.7486101,7.96707217 C25.6789101,7.96707217 25.6082827,7.96233667 25.5387292,7.953057 C25.1309744,7.8986705 24.7691982,7.69193483 24.5200744,7.3708775 C24.2709994,7.049868 24.1643994,6.65299483 24.2198958,6.25334733 C24.3232744,5.50858233 24.9786887,4.9468755 25.7443149,4.9468755 C25.8140149,4.9468755 25.8846423,4.951611 25.9542446,4.96089067 C26.3620482,5.01527717 26.7238244,5.22201283 26.9728994,5.54307017 C27.2220232,5.86407967 27.3285744,6.26095283 27.2731268,6.66060033 C27.1696506,7.40541317 26.5143339,7.96712 25.7486101,7.96707217 Z M20.810697,19.8007997 C20.7914661,19.9394685 20.8905006,20.0671357 21.0319994,20.085982 C21.1734494,20.1048762 21.303722,20.0077745 21.322953,19.8691535 C21.3422327,19.7305325 21.2431494,19.6028653 21.1016994,19.5839712 C20.9602494,19.5651248 20.8299768,19.6621787 20.810697,19.8007997 Z M26.0276054,5.964434 C26.0732423,5.63586683 25.8384196,5.33322533 25.503147,5.28850117 C25.1678256,5.243777 24.8590077,5.47390317 24.8133708,5.80251817 C24.7677339,6.13108533 25.0026054,6.43372683 25.337878,6.478451 C25.6731994,6.52317517 25.9820173,6.293049 26.0276054,5.964434 Z M22.2344708,16.4332852 C22.1979125,16.4332852 22.1608173,16.4307978 22.1243077,16.4259188 C21.6828256,16.3670838 21.3725435,15.9671972 21.4325792,15.5345447 C21.4868554,15.1439377 21.830572,14.84938 22.2320792,14.84938 C22.2686375,14.84938 22.3056839,14.8518195 22.3422423,14.8566985 C22.5561256,14.8852072 22.7458482,14.9936453 22.8764625,15.1620187 C23.0071256,15.330392 23.0630613,15.5385148 23.033922,15.7480727 C22.9796946,16.1387753 22.635978,16.433333 22.2344708,16.4332852 Z M21.7572113,15.3210167 C21.7315375,15.5058447 21.8636161,15.6760835 22.0522161,15.7012438 C22.2408649,15.7264042 22.4145292,15.5969672 22.440203,15.4120913 C22.4658768,15.2272633 22.3337982,15.0570245 22.1451982,15.0318642 C21.9565982,15.0067038 21.7828851,15.1361887 21.7572113,15.3210167 Z"/>
    </g>
  </g>
</svg>
