<svg xmlns="http://www.w3.org/2000/svg" width="100%" height="100%" viewBox="0 0 91 21">
  <g fill="none" fill-rule="evenodd" transform="translate(0 .481)">
    <g fill-rule="nonzero">
      <path fill="#2BD9D9" d="M10.4153915,6.09797393 L9.40525744,8.11620569 C8.96743136,8.99097523 7.90336238,9.34518789 7.02859284,8.90736182 C6.1538233,8.46953574 5.79961064,7.40546676 6.23743671,6.53069722 L8.83148112,1.34783773 C9.48445186,0.0432125615 11.3463311,0.0432125615 11.9993018,1.34783773 L14.5933462,6.53069722 C15.0311723,7.40546676 14.6769597,8.46953574 13.8021901,8.90736182 C12.9274206,9.34518789 11.8633516,8.99097523 11.4255255,8.11620569 L10.4153915,6.09797393 Z"/>
      <path fill="#3DCC3D" d="M15.2679885,12.366341 C14.8301624,13.2411105 13.7660934,13.5953232 12.8913239,13.1574971 C12.0165543,12.719671 11.6623417,11.655602 12.1001678,10.7808325 L14.6942122,5.59797301 C15.3471829,4.29334784 17.2090621,4.29334784 17.8620329,5.59797301 L20.4560773,10.7808325 C20.8939034,11.655602 20.5396907,12.719671 19.6649212,13.1574971 C18.7901516,13.5953232 17.7260826,13.2411105 17.2882566,12.366341 L16.2781225,10.3481092 L15.2679885,12.366341 Z" transform="rotate(72 16.278 8.982)"/>
      <path fill="#FFD426" d="M14.0387585,17.2328351 L13.0286245,19.2510668 C12.5907984,20.1258364 11.5267294,20.480049 10.6519599,20.042223 C9.77719035,19.6043969 9.42297769,18.5403279 9.86080376,17.6655584 L12.4548482,12.4826989 C13.1078189,11.1780737 14.9696981,11.1780737 15.6226689,12.4826989 L18.2167133,17.6655584 C18.6545394,18.5403279 18.3003267,19.6043969 17.4255572,20.042223 C16.5507876,20.480049 15.4867186,20.1258364 15.0488926,19.2510668 L14.0387585,17.2328351 Z" transform="rotate(144 14.039 15.867)"/>
      <path fill="#F7578C" d="M6.7754342,17.2328351 L5.76530016,19.2510668 C5.32747409,20.1258364 4.2634051,20.480049 3.38863556,20.042223 C2.51386602,19.6043969 2.15965336,18.5403279 2.59747944,17.6655584 L5.19152384,12.4826989 C5.84449458,11.1780737 7.70637382,11.1780737 8.35934456,12.4826989 L10.953389,17.6655584 C11.391215,18.5403279 11.0370024,19.6043969 10.1622328,20.042223 C9.2874633,20.480049 8.22339432,20.1258364 7.78556824,19.2510668 L6.7754342,17.2328351 Z" transform="rotate(-144 6.775 15.867)"/>
      <path fill="#00AAFF" d="M3.54290778,12.366341 C3.1050817,13.2411105 2.04101272,13.5953232 1.16624318,13.1574971 C0.291473641,12.719671 -0.0627390225,11.655602 0.375087052,10.7808325 L2.96913146,5.59797301 C3.6221022,4.29334784 5.48398144,4.29334784 6.13695218,5.59797301 L8.73099658,10.7808325 C9.16882266,11.655602 8.81461,12.719671 7.93984046,13.1574971 C7.06507092,13.5953232 6.00100193,13.2411105 5.56317586,12.366341 L4.55304182,10.3481092 L3.54290778,12.366341 Z" transform="rotate(-72 4.553 8.982)"/>
      <path fill="#0090D9" d="M7.91832104,9.09232125 C7.62050246,9.10892578 7.31444109,9.05043015 7.02859284,8.90736182 C6.1538233,8.46953574 5.79961064,7.40546676 6.23743671,6.53069722 L6.65278874,5.70083048 L7.55455866,5.56464104 C8.52180963,5.41856235 9.42434164,6.08425401 9.57042033,7.05150498 C9.71649902,8.01875595 9.05080736,8.92128796 8.08355639,9.06736664 L7.91832104,9.09232125 Z"/>
      <path fill="#0AAD33" d="M14.177963,5.70076817 L14.5933462,6.53069722 C15.0311723,7.40546676 14.6769597,8.46953574 13.8021901,8.90736182 C13.5165349,9.05033351 13.2106939,9.10884672 12.9130654,9.09235479 L12.747608,9.06736664 C11.780357,8.92128796 11.1146653,8.01875595 11.260744,7.05150498 C11.4068227,6.08425401 12.3093547,5.41856235 13.2766057,5.56464104 L14.177963,5.70076817 Z"/>
      <path fill="#3DA909" d="M16.5126287,12.8670116 L15.8587237,13.5115832 C15.1620642,14.1982992 14.0406167,14.1902384 13.3539007,13.4935788 C12.6671847,12.7969192 12.6752455,11.6754718 13.3719051,10.9887558 L13.45773,10.9041559 C13.6957956,10.6985645 13.9916199,10.5538048 14.3246467,10.4986019 C15.2896978,10.338634 16.201706,10.9912829 16.3616739,11.956334 L16.5126287,12.8670116 Z"/>
      <path fill="#F74814" d="M10.4070964,17.2855546 L9.60160105,16.8678144 C8.73321568,16.4174587 8.39433569,15.3484079 8.8446914,14.4800225 C9.15800687,13.875881 9.77077559,13.5280242 10.4070964,13.5239105 C11.0434171,13.5280242 11.6561859,13.875881 11.9695013,14.4800225 C12.419857,15.3484079 12.080977,16.4174587 11.2125917,16.8678144 L10.4070964,17.2855546 Z"/>
      <path fill="#003A8C" d="M4.3039476,12.8526318 L4.45251886,11.956334 C4.61248676,10.9912829 5.52449488,10.338634 6.48954602,10.4986019 C7.45459715,10.6585698 8.10724606,11.5705779 7.94727816,12.5356291 L7.90723645,12.7771919 C7.82599957,13.0386671 7.68273047,13.2851369 7.47726366,13.4935788 C6.79054766,14.1902384 5.66910019,14.1982992 4.97244062,13.5115832 L4.3039476,12.8526318 Z"/>
    </g>
    <path fill="#3D474D" d="M0.241173388,7.7666049 L2.58672862,7.7666049 C2.71992501,7.7666049 2.82790201,7.8745819 2.82790201,8.00777829 L2.82790201,9.05500386 C2.95882386,8.87280511 3.08974394,8.6906091 3.2599426,8.50841036 C3.43014125,8.32621162 3.63306738,8.16353661 3.86872706,8.02038045 C4.10438674,7.8772243 4.3727729,7.76009829 4.6738936,7.66899892 C4.9750143,7.57789955 5.3023145,7.53235054 5.65580402,7.53235054 C6.32350645,7.53235054 6.91591981,7.66899755 7.43306188,7.94229567 C7.95020396,8.21559378 8.3396912,8.64505581 8.60153529,9.23069462 C8.9419326,8.61902741 9.35433085,8.18305839 9.83874242,7.92277447 C10.323154,7.66249055 10.9188403,7.53235054 11.6258194,7.53235054 C12.2673374,7.53235054 12.8073827,7.63971605 13.2459716,7.85445028 C13.6845604,8.06918452 14.0314986,8.36199953 14.2867966,8.73290412 C14.5420946,9.1038087 14.7253827,9.53977773 14.8366665,10.0408243 C14.9479502,10.5418708 15.0035912,11.0786983 15.0035912,11.651323 L15.0035912,17.0127329 C15.0035912,17.1459293 14.8956142,17.2539063 14.7624178,17.2539063 L12.2990334,17.2539063 C12.165837,17.2539063 12.05786,17.1459293 12.05786,17.0127329 L12.05786,11.7294078 C12.05786,11.2869251 11.9629429,10.9062656 11.7731059,10.5874178 C11.583269,10.26857 11.2461498,10.1091485 10.7617382,10.1091485 C10.4213409,10.1091485 10.1365897,10.164458 9.90747615,10.2750786 C9.67836257,10.3856993 9.49507446,10.5386138 9.35760631,10.7338267 C9.22013816,10.9290397 9.1219481,11.1567847 9.06303318,11.4170686 C9.00411826,11.6773525 8.97466125,11.9506465 8.97466125,12.2369589 L8.97466125,17.0127329 C8.97466125,17.1459293 8.86668424,17.2539063 8.73348786,17.2539063 L6.27010337,17.2539063 C6.13690699,17.2539063 6.02892998,17.1459293 6.02892998,17.0127329 L6.02892998,12.2369589 C6.02892998,12.0677743 6.02238398,11.8595503 6.00929177,11.6122806 C5.99619957,11.3650109 5.95037754,11.1307588 5.87182432,10.9095175 C5.79327109,10.6882762 5.66562401,10.4995732 5.48887925,10.3434028 C5.31213449,10.1872325 5.05356733,10.1091485 4.71317002,10.1091485 C4.33349609,10.1091485 4.0258339,10.177472 3.79017422,10.314121 C3.55451454,10.4507701 3.37449943,10.6329661 3.25012349,10.8607145 C3.12574755,11.0884629 3.0439225,11.3454895 3.00464589,11.6318018 C2.96536927,11.9181141 2.94573126,12.2174361 2.94573126,12.5297768 L2.94573126,17.0127329 C2.94573126,17.1459293 2.83775426,17.2539063 2.70455787,17.2539063 L0.241173388,17.2539063 C0.107977004,17.2539063 -9.47104499e-17,17.1459293 -1.11022302e-16,17.0127329 L5.55111512e-17,8.00777829 C9.83503757e-17,7.8745819 0.107977004,7.7666049 0.241173388,7.7666049 Z M25.3679743,15.8143941 C25.2482176,15.9497736 25.1496239,16.0538553 25.0721932,16.1266394 C24.692599,16.4834539 24.2532518,16.7746162 23.7541458,17.0001308 C23.0340746,17.3254857 22.2878301,17.4881607 21.5153901,17.4881607 C20.7822266,17.4881607 20.0916232,17.3710347 19.4435591,17.1367791 C18.795495,16.9025236 18.2325386,16.5674131 17.7546732,16.1314375 C17.2768077,15.695462 16.9004125,15.1716484 16.6254762,14.5599812 C16.3505399,13.948314 16.2130738,13.265079 16.2130738,12.5102556 C16.2130738,11.7554322 16.3505399,11.0721972 16.6254762,10.46053 C16.9004125,9.84886278 17.2768077,9.32504925 17.7546732,8.88907369 C18.2325386,8.45309812 18.795495,8.1179876 19.4435591,7.88373208 C20.0916232,7.64947655 20.7822266,7.53235054 21.5153901,7.53235054 C22.1961847,7.53235054 22.8147821,7.64947655 23.3712008,7.88373208 C23.9276195,8.1179876 24.3989317,8.45309812 24.7851518,8.88907369 C25.1713718,9.32504925 25.469215,9.84886278 25.6786903,10.46053 C25.8881655,11.0721972 25.9929016,11.7554322 25.9929016,12.5102556 L25.9929016,13.1061873 C25.9929016,13.2837825 25.8489323,13.4277518 25.6713371,13.4277518 L19.1588051,13.4277518 C19.2766349,13.9873623 19.5319291,14.4330918 19.9246952,14.7649538 C20.3174613,15.0968158 20.8018656,15.2627443 21.3779226,15.2627443 C21.8623342,15.2627443 22.2714594,15.1553788 22.6053106,14.9406446 C22.8113927,14.8080918 23.0012599,14.6519856 23.1749142,14.4723238 C23.2182104,14.4275298 23.2722974,14.365931 23.3371752,14.2875274 L23.3372198,14.2875643 C23.4184536,14.1893949 23.5620485,14.1713793 23.6650158,14.2464387 L25.3294073,15.4597636 C25.4370257,15.5382135 25.4606714,15.6890516 25.3822215,15.7966699 C25.3777538,15.8027988 25.3729994,15.8087134 25.3679743,15.8143941 Z M56.5567075,15.8143941 C56.4369508,15.9497736 56.3383571,16.0538553 56.2609264,16.1266394 C55.8813322,16.4834539 55.441985,16.7746162 54.942879,17.0001308 C54.2228078,17.3254857 53.4765633,17.4881607 52.7041233,17.4881607 C51.9709598,17.4881607 51.2803564,17.3710347 50.6322923,17.1367791 C49.9842282,16.9025236 49.4212718,16.5674131 48.9434064,16.1314375 C48.4655409,15.695462 48.0891457,15.1716484 47.8142094,14.5599812 C47.5392731,13.948314 47.401807,13.265079 47.401807,12.5102556 C47.401807,11.7554322 47.5392731,11.0721972 47.8142094,10.46053 C48.0891457,9.84886278 48.4655409,9.32504925 48.9434064,8.88907369 C49.4212718,8.45309812 49.9842282,8.1179876 50.6322923,7.88373208 C51.2803564,7.64947655 51.9709598,7.53235054 52.7041233,7.53235054 C53.3849179,7.53235054 54.0035153,7.64947655 54.559934,7.88373208 C55.1163527,8.1179876 55.5876649,8.45309812 55.973885,8.88907369 C56.360105,9.32504925 56.6579482,9.84886278 56.8674235,10.46053 C57.0768987,11.0721972 57.1816348,11.7554322 57.1816348,12.5102556 L57.1816348,13.1061873 C57.1816348,13.2837825 57.0376654,13.4277518 56.8600703,13.4277518 L50.3475383,13.4277518 C50.4653681,13.9873623 50.7206623,14.4330918 51.1134284,14.7649538 C51.5061945,15.0968158 51.9905988,15.2627443 52.5666558,15.2627443 C53.0510674,15.2627443 53.4601926,15.1553788 53.7940438,14.9406446 C54.0001259,14.8080918 54.1899931,14.6519856 54.3636474,14.4723238 C54.4069436,14.4275298 54.4610306,14.365931 54.5259084,14.2875274 L54.525953,14.2875643 C54.6071868,14.1893949 54.7507817,14.1713793 54.853749,14.2464387 L56.5181405,15.4597636 C56.6257588,15.5382135 56.6494046,15.6890516 56.5709547,15.7966699 C56.566487,15.8027988 56.5617326,15.8087134 56.5567075,15.8143941 Z M23.0471703,11.4365898 C23.0602625,10.9420504 22.8966124,10.5190953 22.5562151,10.167712 C22.2158178,9.81632876 21.7772355,9.64063975 21.2404552,9.64063975 C20.91315,9.64063975 20.6251259,9.69269575 20.376374,9.79680932 C20.1276221,9.90092289 19.914877,10.0343164 19.7381322,10.1969938 C19.5613875,10.3596713 19.4239214,10.5483743 19.3257298,10.7631085 C19.2275383,10.9778428 19.1718973,11.2023343 19.1588051,11.4365898 L23.0471703,11.4365898 Z M27.4829076,7.7666049 L29.9462921,7.7666049 C30.0794885,7.7666049 30.1874655,7.8745819 30.1874655,8.00777829 L30.1874655,17.0127329 C30.1874655,17.1459293 30.0794885,17.2539063 29.9462921,17.2539063 L27.4829076,17.2539063 C27.3497112,17.2539063 27.2417342,17.1459293 27.2417342,17.0127329 L27.2417342,8.00777829 C27.2417342,7.8745819 27.3497112,7.7666049 27.4829076,7.7666049 Z M28.7208798,6.89217013 C27.7718229,6.89217013 27.0024603,6.12665445 27.0024603,5.18234299 C27.0024603,4.23803154 27.7718229,3.47251586 28.7208798,3.47251586 C29.6699367,3.47251586 30.4392993,4.23803154 30.4392993,5.18234299 C30.4392993,6.12665445 29.6699367,6.89217013 28.7208798,6.89217013 Z M37.1312313,10.558136 C36.6991885,10.0245539 36.1296862,9.75776693 35.4227072,9.75776693 C35.1739553,9.75776693 34.9317531,9.81632993 34.6960934,9.93345769 C34.4604338,10.0505855 34.3426057,10.2523025 34.3426057,10.5386148 C34.3426057,10.7728703 34.4637068,10.9453058 34.7059125,11.0559265 C34.9481183,11.1665471 35.2557805,11.2641522 35.6289083,11.3487444 C36.0020362,11.4333367 36.4013424,11.5244347 36.8268391,11.6220412 C37.2523357,11.7196476 37.6516419,11.8725622 38.0247698,12.0807893 C38.3978976,12.2890164 38.7055598,12.5720709 38.9477656,12.9299613 C39.1899713,13.2878517 39.3110724,13.7661162 39.3110724,14.3647693 C39.3110724,14.9764365 39.1768793,15.480729 38.9084891,15.877662 C38.640099,16.274595 38.2964337,16.593438 37.8774832,16.8342006 C37.4585327,17.0749632 36.9872204,17.2441452 36.4635322,17.3417517 C35.939844,17.4393582 35.4227097,17.4881607 34.9121137,17.4881607 C34.2444113,17.4881607 33.5701729,17.3938092 32.8893783,17.2051033 C32.2085836,17.0163975 31.6325353,16.681287 31.1612159,16.1997617 L32.9482929,14.2281209 C33.2232292,14.56649 33.5276184,14.8235165 33.8614696,14.9992081 C34.1953208,15.1748998 34.584808,15.2627443 35.029943,15.2627443 C35.3703403,15.2627443 35.6780025,15.2139418 35.9529388,15.1163353 C36.2278751,15.0187289 36.3653412,14.8397863 36.3653412,14.5795024 C36.3653412,14.3322327 36.2442401,14.1467832 36.0020343,14.0231483 C35.7598285,13.8995135 35.4521663,13.7954015 35.0790385,13.7108092 C34.7059107,13.6262169 34.3066044,13.5351189 33.8811078,13.4375124 C33.4556111,13.339906 33.0563049,13.1934985 32.6831771,12.9982855 C32.3100493,12.8030726 32.0023871,12.5265251 31.7601813,12.1686347 C31.5179755,11.8107443 31.3968744,11.3324798 31.3968744,10.7338267 C31.3968744,10.1742163 31.5114295,9.69269829 31.7405431,9.28925821 C31.9696567,8.88581814 32.2707728,8.55396112 32.6439007,8.2936772 C33.0170285,8.03339328 33.4457918,7.84143677 33.9302033,7.71780191 C34.4146149,7.59416705 34.9055652,7.53235054 35.4030689,7.53235054 C36.0314948,7.53235054 36.6664571,7.62344855 37.3079752,7.80564729 C37.9494932,7.98784603 38.4928115,8.31319605 38.9379465,8.78170711 L37.1312313,10.558136 Z M46.5046937,10.1091485 L44.1536236,10.1091485 L44.1536236,13.2715823 C44.1536236,13.5318662 44.1667156,13.7693717 44.1929,13.9841059 C44.2190844,14.1988402 44.2779984,14.3842897 44.3696438,14.54046 C44.4612893,14.6966304 44.6020284,14.8170099 44.7918653,14.9016022 C44.9817023,14.9861944 45.2337234,15.0284899 45.5479363,15.0284899 C45.7050428,15.0284899 45.9112419,15.0122224 46.1665399,14.9796869 C46.2461728,14.9695384 46.3308211,14.9477567 46.4204847,14.9143416 L46.4204886,14.914352 C46.5452938,14.8678407 46.6841733,14.9313105 46.7306846,15.0561157 C46.7407253,15.0830582 46.7458671,15.1115792 46.7458671,15.1403319 L46.7457288,17.0135495 C46.7457288,17.1217804 46.6735874,17.2167409 46.5693192,17.2457594 C46.2096959,17.3458449 45.9281496,17.4071241 45.7246802,17.4295971 C45.3711907,17.4686397 45.0242525,17.4881607 44.6838552,17.4881607 C44.1863514,17.4881607 43.7281311,17.4361047 43.3091806,17.3319911 C42.89023,17.2278775 42.5236538,17.061949 42.2094409,16.8342006 C41.895228,16.6064522 41.6497529,16.3103837 41.4730081,15.9459862 C41.2962633,15.5815887 41.2078923,15.1391127 41.2078923,14.6185448 L41.2078923,10.1091485 L39.5637977,10.1091485 C39.4306013,10.1091485 39.3226243,10.0011715 39.3226243,9.86797507 L39.3226243,8.00777829 C39.3226243,7.8745819 39.4306013,7.7666049 39.5637977,7.7666049 L41.2078923,7.7666049 L41.2078923,5.19672601 C41.2078923,5.06352963 41.3158693,4.95555263 41.4490657,4.95555263 L43.9124502,4.95555263 C44.0456465,4.95555263 44.1536236,5.06352963 44.1536236,5.19672601 L44.1536236,7.7666049 L46.5046937,7.7666049 C46.6378901,7.7666049 46.7458671,7.8745819 46.7458671,8.00777829 L46.7458671,9.86797507 C46.7458671,10.0011715 46.6378901,10.1091485 46.5046937,10.1091485 Z M54.2002999,11.4365898 C54.2133921,10.9420504 54.049742,10.5190953 53.7093447,10.167712 C53.3689474,9.81632876 52.9303651,9.64063975 52.3935847,9.64063975 C52.0662796,9.64063975 51.7782555,9.69269575 51.5295036,9.79680932 C51.2807517,9.90092289 51.0680066,10.0343164 50.8912618,10.1969938 C50.714517,10.3596713 50.577051,10.5483743 50.4788594,10.7631085 C50.3806679,10.9778428 50.3250269,11.2023343 50.3119346,11.4365898 L54.2002999,11.4365898 Z M58.5966871,7.7666049 L61.0600716,7.7666049 C61.193268,7.7666049 61.301245,7.8745819 61.301245,8.00777829 L61.301245,9.28925821 L61.3405214,9.28925821 C61.6547343,8.70361939 62.0278566,8.26439687 62.4598993,7.97157746 C62.8919421,7.67875805 63.4352604,7.53235054 64.0898706,7.53235054 C64.2600693,7.53235054 64.4302654,7.53885754 64.600464,7.55187174 C64.6735372,7.55745926 64.7647099,7.57024356 64.8739823,7.59022465 L64.8739834,7.59021874 C64.9885511,7.61116811 65.071781,7.71099712 65.071781,7.82746445 L65.0717403,9.99205644 C65.0717403,10.1252303 64.9637815,10.2331891 64.8306076,10.2331891 C64.8111952,10.2331891 64.7918538,10.2308449 64.7730034,10.2262075 C64.640901,10.1937086 64.5342924,10.1709565 64.4531775,10.1579515 C64.2502483,10.125416 64.0375032,10.1091485 63.8149357,10.1091485 C63.2519709,10.1091485 62.8068426,10.1872325 62.4795375,10.3434028 C62.1522324,10.4995732 61.9002113,10.7175577 61.7234665,10.9973629 C61.5467217,11.2771681 61.4321667,11.6122786 61.3797978,12.0027045 C61.327429,12.3931304 61.301245,12.8225924 61.301245,13.2911035 L61.301245,17.0127329 C61.301245,17.1459293 61.193268,17.2539063 61.0600716,17.2539063 L58.5966871,17.2539063 C58.4634908,17.2539063 58.3555138,17.1459293 58.3555138,17.0127329 L58.3555138,8.00777829 C58.3555138,7.8745819 58.4634908,7.7666049 58.5966871,7.7666049 Z" transform="translate(25.492)"/>
  </g>
</svg>
