<?xml version="1.0" encoding="UTF-8" standalone="no"?>
<!DOCTYPE svg PUBLIC "-//W3C//DTD SVG 1.1//EN" "http://www.w3.org/Graphics/SVG/1.1/DTD/svg11.dtd">
<svg width="100%" height="100%" viewBox="0 0 278 158" version="1.1" xmlns="http://www.w3.org/2000/svg" xmlns:xlink="http://www.w3.org/1999/xlink" xml:space="preserve" style="fill-rule:evenodd;clip-rule:evenodd;stroke-linejoin:round;stroke-miterlimit:1.41421;">
    <g id="Warstwa-1">
        <path d="M199.219,91.954C213.847,91.954 224.991,87.426 230.912,81.156C234.046,77.674 237.703,72.275 235.092,68.097C232.827,64.44 228.996,63.743 224.469,66.007C219.941,68.271 214.892,69.49 209.145,69.49C203.573,69.49 197.652,67.4 194.516,64.265C190.686,60.434 188.595,55.558 188.595,49.811C188.595,48.418 189.467,48.244 191.033,49.463C195.039,52.597 200.96,54.165 208.971,54.165C223.772,54.165 236.834,44.239 236.834,28.915C236.834,12.719 221.508,0.704 198.347,0.704C172.401,0.704 152.374,17.421 152.374,45.632C152.374,71.928 169.789,91.954 199.219,91.954" style="fill-rule:nonzero;"/>
        <path d="M92.122,64.406C94.908,64.406 96.475,65.974 98.39,68.935L106.749,81.995C109.884,87.045 112.497,90.528 118.592,90.528C124.686,90.528 127.473,88.09 130.432,81.299C134.089,72.939 137.92,62.84 141.403,49.257C145.235,34.103 146.976,24.7 146.976,17.037C146.976,9.374 144.539,4.847 136.18,3.28C124.686,1.191 109.188,-0.028 92.122,-0.028C75.056,-0.028 59.556,1.191 48.063,3.28C39.704,4.847 37.266,9.374 37.266,17.037C37.266,24.7 39.008,34.103 42.839,49.257C46.322,62.84 50.153,72.939 53.81,81.299C56.77,88.09 59.556,90.528 65.651,90.528C71.747,90.528 74.36,87.045 77.493,81.995L85.852,68.935C87.767,65.974 89.336,64.406 92.122,64.406" style="fill-rule:nonzero;"/>
        <path d="M6.819,157.434L0.412,136.382L3.432,136.382L8.283,153.086L13.73,136.427L16.293,136.427L22.013,153.177L26.361,136.382L29.473,136.382L23.249,157.434L20.732,157.434L15.011,140.499L9.29,157.434L6.819,157.434Z" style="fill-rule:nonzero;"/>
        <path d="M46.404,144.665C46.449,144.436 46.449,143.978 46.449,143.749C46.449,140.546 44.711,138.349 41.415,138.349C37.662,138.349 35.237,141.232 34.779,144.71L46.404,144.665ZM34.596,147.182C34.688,151.896 37.525,155.282 41.919,155.282C44.207,155.282 46.404,154.595 48.006,153.543L48.555,156.152C46.77,157.249 44.436,157.937 41.827,157.937C35.786,157.937 31.713,153.406 31.713,147.044C31.713,140.455 35.924,135.785 41.599,135.785C46.221,135.785 49.241,138.807 49.241,143.521C49.241,144.619 49.058,145.946 48.783,146.861L34.596,146.953L34.596,147.182Z" style="fill-rule:nonzero;"/>
        <path d="M60.36,158.028C56.378,158.028 54.593,155.832 54.731,151.439L55.051,139.037L51.847,138.853L51.985,137.068L55.143,136.336L55.28,131.576L57.98,131.576L57.843,136.474L64.845,136.474L64.708,138.991L57.751,138.991L57.431,151.53C57.339,154.184 58.301,155.466 60.497,155.466C61.87,155.466 63.243,155.008 64.525,154.458L65.028,156.931C63.563,157.617 61.87,158.028 60.36,158.028" style="fill-rule:nonzero;"/>
        <path d="M72.486,157.342L69.648,157.342L69.648,136.381L72.486,135.787L72.486,140.272C73.86,137.571 75.919,135.787 78.664,135.787C80.037,135.787 81.364,136.198 82.326,136.747L81.593,139.402C80.678,138.853 79.581,138.487 78.39,138.487C76.194,138.487 74.134,140.134 72.486,143.886L72.486,157.342Z" style="fill-rule:nonzero;"/>
        <path d="M96.649,146.587C89.464,147.41 86.902,149.013 86.902,151.804C86.902,154.047 88.732,155.466 91.203,155.466C93.445,155.466 95.368,154.184 96.649,152.72L96.649,146.587ZM96.695,154.825C95.277,156.564 93.033,157.937 90.563,157.937C86.718,157.937 83.926,155.466 83.926,152.124C83.926,148.326 86.902,145.213 96.649,144.665L96.649,143.429C96.649,140.134 95.185,138.441 91.707,138.441C89.418,138.441 86.626,139.631 84.842,140.958L84.201,138.304C86.077,136.975 89.236,135.787 91.981,135.787C96.832,135.787 99.533,137.984 99.486,143.292L99.486,153.36C99.486,154.871 99.761,155.511 101.592,155.466L101.408,157.8C98.662,157.982 97.153,156.884 96.832,154.825L96.695,154.825Z" style="fill-rule:nonzero;"/>
        <path d="M119.622,157.342L119.622,143.796C119.622,140.134 118.158,138.487 114.999,138.487C112.711,138.487 110.376,139.722 108.638,141.462L108.638,157.342L105.801,157.342L105.801,136.381L108.638,135.787L108.638,139.219C110.834,137.022 113.581,135.787 115.777,135.787C119.987,135.787 122.459,138.395 122.459,142.972L122.459,157.342L119.622,157.342Z" style="fill-rule:nonzero;"/>
        <path d="M133.99,157.937C131.519,157.937 128.909,157.205 127.124,156.061L127.902,153.451C129.688,154.641 131.931,155.374 134.081,155.374C136.598,155.374 138.795,154.138 138.795,151.85C138.795,149.333 136.14,148.6 133.532,147.777C130.648,146.908 127.444,145.489 127.444,141.828C127.444,138.028 130.602,135.787 134.539,135.787C136.826,135.787 139.115,136.427 140.901,137.343L140.076,139.905C138.337,138.945 136.186,138.35 134.355,138.35C131.793,138.35 130.146,139.539 130.146,141.552C130.146,143.933 132.617,144.665 135.317,145.489C138.291,146.357 141.496,147.731 141.496,151.621C141.496,155.466 138.2,157.937 133.99,157.937" style="fill-rule:nonzero;"/>
        <path d="M156.688,128.968C155.726,128.51 154.628,128.098 153.485,128.098C151.15,128.098 150.005,129.609 150.005,132.994L150.005,136.473L156.595,136.473L156.46,138.991L150.005,138.991L150.005,157.342L147.214,157.342L147.214,139.082L143.827,138.853L144.01,137.068L147.169,136.336L147.214,133.04C147.306,127.504 149.868,125.489 153.531,125.489C154.949,125.489 156.414,125.946 157.373,126.405C157.373,126.451 156.688,129.013 156.688,128.968" style="fill-rule:nonzero;"/>
        <path d="M173.571,144.665C173.617,144.436 173.617,143.978 173.617,143.749C173.617,140.546 171.878,138.349 168.583,138.349C164.831,138.349 162.406,141.232 161.949,144.71L173.571,144.665ZM161.765,147.182C161.855,151.896 164.694,155.282 169.087,155.282C171.375,155.282 173.571,154.595 175.174,153.543L175.724,156.152C173.938,157.249 171.605,157.937 168.997,157.937C162.956,157.937 158.88,153.406 158.88,147.044C158.88,140.455 163.093,135.785 168.766,135.785C173.39,135.785 176.409,138.807 176.409,143.521C176.409,144.619 176.226,145.946 175.951,146.861L161.765,146.953L161.765,147.182Z" style="fill-rule:nonzero;"/>
        <path d="M184.599,157.342L181.761,157.342L181.761,136.381L184.599,135.787L184.599,140.272C185.972,137.571 188.032,135.787 190.777,135.787C192.149,135.787 193.478,136.198 194.438,136.747L193.706,139.402C192.791,138.853 191.693,138.487 190.503,138.487C188.306,138.487 186.246,140.134 184.599,143.886L184.599,157.342Z" style="fill-rule:nonzero;"/>
        <path d="M196.313,157.937C194.986,157.937 194.024,156.793 194.024,155.558C194.024,154.321 194.986,153.269 196.313,153.269C197.64,153.269 198.601,154.321 198.601,155.558C198.601,156.793 197.64,157.937 196.313,157.937" style="fill-rule:nonzero;"/>
        <path d="M212.743,157.937C206.426,157.937 202.491,153.406 202.491,146.908C202.491,140.362 206.839,135.787 212.789,135.787C215.351,135.787 217.548,136.427 219.332,137.571L218.601,140.134C216.998,139.082 214.986,138.441 212.789,138.441C208.258,138.441 205.419,141.828 205.419,146.816C205.419,151.942 208.395,155.283 212.835,155.283C214.94,155.283 217.044,154.595 218.647,153.544L219.241,156.152C217.457,157.249 215.167,157.937 212.743,157.937" style="fill-rule:nonzero;"/>
        <path d="M233.106,138.35C228.667,138.35 225.738,141.874 225.738,146.816C225.738,151.942 228.714,155.374 233.152,155.374C237.592,155.374 240.52,151.85 240.52,146.908C240.52,141.782 237.546,138.35 233.106,138.35M233.015,157.937C227.202,157.937 222.9,153.636 222.9,146.908C222.9,140.225 227.387,135.787 233.245,135.787C239.102,135.787 243.313,140.088 243.313,146.816C243.313,153.498 238.827,157.937 233.015,157.937" style="fill-rule:nonzero;"/>
        <path d="M274.751,157.342L274.751,143.841C274.751,140.18 273.332,138.487 270.311,138.487C268.068,138.487 266.008,139.676 264.407,141.187C264.453,141.462 264.499,142.559 264.499,143.063L264.499,157.342L261.661,157.342L261.661,143.841C261.661,140.18 260.243,138.487 257.222,138.487C255.025,138.487 253.012,139.493 251.409,140.913L251.409,157.342L248.573,157.342L248.573,136.381L251.409,135.787L251.409,138.67C253.56,136.701 255.895,135.787 258.046,135.787C260.654,135.787 262.714,136.931 263.721,139.265C266.054,136.931 268.71,135.787 271.135,135.787C275.116,135.787 277.588,138.395 277.588,143.016L277.588,157.342L274.751,157.342Z" style="fill-rule:nonzero;"/>
    </g>
</svg>
