<?xml version="1.0" encoding="UTF-8" standalone="no"?>
<!DOCTYPE svg PUBLIC "-//W3C//DTD SVG 1.1//EN" "http://www.w3.org/Graphics/SVG/1.1/DTD/svg11.dtd">
<svg width="100%" height="100%" viewBox="0 0 400 400" version="1.1" xmlns="http://www.w3.org/2000/svg" xmlns:xlink="http://www.w3.org/1999/xlink" xml:space="preserve" style="fill-rule:evenodd;clip-rule:evenodd;stroke-linejoin:round;stroke-miterlimit:1.41421;">
    <g id="Warstwa-1">
        <path d="M260.218,222.955C274.846,222.955 285.991,218.427 291.912,212.158C295.046,208.675 298.703,203.277 296.091,199.098C293.827,195.441 289.996,194.744 285.469,197.008C280.941,199.272 275.891,200.491 270.144,200.491C264.572,200.491 258.651,198.401 255.516,195.266C251.685,191.435 249.595,186.559 249.595,180.813C249.595,179.419 250.466,179.245 252.033,180.464C256.039,183.599 261.959,185.166 269.97,185.166C284.772,185.166 297.833,175.24 297.833,159.916C297.833,143.72 282.508,131.705 259.347,131.705C233.4,131.705 213.374,148.422 213.374,176.633C213.374,202.929 230.788,222.955 260.218,222.955" style="fill-rule:nonzero;"/>
        <path d="M153.121,195.408C155.907,195.408 157.475,196.975 159.39,199.936L167.749,212.996C170.883,218.046 173.496,221.529 179.591,221.529C185.686,221.529 188.472,219.091 191.432,212.3C195.089,203.94 198.92,193.841 202.403,180.258C206.234,165.105 207.976,155.701 207.976,148.039C207.976,140.375 205.538,135.849 197.179,134.281C185.686,132.192 170.187,130.973 153.121,130.973C136.055,130.973 120.556,132.192 109.063,134.281C100.704,135.849 98.266,140.375 98.266,148.039C98.266,155.701 100.008,165.105 103.839,180.258C107.322,193.841 111.153,203.94 114.81,212.3C117.77,219.091 120.556,221.529 126.651,221.529C132.746,221.529 135.359,218.046 138.493,212.996L146.852,199.936C148.767,196.975 150.335,195.408 153.121,195.408" style="fill-rule:nonzero;"/>
        <path d="M67.819,288.435L61.412,267.383L64.432,267.383L69.283,284.087L74.73,267.429L77.293,267.429L83.013,284.179L87.361,267.383L90.473,267.383L84.249,288.435L81.732,288.435L76.011,271.501L70.29,288.435L67.819,288.435Z" style="fill-rule:nonzero;"/>
        <path d="M107.404,275.666C107.449,275.437 107.449,274.979 107.449,274.751C107.449,271.547 105.711,269.35 102.415,269.35C98.662,269.35 96.237,272.233 95.779,275.711L107.404,275.666ZM95.596,278.183C95.688,282.897 98.525,286.283 102.919,286.283C105.207,286.283 107.404,285.597 109.006,284.544L109.555,287.153C107.77,288.251 105.436,288.938 102.827,288.938C96.786,288.938 92.713,284.407 92.713,278.045C92.713,271.456 96.924,266.787 102.599,266.787C107.221,266.787 110.241,269.808 110.241,274.522C110.241,275.62 110.058,276.947 109.783,277.862L95.596,277.954L95.596,278.183Z" style="fill-rule:nonzero;"/>
        <path d="M121.36,289.03C117.378,289.03 115.593,286.833 115.731,282.44L116.051,270.038L112.847,269.854L112.985,268.069L116.143,267.337L116.28,262.577L118.98,262.577L118.843,267.475L125.845,267.475L125.708,269.992L118.751,269.992L118.431,282.531C118.339,285.186 119.301,286.467 121.497,286.467C122.87,286.467 124.243,286.009 125.525,285.46L126.028,287.932C124.563,288.618 122.87,289.03 121.36,289.03" style="fill-rule:nonzero;"/>
        <path d="M133.486,288.343L130.648,288.343L130.648,267.382L133.486,266.788L133.486,271.273C134.859,268.572 136.918,266.788 139.664,266.788C141.037,266.788 142.364,267.199 143.326,267.748L142.593,270.403C141.678,269.854 140.58,269.488 139.389,269.488C137.193,269.488 135.133,271.135 133.486,274.888L133.486,288.343Z" style="fill-rule:nonzero;"/>
        <path d="M157.649,277.588C150.464,278.412 147.901,280.014 147.901,282.805C147.901,285.048 149.732,286.467 152.203,286.467C154.445,286.467 156.368,285.185 157.649,283.721L157.649,277.588ZM157.695,285.826C156.276,287.565 154.033,288.938 151.562,288.938C147.718,288.938 144.926,286.467 144.926,283.126C144.926,279.327 147.901,276.215 157.649,275.666L157.649,274.43C157.649,271.135 156.185,269.442 152.707,269.442C150.418,269.442 147.626,270.632 145.841,271.959L145.201,269.305C147.077,267.977 150.235,266.788 152.981,266.788C157.832,266.788 160.532,268.985 160.486,274.293L160.486,284.361C160.486,285.872 160.761,286.513 162.591,286.467L162.408,288.801C159.662,288.984 158.153,287.885 157.832,285.826L157.695,285.826Z" style="fill-rule:nonzero;"/>
        <path d="M180.621,288.343L180.621,274.797C180.621,271.135 179.157,269.488 175.999,269.488C173.71,269.488 171.376,270.723 169.638,272.463L169.638,288.343L166.8,288.343L166.8,267.382L169.638,266.788L169.638,270.22C171.834,268.023 174.58,266.788 176.777,266.788C180.987,266.788 183.459,269.396 183.459,273.973L183.459,288.343L180.621,288.343Z" style="fill-rule:nonzero;"/>
        <path d="M194.989,288.938C192.518,288.938 189.909,288.206 188.124,287.062L188.902,284.453C190.687,285.643 192.93,286.375 195.081,286.375C197.597,286.375 199.794,285.139 199.794,282.851C199.794,280.334 197.14,279.602 194.531,278.778C191.648,277.909 188.444,276.49 188.444,272.829C188.444,269.03 191.602,266.788 195.538,266.788C197.826,266.788 200.114,267.428 201.9,268.344L201.076,270.906C199.337,269.946 197.185,269.351 195.355,269.351C192.792,269.351 191.145,270.54 191.145,272.554C191.145,274.934 193.616,275.666 196.316,276.49C199.291,277.359 202.495,278.732 202.495,282.622C202.495,286.467 199.199,288.938 194.989,288.938" style="fill-rule:nonzero;"/>
        <path d="M217.687,259.969C216.726,259.511 215.628,259.099 214.484,259.099C212.149,259.099 211.005,260.61 211.005,263.996L211.005,267.474L217.595,267.474L217.459,269.992L211.005,269.992L211.005,288.343L208.214,288.343L208.214,270.083L204.827,269.854L205.01,268.069L208.168,267.337L208.214,264.042C208.305,258.505 210.868,256.491 214.53,256.491C215.948,256.491 217.413,256.948 218.373,257.406C218.373,257.452 217.687,260.014 217.687,259.969" style="fill-rule:nonzero;"/>
        <path d="M234.571,275.666C234.617,275.437 234.617,274.979 234.617,274.751C234.617,271.547 232.878,269.35 229.583,269.35C225.831,269.35 223.405,272.233 222.948,275.711L234.571,275.666ZM222.765,278.183C222.855,282.897 225.693,286.283 230.086,286.283C232.375,286.283 234.571,285.597 236.173,284.544L236.723,287.153C234.938,288.251 232.604,288.938 229.996,288.938C223.955,288.938 219.88,284.407 219.88,278.045C219.88,271.456 224.092,266.787 229.766,266.787C234.389,266.787 237.409,269.808 237.409,274.522C237.409,275.62 237.226,276.947 236.951,277.862L222.765,277.954L222.765,278.183Z" style="fill-rule:nonzero;"/>
        <path d="M245.598,288.343L242.761,288.343L242.761,267.382L245.598,266.788L245.598,271.273C246.971,268.572 249.031,266.788 251.777,266.788C253.149,266.788 254.477,267.199 255.438,267.748L254.706,270.403C253.791,269.854 252.692,269.488 251.502,269.488C249.305,269.488 247.245,271.135 245.598,274.888L245.598,288.343Z" style="fill-rule:nonzero;"/>
        <path d="M257.313,288.938C255.986,288.938 255.024,287.794 255.024,286.559C255.024,285.322 255.986,284.27 257.313,284.27C258.64,284.27 259.601,285.322 259.601,286.559C259.601,287.794 258.64,288.938 257.313,288.938" style="fill-rule:nonzero;"/>
        <path d="M273.742,288.938C267.426,288.938 263.49,284.407 263.49,277.909C263.49,271.364 267.838,266.788 273.788,266.788C276.351,266.788 278.547,267.428 280.332,268.572L279.6,271.135C277.998,270.083 275.985,269.442 273.788,269.442C269.257,269.442 266.419,272.829 266.419,277.817C266.419,282.943 269.394,286.284 273.834,286.284C275.939,286.284 278.044,285.597 279.646,284.545L280.24,287.153C278.456,288.251 276.167,288.938 273.742,288.938" style="fill-rule:nonzero;"/>
        <path d="M294.106,269.351C289.667,269.351 286.738,272.875 286.738,277.817C286.738,282.943 289.713,286.375 294.152,286.375C298.591,286.375 301.52,282.852 301.52,277.909C301.52,272.783 298.545,269.351 294.106,269.351M294.014,288.938C288.202,288.938 283.9,284.637 283.9,277.909C283.9,271.227 288.386,266.788 294.244,266.788C300.102,266.788 304.312,271.09 304.312,277.817C304.312,284.499 299.826,288.938 294.014,288.938" style="fill-rule:nonzero;"/>
        <path d="M335.75,288.343L335.75,274.842C335.75,271.181 334.331,269.488 331.31,269.488C329.068,269.488 327.008,270.677 325.406,272.188C325.452,272.463 325.498,273.561 325.498,274.064L325.498,288.343L322.661,288.343L322.661,274.842C322.661,271.181 321.242,269.488 318.221,269.488C316.025,269.488 314.012,270.494 312.409,271.914L312.409,288.343L309.572,288.343L309.572,267.382L312.409,266.788L312.409,269.671C314.56,267.703 316.895,266.788 319.045,266.788C321.654,266.788 323.713,267.932 324.72,270.266C327.054,267.932 329.709,266.788 332.134,266.788C336.116,266.788 338.587,269.396 338.587,274.018L338.587,288.343L335.75,288.343Z" style="fill-rule:nonzero;"/>
    </g>
</svg>
