<?xml version="1.0" encoding="UTF-8"?>
<svg width="124px" height="108px" viewBox="0 0 124 108" version="1.1" xmlns="http://www.w3.org/2000/svg" xmlns:xlink="http://www.w3.org/1999/xlink">
    <!-- Generator: Sketch 48.2 (47327) - http://www.bohemiancoding.com/sketch -->
    <title>Icons/Checkmark</title>
    <desc>Created with Sketch.</desc>
    <defs></defs>
    <g id="Homepage" stroke="none" stroke-width="1" fill="none" fill-rule="evenodd" transform="translate(-825.000000, -728.000000)">
        <g id="Icons/Checkmark" transform="translate(825.000000, 728.000000)" fill="#7BB571">
            <g id="Checkmark">
                <path d="M112.506,0.3 C114.373,0.488 116.146,0.975 117.783,1.915 C122.303,4.511 124.753,9.825 123.793,14.947 C123.447,16.802 122.666,18.467 121.598,20.01 C99.36,48.56 76.312,76.493 52.51,103.752 C51.532,104.754 50.47,105.622 49.23,106.282 C45.933,108.038 41.93,108.204 38.5,106.729 C37.21,106.169 36.08,105.389 35.02,104.469 C24.063,93.849 13.397,82.909 3.05,71.679 C1.406,69.689 0.32,67.369 0.06,64.779 C-0.077,63.392 0.02,61.985 0.347,60.632 C1.629,55.322 6.404,51.392 11.862,51.152 C13.484,51.082 15.118,51.332 16.644,51.892 C18.417,52.536 19.932,53.579 21.279,54.885 L42.629,76.785 C62.579,52.605 81.869,27.865 102.489,4.253 C102.979,3.753 102.973,3.756 103.489,3.287 C104.029,2.843 104.573,2.423 105.173,2.06 C106.993,0.96 108.997,0.42 111.105,0.278 C111.805,0.268 111.8,0.268 112.495,0.302 L112.506,0.3 Z" id="Shape" fill-rule="nonzero"></path>
            </g>
        </g>
    </g>
</svg>