<svg xmlns="http://www.w3.org/2000/svg" xmlns:xlink="http://www.w3.org/1999/xlink" width="906" height="426" viewBox="0 0 906 426">
  <defs>
    <path id="a" d="M96.875,112.977305 L96.875,127.34375 L100,127.34375 C131.066017,127.34375 156.25,152.527733 156.25,183.59375 L156.25,190.625 L0,190.625 L0,183.59375 C-3.80448985e-15,152.527733 25.1839828,127.34375 56.25,127.34375 L59.375,127.34375 L59.375,112.977305 C45.9083082,106.579978 36.2283005,93.5054776 34.6133897,78.0322176 C30.0627425,77.3888958 26.5625,73.4782106 26.5625,68.75 L26.5625,57.8125 C26.5625,53.1671933 29.9410729,49.3109946 34.375,48.5671226 L34.375,43.75 C34.375,19.5875422 53.9625422,4.43857149e-15 78.125,0 C102.287458,-4.43857149e-15 121.875,19.5875422 121.875,43.75 L121.875,48.5671226 C126.308927,49.3109946 129.6875,53.1671933 129.6875,57.8125 L129.6875,68.75 C129.6875,73.4782106 126.187257,77.3888958 121.63661,78.0322176 C120.0217,93.5054776 110.341692,106.579978 96.875,112.977305 Z"/>
    <path id="c" d="M57.181564,6.29040899 C57.082314,7.05883936 57.03125,7.84097759 57.03125,8.63415899 C57.03125,19.4209705 66.4752436,28.165409 78.125,28.165409 C89.7747564,28.165409 99.21875,19.4209705 99.21875,8.63415899 C99.21875,7.84097759 99.167686,7.05883936 99.068436,6.29040899 L100,6.29040899 C131.066017,6.29040899 156.25,31.4743918 156.25,62.540409 L156.25,85.15625 L0,85.15625 L-7.10542736e-15,62.540409 C-1.09099172e-14,31.4743918 25.1839828,6.29040899 56.25,6.29040899 L57.181564,6.29040899 Z"/>
    <path id="e" d="M27.4358156,11.8188103 C28.262275,19.2342207 34.5515526,25 42.1875,25 C49.8470355,25 56.1515683,19.1985437 56.9466869,11.7500427 C57.0106785,11.1505828 56.3412054,10.15625 55.5021617,10.15625 C43.8662138,10.15625 34.951501,10.15625 28.9740816,10.15625 C28.1301694,10.15625 27.3531295,11.076909 27.4358156,11.8188103 Z"/>
    <rect id="g" width="206.25" height="218.75"/>
    <path id="i" d="M16.40625,123.07876 L16.40625,53.9423843 C16.40625,51.1828504 16.717278,48.4959608 17.3061902,45.9148595 C19.6914383,30.2589213 28.7306784,17.821005 39.0625,10.15625 C54.6130032,-1.37470088 80.8140148,-4.70178322 89.8805224,9.00164425 C96.6393302,6.00080889 106.655507,8.73602456 114.0625,15.625 C121.535278,22.980503 127.499742,39.2167006 123.951101,52.5027478 C124.032894,53.4915595 124.074591,54.491434 124.074591,55.5007002 L124.074591,72.5719683 C123.386048,68.6861724 120.303902,65.6272747 116.40625,64.9733726 L116.40625,64.84375 C111.690508,48.018913 97.8355594,40.2969118 89.3981906,32.6383695 C76.1994973,47.400983 35.0176881,47.4529741 21.09375,76.5625 L21.09375,84.375 C21.09375,89.0770506 24.5553678,92.9705971 29.0692037,93.6462399 C30.4310989,109.464681 40.2103264,122.877332 53.90625,129.383555 L53.90625,129.6875 C56.1956025,163.949306 48.7175484,206.872994 0,193.75 C10.6294785,187.529494 16.2563377,147.699659 16.40625,123.07876 Z M91.40625,129.383555 C105.102174,122.877332 114.881401,109.464681 116.243296,93.6462399 C120.217781,93.0513286 123.37648,89.9615747 124.074591,86.0217817 L124.074591,87.0862422 C124.074591,99.451994 127.009931,111.641129 132.639219,122.651257 L153.692709,163.829044 C159.132626,174.468788 157.535596,186.854354 150.617746,195.678881 C148.411103,166.63188 124.143351,143.75 94.53125,143.75 L91.40625,143.75 L91.40625,129.383555 Z M62.8228098,207.03125 L127.259768,207.03125 L62.8228098,207.03125 Z"/>
    <rect id="k" width="6.681" height="32.371" rx="3.34"/>
    <rect id="m" width="6.681" height="32.371" rx="3.34"/>
    <linearGradient id="o" x1="50%" x2="50%" y1="0%" y2="100%">
      <stop offset="0%" stop-color="#FFE538" stop-opacity=".164"/>
      <stop offset="100%" stop-color="#FFC61A" stop-opacity="0"/>
    </linearGradient>
    <rect id="p" width="21.094" height="21.094" x="3.639" y="3.639"/>
    <rect id="r" width="23.438" height="23.438" x="2.344" y="2.344"/>
    <rect id="t" width="23.438" height="23.438" x=".789" y=".789"/>
    <rect id="v" width="60" height="60" rx="9.6"/>
    <rect id="y" width="6.6" height="6.6" x="27" y="27" rx=".6"/>
    <filter id="x" width="145.5%" height="145.5%" x="-22.7%" y="-22.7%" filterUnits="objectBoundingBox">
      <feOffset in="SourceAlpha" result="shadowOffsetOuter1"/>
      <feGaussianBlur in="shadowOffsetOuter1" result="shadowBlurOuter1" stdDeviation=".5"/>
      <feColorMatrix in="shadowBlurOuter1" values="0 0 0 0 0 0 0 0 0 0 0 0 0 0 0 0 0 0 0.229930933 0"/>
    </filter>
    <rect id="z" width="60" height="60" rx="9.6"/>
  </defs>
  <g fill="none" fill-rule="evenodd" transform="translate(-3 -2)">
    <g transform="translate(195 166)">
      <g transform="translate(169.406 24.531)">
        <g transform="translate(25 28.125)">
          <mask id="b" fill="white">
            <use xlink:href="#a"/>
          </mask>
          <use fill="#D0C6AC" xlink:href="#a"/>
          <g fill="#EDB98A" mask="url(#b)">
            <rect width="205.642" height="190.668" transform="translate(-25)"/>
          </g>
          <path fill="#000000" fill-opacity=".1" d="M121.875,73.4375 L121.875,79.6875 C121.875,103.849958 102.287458,123.4375 78.125,123.4375 C53.9625422,123.4375 34.375,103.849958 34.375,79.6875 L34.375,73.4375 C34.375,97.5999578 53.9625422,117.1875 78.125,117.1875 C102.287458,117.1875 121.875,97.5999578 121.875,73.4375 Z" mask="url(#b)"/>
        </g>
        <g transform="translate(25 149.219)">
          <mask id="d" fill="white">
            <use xlink:href="#c"/>
          </mask>
          <use fill="#E6E6E6" xlink:href="#c"/>
          <g fill="#FF5C5C" mask="url(#d)">
            <rect width="205.695" height="101.926" transform="translate(-25 -16.406)"/>
          </g>
          <path fill="#F2F2F2" d="M96.875,0.999602006 C101.704412,4.55873887 104.6875,9.45759883 104.6875,14.8655586 C104.6875,20.4949172 101.45516,25.5726382 96.2726543,29.1618491 L91.8588513,25.6847601 L88.28125,25.9436617 L89.0625,23.481861 L89.0017414,23.4339969 C93.7675709,20.9789457 96.875,16.9534045 96.875,12.4037579 L96.875,0.999602006 Z M59.375,0.446483886 L59.375,12.4037579 C59.375,16.9534045 62.4824291,20.9789457 67.2482586,23.4339969 L67.1875,23.481861 L67.96875,25.9436617 L64.3911487,25.6847601 L59.6159591,29.4465409 C54.1887513,25.8437773 50.78125,20.6454335 50.78125,14.8655586 C50.78125,9.17170073 54.0880841,4.04219385 59.375,0.446483886 Z"/>
        </g>
        <g transform="translate(59.375 64.063)">
          <g transform="translate(1.563 40.625)">
            <mask id="f" fill="white">
              <use xlink:href="#e"/>
            </mask>
            <use fill="#000000" fill-opacity=".7" xlink:href="#e"/>
            <rect width="24.219" height="12.5" x="30.469" y="1.563" fill="#FFFFFF" mask="url(#f)" rx="3.906"/>
            <g fill="#FF4F6D" mask="url(#f)">
              <g transform="translate(29.688 18.75)">
                <circle cx="8.594" cy="8.594" r="8.594"/>
                <circle cx="16.406" cy="8.594" r="8.594"/>
              </g>
            </g>
          </g>
          <path fill="#000000" fill-opacity=".16" d="M12.5,6.25 C12.5,9.70177969 16.6973305,12.5 21.875,12.5 C27.0526695,12.5 31.25,9.70177969 31.25,6.25" transform="translate(21.875 31.25)"/>
          <g fill="#000000" fill-opacity=".6" transform="translate(0 6.25)">
            <circle cx="23.438" cy="17.188" r="4.688"/>
            <circle cx="64.063" cy="17.188" r="4.688"/>
          </g>
          <g fill="#000000" fill-opacity=".6" transform="translate(9.375)">
            <path fill-rule="nonzero" d="M3.10609031,13.3811851 C4.27421209,5.94121999 14.1082413,0.866153103 21.2214974,4.14143962 C22.0053412,4.50235913 22.9333552,4.15951128 23.2942747,3.37566752 C23.6551942,2.59182375 23.3123463,1.66380976 22.5285026,1.30289025 C13.5537666,-2.82951145 1.51231209,3.38474578 0.0189096921,12.8964781 C-0.114938441,13.7489795 0.467645129,14.5485738 1.32014652,14.6824219 C2.1726479,14.81627 2.97224217,14.2336865 3.10609031,13.3811851 Z"/>
            <path fill-rule="nonzero" d="M48.4185903,13.3811851 C49.5867121,5.94121999 59.4207413,0.866153103 66.5339974,4.14143962 C67.3178412,4.50235913 68.2458552,4.15951128 68.6067747,3.37566752 C68.9676942,2.59182375 68.6248463,1.66380976 67.8410026,1.30289025 C58.8662666,-2.82951145 46.8248121,3.38474578 45.3314097,12.8964781 C45.1975616,13.7489795 45.7801451,14.5485738 46.6326465,14.6824219 C47.4851479,14.81627 48.2847422,14.2336865 48.4185903,13.3811851 Z" transform="matrix(-1 0 0 1 114.063 0)"/>
          </g>
        </g>
        <mask id="h" fill="white">
          <use xlink:href="#g"/>
        </mask>
        <g mask="url(#h)">
          <g transform="translate(-.781)">
            <g transform="translate(31.25 11.719)">
              <mask id="j" fill="white">
                <use xlink:href="#i"/>
              </mask>
              <use fill="#272C2E" xlink:href="#i"/>
              <g fill="#A55728" mask="url(#j)">
                <rect width="206" height="218.62" transform="translate(-30.469 -11.719)"/>
              </g>
            </g>
            <path fill="#000000" fill-opacity=".16" d="M52.34375,88.28125 C66.2676881,59.1717241 107.449497,59.119733 120.648191,44.3571195 C129.068396,52.0000823 142.884162,59.7062461 147.627357,76.4599345 C142.884162,61.9269936 129.068396,56.7955403 120.648191,50.162785 C107.449497,62.9741522 66.2676881,63.0192714 52.34375,88.28125 Z"/>
          </g>
        </g>
      </g>
      <g transform="translate(19.261 172.152)">
        <g transform="translate(0 1.116)">
          <rect width="7.794" height="55.812" x="32.291" y="10.046" fill="#3D474D" rx="3.897"/>
          <g fill="#8ACC47">
            <path d="M19.4857832,39.6261673 C29.3250526,39.6261673 37.3013564,32.9287869 37.3013564,32.9287869 C37.3013564,32.9287869 29.3250526,26.2314065 19.4857832,26.2314065 C9.64651379,26.2314065 1.67020999,32.9287869 1.67020999,32.9287869 C1.67020999,32.9287869 9.64651379,39.6261673 19.4857832,39.6261673 Z" transform="rotate(18 19.486 32.929)"/>
            <path d="M22.6456128,25.2512365 C30.6400191,25.2512365 37.120766,19.6700862 37.120766,19.6700862 C37.120766,19.6700862 30.6400191,14.0889359 22.6456128,14.0889359 C14.6512064,14.0889359 8.17045954,19.6700862 8.17045954,19.6700862 C8.17045954,19.6700862 14.6512064,25.2512365 22.6456128,25.2512365 Z" transform="rotate(18 22.646 19.67)"/>
            <path d="M25.221457,13.2812329 C31.6784776,13.2812329 36.9129269,8.81631265 36.9129269,8.81631265 C36.9129269,8.81631265 31.6784776,4.3513924 25.221457,4.3513924 C18.7644365,4.3513924 13.5299871,8.81631265 13.5299871,8.81631265 C13.5299871,8.81631265 18.7644365,13.2812329 25.221457,13.2812329 Z" transform="rotate(18 25.221 8.816)"/>
            <g transform="matrix(-1 0 0 1 71.262 .781)">
              <path d="M19.4857832,38.8449173 C29.3250526,38.8449173 37.3013564,32.1475369 37.3013564,32.1475369 C37.3013564,32.1475369 29.3250526,25.4501565 19.4857832,25.4501565 C9.64651379,25.4501565 1.67020999,32.1475369 1.67020999,32.1475369 C1.67020999,32.1475369 9.64651379,38.8449173 19.4857832,38.8449173 Z" transform="rotate(18 19.486 32.148)"/>
              <path d="M22.6456128,24.4699865 C30.6400191,24.4699865 37.120766,18.8888362 37.120766,18.8888362 C37.120766,18.8888362 30.6400191,13.3076859 22.6456128,13.3076859 C14.6512064,13.3076859 8.17045954,18.8888362 8.17045954,18.8888362 C8.17045954,18.8888362 14.6512064,24.4699865 22.6456128,24.4699865 Z" transform="rotate(18 22.646 18.889)"/>
              <path d="M25.221457,12.4999829 C31.6784776,12.4999829 36.9129269,8.03506265 36.9129269,8.03506265 C36.9129269,8.03506265 31.6784776,3.5701424 25.221457,3.5701424 C18.7644365,3.5701424 13.5299871,8.03506265 13.5299871,8.03506265 C13.5299871,8.03506265 18.7644365,12.4999829 25.221457,12.4999829 Z" transform="rotate(18 25.221 8.035)"/>
            </g>
          </g>
        </g>
        <ellipse cx="36.188" cy="7.255" fill="#FF564D" rx="7.238" ry="7.255"/>
        <path fill="#9E9E9E" d="M12.2475116,42.4167432 L60.1282589,42.4167432 C61.5595137,45.6592521 62.3545062,49.2470204 62.3545062,53.0209288 C62.3545062,67.5081346 50.6393099,79.2523353 36.187883,79.2523353 C21.7364561,79.2523353 10.0212599,67.5081346 10.0212599,53.0209288 C10.0212599,49.2470207 10.8162523,45.6592528 12.2475116,42.4167432 Z"/>
      </g>
      <g transform="translate(123.645 201.432)">
        <g transform="rotate(-7 13.579 -1.462)">
          <mask id="l" fill="white">
            <use xlink:href="#k"/>
          </mask>
          <use fill="#8ACC47" xlink:href="#k"/>
          <rect width="15.589" height="10.046" x="-5.567" y="-3.349" fill="#000000" fill-opacity=".161" mask="url(#l)"/>
        </g>
        <g transform="rotate(14 -3.61 83.403)">
          <mask id="n" fill="white">
            <use xlink:href="#m"/>
          </mask>
          <use fill="#A47EE6" xlink:href="#m"/>
          <rect width="15.589" height="10.046" x="-5.567" y="-3.349" fill="#000000" fill-opacity=".161" mask="url(#n)"/>
        </g>
        <rect width="26.723" height="32.371" y="15.627" fill="#CED5D9"/>
        <ellipse cx="26.167" cy="32.929" stroke="#CED5D9" stroke-width="6.686" rx="9.465" ry="9.488"/>
      </g>
      <g transform="translate(64.651 62.975)">
        <path fill="#3D474D" d="M74.6027127,185.852306 C74.6027127,168.899192 60.8934406,155.155979 43.9821963,155.155979 C27.0709521,155.155979 13.3616799,168.899192 13.3616799,185.852306 L74.6027127,185.852306 Z"/>
        <g fill="#3D474D" transform="rotate(-18 248.124 21.412)">
          <rect width="5.567" height="104.926" rx="2.784"/>
          <rect width="5.567" height="104.926" x="11.135" rx="2.784"/>
        </g>
        <g fill="#3D474D" transform="rotate(63 19.574 81.04)">
          <rect width="5.567" height="77.805" rx="2.784"/>
          <rect width="5.567" height="77.805" x="11.135" rx="2.784"/>
        </g>
        <ellipse cx="13.362" cy="72.555" fill="#3D474D" rx="13.362" ry="13.395"/>
        <path fill="#FF9F1A" d="M10.5884661,66.9569721 L15.1956737,69.2602861 C15.8447509,69.5847839 16.3706089,70.1116816 16.6938241,70.7613985 L18.9963484,75.3898599 C19.5121634,76.4267349 19.0897609,77.6854388 18.0528859,78.2012538 C17.4633229,78.4945442 16.7702308,78.4938597 16.1812482,78.1994055 L11.5740406,75.8960914 C10.9249634,75.5715936 10.3991054,75.044696 10.0758902,74.394979 L7.77336587,69.7665177 C7.25755086,68.7296427 7.67995343,67.4709388 8.71682841,66.9551237 C9.30639142,66.6618334 9.99948351,66.6625178 10.5884661,66.9569721 Z" transform="rotate(-6 13.385 72.578)"/>
        <g transform="rotate(-16 136.345 -50.88)">
          <polygon fill="url(#o)" points="33.404 49.114 94.645 49.114 127.618 158.233 .431 152.079"/>
          <rect width="3.34" height="7.814" x="62.355" fill="#FF9F1A" rx="1.67"/>
          <path fill="#3D474D" d="M51.2197729,21.7806542 L51.2197729,15.6058907 C51.2197729,8.83642579 56.7075085,3.34869019 63.4769734,3.34869019 L64.5724588,3.34869019 C71.3419238,3.34869019 76.8296594,8.83642579 76.8296594,15.6058907 L76.8296594,21.7806542 C87.3460039,26.6406557 94.6452326,37.3019232 94.6452326,49.6722378 L33.4041997,49.6722378 C33.4041997,37.3019232 40.7034283,26.6406557 51.2197729,21.7806542 Z"/>
        </g>
      </g>
      <g transform="translate(188.938 182.344)">
        <g transform="translate(160.938)">
          <mask id="q" fill="white">
            <use xlink:href="#p"/>
          </mask>
          <use fill="#FCFCBA" transform="rotate(-27 14.186 14.186)" xlink:href="#p"/>
          <rect width="192.739" height="109.111" x="-171.124" y="-62.589" fill="#595959" mask="url(#q)" opacity=".2" rx="6.443"/>
        </g>
        <g transform="translate(0 31.25)">
          <mask id="s" fill="white">
            <use xlink:href="#r"/>
          </mask>
          <use fill="#94E985" transform="rotate(-10 14.063 14.062)" xlink:href="#r"/>
          <rect width="192.739" height="109.111" x="-10.968" y="-94.62" fill="#595959" mask="url(#s)" opacity=".2" rx="6.443"/>
        </g>
        <g transform="translate(122.656 28.125)">
          <mask id="u" fill="white">
            <use xlink:href="#t"/>
          </mask>
          <use fill="#50C2FF" transform="rotate(4 12.508 12.508)" xlink:href="#t"/>
          <rect width="192.739" height="109.111" x="-133.624" y="-91.495" fill="#595959" mask="url(#u)" opacity=".2" rx="6.443"/>
        </g>
      </g>
      <g transform="translate(177.97 118.192)">
        <rect width="192.739" height="109.111" fill="#F0F5F7" rx="6.443"/>
        <g transform="translate(85.136 41.915)">
          <rect width="1.388" height="16.719" x="11.851" y="1.085" stroke="#829199" stroke-width="1.42" rx=".694" transform="rotate(28 12.545 9.444)"/>
          <ellipse cx="9.127" cy="15.432" fill="#FF564D" rx="9.127" ry="9.069"/>
          <path fill="#8ACC47" d="M15.7827454,2.17653758 C15.7827454,2.17653758 13.6765069,12.6411944 19.9952219,14.036482 C26.313937,15.4317696 15.7827454,2.17653758 15.7827454,2.17653758 Z"/>
        </g>
        <rect width="41.881" height="6.443" x="75.709" y="96.649" fill="#A0A9AD" rx="3.222"/>
        <rect width="32.216" height="28.189" x="80.541" y="99.871" fill="#CED5D9" rx="1.611"/>
        <path fill="#A0A9AD" d="M75.7029787,125.340903 L117.584422,125.340903 C119.36369,125.340903 120.806072,126.783285 120.806072,128.562553 L120.806072,130.173378 L72.4813292,130.173378 L72.4813292,128.562553 C72.4813292,126.783285 73.9237108,125.340903 75.7029787,125.340903 Z"/>
        <g transform="rotate(40 69.255 229.59)">
          <path fill="#FF8680" stroke="#FFFFFF" stroke-linejoin="round" stroke-width="1.302" d="M9.765625,18.6266447 L0,4.64654605 L3.25537109,0.123355263 L9.765625,0.123355263 L16.2758789,0.123355263 L19.53125,4.64654605 L9.765625,18.6266447 Z"/>
          <polygon fill="#FF8680" points="3.255 .122 6.51 4.598 0 4.598"/>
          <polygon fill="#FF6A62" points="9.766 18.433 6.51 4.598 0 4.598"/>
          <polygon fill="#FF9E99" points="13.021 4.598 9.766 .122 16.276 .122"/>
          <polygon fill="#FF8680" points="9.766 .122 13.021 4.598 6.51 4.598"/>
          <polygon fill="#FF564C" points="9.766 18.433 13.021 4.598 6.51 4.598"/>
          <polygon fill="#FF9E99" points="6.51 4.598 3.255 .122 9.766 .122"/>
          <polygon fill="#FF8680" points="16.276 .122 19.531 4.598 13.021 4.598"/>
          <polygon fill="#FF6A62" points="9.766 18.433 19.531 4.598 13.021 4.598"/>
        </g>
      </g>
      <g transform="translate(421.448 203.285)">
        <g transform="translate(0 26.294)">
          <path fill="#FFFFFF" d="M62.7762234,17.2300128 L9.83395814,17.2300128 C5.76218577,17.2300128 2.46136208,13.9156546 2.46136208,9.84572159 L2.46136208,9.84572159 L2.46136208,9.84572159 C2.46136208,5.76749017 5.77188939,2.4614304 9.83395814,2.4614304 L62.7762234,2.4614304"/>
          <path fill="#CED5D9" d="M6.00343266,16.1544163 C3.87953944,14.8565476 2.46136208,12.5134485 2.46136208,9.84572159 C2.46136208,5.76749017 5.77188939,2.4614304 9.83395814,2.4614304 L62.7762234,2.4614304 L62.7762234,4.92286079 L12.2953202,4.92286079 C8.23325148,4.92286079 4.92272417,8.22892057 4.92272417,12.307152 C4.92272417,13.7153598 5.31789176,15.0331118 6.00343266,16.1544163 Z"/>
          <path fill="#A47EE6" fill-rule="nonzero" d="M9.83395814,15.38394 C6.78554004,15.38394 4.30738365,12.8999258 4.30738365,9.84572159 C4.30738365,6.79013373 6.78833571,4.30750319 9.83395814,4.30750319 L62.7762234,4.30750319 C63.7957529,4.30750319 64.6222449,3.48098825 64.6222449,2.4614304 C64.6222449,1.44187254 63.7957529,0.615357599 62.7762234,0.615357599 L9.83395814,0.615357599 C4.74874037,0.615357599 0.615340521,4.75155387 0.615340521,9.84572159 C0.615340521,14.9371155 4.74455004,19.0760856 9.83395814,19.0760856 L62.7762234,19.0760856 C63.7957529,19.0760856 64.6222449,18.2495706 64.6222449,17.2300128 C64.6222449,16.2104549 63.7957529,15.38394 62.7762234,15.38394 L9.83395814,15.38394 Z"/>
        </g>
        <g transform="translate(6.153 11.526)">
          <path fill="#FFFFFF" d="M50.6615136,13.9993854 L7.93617674,13.9993854 C4.65018501,13.9993854 1.98636238,11.3064694 1.98636238,7.99964879 L1.98636238,7.99964879 L1.98636238,7.99964879 C1.98636238,4.68608577 4.658016,1.9999122 7.93617674,1.9999122 L50.6615136,1.9999122"/>
          <path fill="#CED5D9" d="M4.84487548,13.1254633 C3.13085639,12.070945 1.98636238,10.1671769 1.98636238,7.99964879 C1.98636238,4.68608577 4.658016,1.9999122 7.93617674,1.9999122 L50.6615136,1.9999122 L50.6615136,3.99982439 L9.92253913,3.99982439 C6.64437839,3.99982439 3.97272477,6.68599796 3.97272477,9.99956099 C3.97272477,11.1437299 4.29163194,12.2144034 4.84487548,13.1254633 Z"/>
          <path fill="#41D9D9" fill-rule="nonzero" d="M7.93617674,12.4994512 C5.47604986,12.4994512 3.47613417,10.4811897 3.47613417,7.99964879 C3.47613417,5.51698365 5.47830601,3.49984635 7.93617674,3.49984635 L50.6615136,3.49984635 C51.4842918,3.49984635 52.1512854,2.82830295 52.1512854,1.9999122 C52.1512854,1.17152144 51.4842918,0.499978049 50.6615136,0.499978049 L7.93617674,0.499978049 C3.83231679,0.499978049 0.496590596,3.86063752 0.496590596,7.99964879 C0.496590596,12.1364064 3.82893512,15.4993195 7.93617674,15.4993195 L50.6615136,15.4993195 C51.4842918,15.4993195 52.1512854,14.8277761 52.1512854,13.9993854 C52.1512854,13.1709946 51.4842918,12.4994512 50.6615136,12.4994512 L7.93617674,12.4994512 Z"/>
        </g>
        <g transform="matrix(-1 0 0 1 57.842 .08)">
          <path fill="#FFFFFF" d="M40.9603727,10.768758 L6.41648333,10.768758 C3.75972405,10.768758 1.60599512,8.69728414 1.60599512,6.15357599 L1.60599512,6.15357599 L1.60599512,6.15357599 C1.60599512,3.60468136 3.76605549,1.538394 6.41648333,1.538394 L40.9603727,1.538394"/>
          <path fill="#CED5D9" d="M3.91713337,10.0965102 C2.5313307,9.28534227 1.60599512,7.82090532 1.60599512,6.15357599 C1.60599512,3.60468136 3.76605549,1.538394 6.41648333,1.538394 L40.9603727,1.538394 L40.9603727,3.076788 L8.02247844,3.076788 C5.37205061,3.076788 3.21199024,5.14307536 3.21199024,7.69196999 C3.21199024,8.57209989 3.46983008,9.3956949 3.91713337,10.0965102 L3.91713337,10.0965102 Z"/>
          <path fill="#00AAFF" fill-rule="nonzero" d="M6.41648333,9.61496249 C4.42744457,9.61496249 2.81049146,8.06245361 2.81049146,6.15357599 C2.81049146,4.24383358 4.42926869,2.6921895 6.41648333,2.6921895 L40.9603727,2.6921895 C41.6255977,2.6921895 42.164869,2.17561766 42.164869,1.538394 C42.164869,0.90117034 41.6255977,0.3845985 40.9603727,0.3845985 L6.41648333,0.3845985 C3.09846889,0.3845985 0.40149878,2.96972117 0.40149878,6.15357599 C0.40149878,9.3356972 3.09573478,11.9225535 6.41648333,11.9225535 L40.9603727,11.9225535 C41.6255977,11.9225535 42.164869,11.4059816 42.164869,10.768758 C42.164869,10.1315343 41.6255977,9.61496249 40.9603727,9.61496249 L6.41648333,9.61496249 Z"/>
          <rect width="4.923" height="1.477" x="38.151" y="6.277" fill="#D4DADE"/>
          <rect width="4.923" height="6.154" x="38.151" y="6.523" fill="#FF531A"/>
        </g>
      </g>
      <g transform="translate(405.169 179.845)">
        <rect width="3.34" height="31.254" x="18.929" y="29.022" fill="#3D474D" rx="1.67" transform="rotate(19 20.6 44.65)"/>
        <g transform="translate(0 36.836)">
          <rect width="26.723" height="32.371" fill="#A0A9AD"/>
          <ellipse cx="26.167" cy="17.302" stroke="#A0A9AD" stroke-width="6.686" rx="9.465" ry="9.488"/>
        </g>
        <rect width="1.113" height="15.627" x="4.454" y="36.836" fill="#D8D8D8"/>
        <polygon fill="#8ACC47" points="5.011 47.998 9.776 51.469 7.956 57.085 2.065 57.085 .245 51.469"/>
        <rect width="5.567" height="24.557" x="2.227" y="8.93" fill="#CED5D9" opacity=".563" rx="2.784"/>
        <rect width="5.567" height="24.557" x="10.021" y="4.465" fill="#CED5D9" opacity=".563" rx="2.784"/>
        <rect width="5.567" height="24.557" x="17.816" fill="#CED5D9" opacity=".563" rx="2.784"/>
      </g>
      <rect width="525.828" height="13.514" x=".996" y="248.482" fill="#797979" rx="6.757"/>
    </g>
    <g transform="rotate(37 220.012 766.8)">
      <polygon fill="#FF8680" points="16.668 .632 33.333 23.79 0 23.79"/>
      <polygon fill="#FF6A62" points="50 95.368 33.333 23.79 0 23.79"/>
      <polygon fill="#FF9E99" points="66.668 23.79 50 .632 83.332 .632"/>
      <polygon fill="#FF8680" points="50 .632 66.668 23.79 33.333 23.79"/>
      <polygon fill="#FF564C" points="50 95.368 66.668 23.79 33.333 23.79"/>
      <polygon fill="#FF9E99" points="33.333 23.79 16.668 .632 50 .632"/>
      <polygon fill="#FF8680" points="83.332 .632 100 23.79 66.668 23.79"/>
      <polygon fill="#FF6A62" points="50 95.368 100 23.79 66.668 23.79"/>
    </g>
    <g transform="rotate(-22 195.316 -696.138)">
      <rect width="57.6" height="57.6" x="1.2" y="1.2" fill="#50C2FF" stroke="#000000" stroke-opacity=".1" stroke-width="2.4" rx="9.6"/>
      <text fill="#FFFFFF" font-family="Raleway-Bold, Raleway" font-size="32" font-weight="bold">
        <tspan x="12" y="42">JS</tspan>
      </text>
    </g>
    <g transform="rotate(32 -465.366 193.441)">
      <rect width="57.6" height="57.6" x="1.2" y="1.2" fill="#94E985" stroke="#000000" stroke-opacity=".1" stroke-width="2.4" rx="9.6"/>
      <text fill="#FFFFFF" font-family="Raleway-Bold, Raleway" font-size="32" font-weight="bold">
        <tspan x="12" y="42">AI</tspan>
      </text>
    </g>
    <g transform="rotate(-22 610.528 -228.356)">
      <rect width="112.6" height="57.6" x="1.2" y="1.2" fill="#FF6A62" stroke="#000000" stroke-opacity=".1" stroke-width="2.4" rx="9.6"/>
      <text fill="#FFFFFF" font-family="Raleway-Bold, Raleway" font-size="32" font-weight="bold">
        <tspan x="12" y="42">HTML</tspan>
      </text>
    </g>
    <g transform="rotate(21 -186.52 1869.282)">
      <rect width="83.6" height="57.6" x="1.2" y="1.2" fill="#797979" stroke="#000000" stroke-opacity=".1" stroke-width="2.4" rx="9.6"/>
      <text fill="#FFFFFF" font-family="Raleway-Bold, Raleway" font-size="32" font-weight="bold">
        <tspan x="12" y="42">CSS</tspan>
      </text>
    </g>
    <g transform="rotate(-20 1246.01 -2163.196)">
      <polyline stroke="#FF564D" stroke-linecap="round" stroke-linejoin="round" stroke-width="3.077" points="6.462 56 17.538 39.692 33.846 46.462 70.769 11.692"/>
      <polygon fill="#FF564D" fill-opacity=".169" points="6.462 56 17.538 39.692 33.846 46.462 70.769 11.692 70.769 68.923 6.462 68.923"/>
      <path fill="#595959" fill-rule="nonzero" d="M6.15384615,-0.192307692 L-3.34615385,18.8076923 L15.6538462,18.8076923 L6.15384615,-0.192307692 Z M7.65384615,74.1538462 L7.65384615,17.3076923 L7.65384615,15.8076923 L4.65384615,15.8076923 L4.65384615,17.3076923 L4.65384615,74.1538462 L4.65384615,75.6538462 L7.65384615,75.6538462 L7.65384615,74.1538462 Z"/>
      <path fill="#595959" fill-rule="nonzero" d="M74.3461538,68.3076923 L55.3461538,58.8076923 L55.3461538,77.8076923 L74.3461538,68.3076923 Z M0,69.8076923 L56.8461538,69.8076923 L58.3461538,69.8076923 L58.3461538,66.8076923 L56.8461538,66.8076923 L0,66.8076923 L-1.5,66.8076923 L-1.5,69.8076923 L0,69.8076923 Z"/>
      <g transform="translate(54.154 .615)">
        <circle cx="12.923" cy="12.923" r="12.923" fill="#F2E237"/>
        <text fill="#FFFFFF" font-family="Raleway-Bold, Raleway" font-size="16.879" font-weight="bold">
          <tspan x="7.385" y="19.077">$</tspan>
        </text>
      </g>
    </g>
    <g transform="rotate(-33 214.276 -2.627)">
      <path stroke="#9E9E9E" stroke-width="6.667" d="M73.3333333,43.3333333 C73.3333333,24.9238417 58.4094917,10 40,10 C21.5905083,10 6.66666667,24.9238417 6.66666667,43.3333333" opacity=".5"/>
      <path stroke="#50C2FF" stroke-width="5" d="M10,10 L70,10"/>
      <rect width="13.333" height="13.333" y="3.333" fill="#50C2FF" rx="3.333"/>
      <rect width="13.333" height="13.333" x="66.667" y="3.333" fill="#50C2FF" rx="3.333"/>
      <circle cx="40" cy="10" r="10" fill="#FFFFFF" stroke="#50C2FF" stroke-width="6.667"/>
      <circle cx="73.333" cy="43.333" r="6.667" fill="#797979"/>
      <circle cx="6.667" cy="43.333" r="6.667" fill="#797979"/>
    </g>
    <g transform="rotate(17 105.816 2493.123)">
      <mask id="w" fill="white">
        <use xlink:href="#v"/>
      </mask>
      <use fill="#94E985" xlink:href="#v"/>
      <rect width="19.2" height="19.2" x="20.4" y="20.4" fill="#797979" stroke="#000000" stroke-opacity=".1" stroke-width="2.4" mask="url(#w)" rx="4.2"/>
      <g mask="url(#w)">
        <use fill="black" filter="url(#x)" xlink:href="#y"/>
        <use fill="#F2DF15" xlink:href="#y"/>
      </g>
      <g mask="url(#w)">
        <g transform="translate(21.6 40.2)">
          <polyline stroke="#FFFFFF" stroke-width=".6" points=".9 4.594 .9 8.531 2.7 10.5 2.7 13.125 .45 15.586 .45 20.672"/>
          <rect width="1.8" height="4.594" fill="#FFFFFF"/>
          <g transform="translate(3.6)">
            <polyline stroke="#FFFFFF" stroke-width=".6" points=".9 4.594 .9 8.531 2.7 10.5 2.7 13.125 .45 15.586 .45 20.672"/>
            <rect width="1.8" height="4.594" fill="#FFFFFF"/>
          </g>
          <g transform="translate(14.4)">
            <polyline stroke="#FFFFFF" stroke-width=".6" points=".9 4.594 .9 8.531 2.7 10.5 2.7 13.125 .45 15.586 .45 20.672"/>
            <rect width="1.8" height="4.594" fill="#FFFFFF"/>
          </g>
          <g transform="translate(10.8)">
            <polyline stroke="#FFFFFF" stroke-width=".6" points=".9 4.594 .9 8.531 2.7 10.5 2.7 13.125 .45 15.586 .45 20.672"/>
            <rect width="1.8" height="4.594" fill="#FFFFFF"/>
          </g>
          <g transform="translate(7.2)">
            <polyline stroke="#FFFFFF" stroke-width=".6" points=".9 4.594 .9 8.531 2.7 10.5 2.7 13.125 .45 15.586 .45 20.672"/>
            <rect width="1.8" height="4.594" fill="#FFFFFF"/>
          </g>
        </g>
      </g>
      <g mask="url(#w)">
        <g transform="rotate(-180 18.9 9.9)">
          <polyline stroke="#FFFFFF" stroke-width=".6" points=".9 4.594 .9 8.531 2.7 10.5 2.7 13.125 .45 15.586 .45 20.672"/>
          <rect width="1.8" height="4.594" fill="#FFFFFF"/>
          <g transform="translate(3.6)">
            <polyline stroke="#FFFFFF" stroke-width=".6" points=".9 4.594 .9 8.531 2.7 10.5 2.7 13.125 .45 15.586 .45 20.672"/>
            <rect width="1.8" height="4.594" fill="#FFFFFF"/>
          </g>
          <g transform="translate(14.4)">
            <polyline stroke="#FFFFFF" stroke-width=".6" points=".9 4.594 .9 8.531 2.7 10.5 2.7 13.125 .45 15.586 .45 20.672"/>
            <rect width="1.8" height="4.594" fill="#FFFFFF"/>
          </g>
          <g transform="translate(10.8)">
            <polyline stroke="#FFFFFF" stroke-width=".6" points=".9 4.594 .9 8.531 2.7 10.5 2.7 13.125 .45 15.586 .45 20.672"/>
            <rect width="1.8" height="4.594" fill="#FFFFFF"/>
          </g>
          <g transform="translate(7.2)">
            <polyline stroke="#FFFFFF" stroke-width=".6" points=".9 4.594 .9 8.531 2.7 10.5 2.7 13.125 .45 15.586 .45 20.672"/>
            <rect width="1.8" height="4.594" fill="#FFFFFF"/>
          </g>
        </g>
      </g>
      <g mask="url(#w)">
        <g transform="rotate(90 -1.2 21)">
          <polyline stroke="#FFFFFF" stroke-width=".6" points=".9 4.594 .9 8.531 2.7 10.5 2.7 13.125 .45 15.586 .45 20.672"/>
          <rect width="1.8" height="4.594" fill="#FFFFFF"/>
          <g transform="translate(3.6)">
            <polyline stroke="#FFFFFF" stroke-width=".6" points=".9 4.594 .9 8.531 2.7 10.5 2.7 13.125 .45 15.586 .45 20.672"/>
            <rect width="1.8" height="4.594" fill="#FFFFFF"/>
          </g>
          <g transform="translate(14.4)">
            <polyline stroke="#FFFFFF" stroke-width=".6" points=".9 4.594 .9 8.531 2.7 10.5 2.7 13.125 .45 15.586 .45 20.672"/>
            <rect width="1.8" height="4.594" fill="#FFFFFF"/>
          </g>
          <g transform="translate(10.8)">
            <polyline stroke="#FFFFFF" stroke-width=".6" points=".9 4.594 .9 8.531 2.7 10.5 2.7 13.125 .45 15.586 .45 20.672"/>
            <rect width="1.8" height="4.594" fill="#FFFFFF"/>
          </g>
          <g transform="translate(7.2)">
            <polyline stroke="#FFFFFF" stroke-width=".6" points=".9 4.594 .9 8.531 2.7 10.5 2.7 13.125 .45 15.586 .45 20.672"/>
            <rect width="1.8" height="4.594" fill="#FFFFFF"/>
          </g>
        </g>
      </g>
      <g mask="url(#w)">
        <g transform="rotate(-90 39.3 -.9)">
          <polyline stroke="#FFFFFF" stroke-width=".6" points=".9 4.594 .9 8.531 2.7 10.5 2.7 13.125 .45 15.586 .45 20.672"/>
          <rect width="1.8" height="4.594" fill="#FFFFFF"/>
          <g transform="translate(3.6)">
            <polyline stroke="#FFFFFF" stroke-width=".6" points=".9 4.594 .9 8.531 2.7 10.5 2.7 13.125 .45 15.586 .45 20.672"/>
            <rect width="1.8" height="4.594" fill="#FFFFFF"/>
          </g>
          <g transform="translate(14.4)">
            <polyline stroke="#FFFFFF" stroke-width=".6" points=".9 4.594 .9 8.531 2.7 10.5 2.7 13.125 .45 15.586 .45 20.672"/>
            <rect width="1.8" height="4.594" fill="#FFFFFF"/>
          </g>
          <g transform="translate(10.8)">
            <polyline stroke="#FFFFFF" stroke-width=".6" points=".9 4.594 .9 8.531 2.7 10.5 2.7 13.125 .45 15.586 .45 20.672"/>
            <rect width="1.8" height="4.594" fill="#FFFFFF"/>
          </g>
          <g transform="translate(7.2)">
            <polyline stroke="#FFFFFF" stroke-width=".6" points=".9 4.594 .9 8.531 2.7 10.5 2.7 13.125 .45 15.586 .45 20.672"/>
            <rect width="1.8" height="4.594" fill="#FFFFFF"/>
          </g>
        </g>
      </g>
      <g stroke="#FFFFFF" stroke-width=".6" mask="url(#w)">
        <g transform="translate(7.2 6)">
          <circle cx="40.2" cy="6.6" r="2.4" fill="#FFFFFF" fill-opacity=".328"/>
          <polyline points="40.2 4.2 40.2 2.1 13.2 2.1 3.6 2.1"/>
          <circle cx="1.8" cy="2.1" r="1.8" fill="#FFFFFF" fill-opacity=".4"/>
        </g>
      </g>
      <g stroke="#FFFFFF" stroke-width=".6" mask="url(#w)">
        <g transform="matrix(-1 0 0 1 49.8 45)">
          <circle cx="40.2" cy="6.6" r="2.4" fill="#FFFFFF" fill-opacity=".328"/>
          <polyline points="40.2 4.2 40.2 2.1 13.2 2.1 3.6 2.1"/>
          <circle cx="1.8" cy="2.1" r="1.8" fill="#FFFFFF" fill-opacity=".4"/>
        </g>
      </g>
      <path stroke="#FFFFFF" stroke-width=".6" d="M51.9 21.3L51.9 24.9M37.2 43.5L64.8 43.5M15.3 16.2L15.3 37.5" mask="url(#w)"/>
      <rect width="4.2" height="4.2" x="13.2" y="13.8" fill="#F2DF15" mask="url(#w)" rx=".6"/>
      <rect width="4.2" height="4.2" x="48" y="51" fill="#F2DF15" mask="url(#w)" rx=".6"/>
      <rect width="4.2" height="4.2" x="40.8" y="51" fill="#F2DF15" mask="url(#w)" rx=".6"/>
      <rect width="57.6" height="57.6" x="1.2" y="1.2" stroke="#000000" stroke-opacity=".1" stroke-width="2.4" rx="9.6"/>
    </g>
  </g>
</svg>
