<svg xmlns="http://www.w3.org/2000/svg" width="189" height="58" viewBox="0 0 189 58">
  <g fill="none" fill-rule="evenodd">
    <g transform="translate(78)">
      <polygon fill="#FF8680" points="6.667 .25 13.333 9.417 0 9.417"/>
      <polygon fill="#FF6A62" points="20 37.75 13.333 9.417 0 9.417"/>
      <polygon fill="#FF9E99" points="26.667 9.417 20 .25 33.333 .25"/>
      <polygon fill="#FF8680" points="20 .25 26.667 9.417 13.333 9.417"/>
      <polygon fill="#FF564C" points="20 37.75 26.667 9.417 13.333 9.417"/>
      <polygon fill="#FF9E99" points="13.333 9.417 6.667 .25 20 .25"/>
      <polygon fill="#FF8680" points="33.333 .25 40 9.417 26.667 9.417"/>
      <polygon fill="#FF6A62" points="20 37.75 40 9.417 26.667 9.417"/>
    </g>
    <path fill="#595959" d="M20.0835913 27.924581L20.0835913 33.7569832 0 33.7569832 0 5 19.7213622 5 19.7213622 10.8324022 6.6006192 10.8324022 6.6006192 16.4217877 17.869969 16.4217877 17.869969 21.8086592 6.6006192 21.8086592 6.6006192 27.924581 20.0835913 27.924581zM36.3839009 28.0865922C37.5108415 28.0865922 38.4633604 27.8503282 39.2414861 27.3777933 40.0196117 26.9052583 40.6501524 26.2774713 41.1331269 25.4944134 41.6161015 24.7113555 41.9582033 23.8135525 42.1594427 22.8009777 42.3606821 21.7884028 42.4613003 20.7555919 42.4613003 19.702514L42.4613003 5 49.0619195 5 49.0619195 19.702514C49.0619195 21.7006618 48.813728 23.5637716 48.3173375 25.2918994 47.820947 27.0200273 47.0562487 28.5321164 46.0232198 29.8282123 44.9901909 31.1243082 43.6754466 32.1436183 42.0789474 32.8861732 40.4824482 33.6287281 38.5841183 34 36.3839009 34 34.1031878 34 32.1579028 33.6084769 30.5479876 32.825419 28.9380724 32.0423611 27.630036 30.9960494 26.623839 29.6864525 25.617642 28.3768556 24.8797753 26.8580161 24.4102167 25.1298883 23.9406581 23.4017604 23.7058824 21.5926538 23.7058824 19.702514L23.7058824 5 30.3065015 5 30.3065015 19.702514C30.3065015 20.8095959 30.4138276 21.8626579 30.628483 22.8617318 30.8431383 23.8608057 31.191948 24.7518583 31.6749226 25.5349162 32.1578972 26.3179741 32.7817299 26.9390107 33.5464396 27.3980447 34.3111493 27.8570786 35.2569603 28.0865922 36.3839009 28.0865922zM54.1733746 33.7569832L54.1733746 5 67.0526316 5C68.3942276 5 69.6351852 5.28351672 70.7755418 5.85055866 71.9158984 6.4176006 72.9019566 7.16014439 73.7337461 8.07821229 74.5655356 8.9962802 75.2161999 10.0358415 75.6857585 11.1969274 76.1553171 12.3580133 76.3900929 13.5325825 76.3900929 14.7206704 76.3900929 15.6117363 76.2827668 16.4690369 76.0681115 17.2925978 75.8534561 18.1161587 75.5448937 18.8924545 75.1424149 19.6215084 74.7399361 20.3505623 74.2502609 21.0053509 73.6733746 21.5858939 73.0964883 22.1664368 72.4458241 22.6592159 71.7213622 23.0642458L78 33.7569832 70.5541796 33.7569832 65.0804954 24.4818436 60.7739938 24.4818436 60.7739938 33.7569832 54.1733746 33.7569832zM60.7739938 18.6899441L66.8111455 18.6899441C67.5892712 18.6899441 68.2600591 18.3186722 68.8235294 17.5761173 69.3869997 16.8335624 69.6687307 15.8817563 69.6687307 14.7206704 69.6687307 13.5325825 69.3467524 12.5875268 68.7027864 11.8854749 68.0588203 11.1834229 67.3612009 10.8324022 66.6099071 10.8324022L60.7739938 10.8324022 60.7739938 18.6899441zM120 33.7583333L120 5.16111111 126.529862 5.16111111 126.529862 17.4861111 136.882083 5.16111111 144.20827 5.16111111 133.617152 17.9291667 144.924962 33.7583333 137.479326 33.7583333 129.476263 22.2388889 126.529862 25.3402778 126.529862 33.7583333 120 33.7583333zM157.905054 34C155.808055 34 153.896895 33.5838005 152.171516 32.7513889 150.446137 31.9189773 148.972951 30.8247753 147.751914 29.46875 146.530877 28.1127247 145.581933 26.5620458 144.905054 24.8166667 144.228174 23.0712876 143.88974 21.2722315 143.88974 19.4194444 143.88974 17.5398054 144.241446 15.7273235 144.94487 13.9819444 145.648293 12.2365653 146.630417 10.6993122 147.891271 9.37013889 149.152125 8.04096558 150.645219 6.98032803 152.370597 6.18819444 154.095976 5.39606085 155.980592 5 158.024502 5 160.121501 5 162.032661 5.41619954 163.75804 6.24861111 165.483419 7.08102268 166.956604 8.1819376 168.177642 9.55138889 169.398679 10.9208402 170.340987 12.478232 171.004594 14.2236111 171.668201 15.9689902 172 17.7411947 172 19.5402778 172 21.4199168 171.648293 23.2323987 170.94487 24.9777778 170.241446 26.7231569 169.265958 28.26041 168.018377 29.5895833 166.770795 30.9187566 165.284337 31.9861071 163.558959 32.7916667 161.83358 33.5972262 159.948964 34 157.905054 34zM150.539051 19.5C150.539051 20.6009314 150.698314 21.6682819 151.016845 22.7020833 151.335377 23.7358848 151.806531 24.6555515 152.430322 25.4611111 153.054112 26.2666707 153.830521 26.9111087 154.759571 27.3944444 155.688621 27.8777802 156.750377 28.1194444 157.94487 28.1194444 159.192451 28.1194444 160.280751 27.8643544 161.209801 27.3541667 162.138851 26.8439789 162.908624 26.1794022 163.519142 25.3604167 164.129661 24.5414311 164.587543 23.6150515 164.892802 22.58125 165.198062 21.5474485 165.350689 20.4935239 165.350689 19.4194444 165.350689 18.318513 165.191426 17.2511626 164.872894 16.2173611 164.554363 15.1835596 164.076573 14.2706058 163.43951 13.4784722 162.802447 12.6863386 162.026038 12.0553264 161.11026 11.5854167 160.194482 11.1155069 159.139363 10.8805556 157.94487 10.8805556 156.697288 10.8805556 155.615625 11.1289327 154.699847 11.6256944 153.784069 12.1224562 153.014296 12.7736071 152.390505 13.5791667 151.766715 14.3847263 151.302197 15.304393 150.996937 16.3381944 150.691678 17.3719959 150.539051 18.4259206 150.539051 19.5z"/>
    <path fill="#FF6A62" d="M172.809872,3.05786164 L171,3.05786164 L171,0.343396226 L176.034735,0.343396226 L176.034735,12.672956 L172.809872,12.672956 L172.809872,3.05786164 Z M182.780622,8.94465409 C182.780622,9.15178301 182.819012,9.34800746 182.895795,9.53333333 C182.972578,9.71865921 183.076782,9.87945425 183.20841,10.0157233 C183.340037,10.1519923 183.496343,10.2610059 183.677331,10.3427673 C183.858319,10.4245287 184.053015,10.4654088 184.261426,10.4654088 C184.458868,10.4654088 184.64808,10.4245287 184.829068,10.3427673 C185.010056,10.2610059 185.169104,10.1519923 185.306216,10.0157233 C185.443328,9.87945425 185.550274,9.72138455 185.627057,9.54150943 C185.70384,9.36163432 185.74223,9.16813521 185.74223,8.96100629 C185.74223,8.54674845 185.596894,8.19517964 185.306216,7.90628931 C185.015538,7.61739897 184.667278,7.47295597 184.261426,7.47295597 C183.844605,7.47295597 183.493603,7.61739897 183.20841,7.90628931 C182.923216,8.19517964 182.780622,8.54129777 182.780622,8.94465409 Z M182.895795,3.48301887 C182.895795,3.86457214 183.027421,4.18888755 183.290676,4.45597484 C183.553932,4.72306213 183.877512,4.85660377 184.261426,4.85660377 C184.458868,4.85660377 184.639853,4.81844902 184.804388,4.74213836 C184.968922,4.66582771 185.111517,4.56499014 185.232176,4.43962264 C185.352834,4.31425514 185.448811,4.16981214 185.52011,4.00628931 C185.591408,3.84276648 185.627057,3.67379542 185.627057,3.49937107 C185.627057,3.12871932 185.495431,2.80985458 185.232176,2.5427673 C184.96892,2.27568001 184.64534,2.14213836 184.261426,2.14213836 C183.877512,2.14213836 183.553932,2.27295467 183.290676,2.53459119 C183.027421,2.79622772 182.895795,3.11236712 182.895795,3.48301887 Z M181.974406,6.16477987 C180.680067,5.6306053 180.032907,4.72579254 180.032907,3.45031447 C180.032907,2.92704141 180.13711,2.45555765 180.345521,2.03584906 C180.553932,1.61614046 180.841863,1.25367029 181.209324,0.948427673 C181.576784,0.643185057 182.021021,0.408805849 182.542048,0.245283019 C183.063074,0.0817601887 183.636194,1.81545903e-15 184.261426,0 C184.886658,1.81545903e-15 185.459778,0.0817601887 185.980804,0.245283019 C186.501831,0.408805849 186.946068,0.643185057 187.313528,0.948427673 C187.680989,1.25367029 187.96892,1.61614046 188.177331,2.03584906 C188.385741,2.45555765 188.489945,2.92704141 188.489945,3.45031447 C188.489945,3.77736013 188.457039,4.06897147 188.391225,4.32515723 C188.325411,4.581343 188.212981,4.81572221 188.053931,5.02830189 C187.89488,5.24088157 187.686473,5.43983136 187.428702,5.62515723 C187.170931,5.81048311 186.850093,5.99035552 186.466179,6.16477987 C188.155401,6.81887119 189,7.87630297 189,9.33710692 C189,9.86037997 188.882085,10.3454904 188.646252,10.7924528 C188.410419,11.2394152 188.081355,11.6264135 187.659049,11.9534591 C187.236744,12.2805048 186.737663,12.5366867 186.161792,12.7220126 C185.58592,12.9073385 184.952471,13 184.261426,13 C183.592318,13 182.969838,12.9100638 182.393967,12.7301887 C181.818096,12.5503136 181.316273,12.296857 180.888483,11.9698113 C180.460693,11.6427657 180.126144,11.2557674 179.884826,10.808805 C179.643509,10.3618426 179.522852,9.8712815 179.522852,9.33710692 C179.522852,7.8435984 180.340028,6.78616663 181.974406,6.16477987 Z"/>
    <g transform="translate(0 45)">
      <g fill="#0F0E0F" transform="translate(65 1)">
        <path d="M7.38949601 4.40425518L4.16550576 4.40425518C4.08231494 4.40425518 4.01488884 4.47123121 4.01488884 4.55373639L4.01488884 6.11700348C4.01488884 6.19950865 4.08231494 6.26669597 4.16550576 6.26669597L5.42316766 6.26669597 5.42316766 8.20889528C5.42316766 8.20889528 5.14078757 8.30439422 4.36000823 8.30439422 3.43894424 8.30439422 2.15220283 7.97057047 2.15220283 5.16433808 2.15220283 2.35757748 3.49209688 1.98825854 4.74997183 1.98825854 5.8389087 1.98825854 6.3079089 2.17841131 6.60647978 2.27000157 6.70032242 2.29852448 6.78702834 2.20587782 6.78702834 2.12337265L7.14663422.612925777C7.14663422.574261379 7.13342595.52777959 7.08911432.496193101 6.96789647.410413072 6.22833971 0 4.36000823 0 2.20769888 0 0 .908190779 0 5.27378156 0 9.63947798 2.52767994 10.2901174 4.65772695 10.2901174 6.42135092 10.2901174 7.49122101 9.54260571 7.49122101 9.54260571 7.5353196 9.51851969 7.54011293 9.45735388 7.54011293 9.42935917L7.54011293 4.55373639C7.54011293 4.47123121 7.47268682 4.40425518 7.38949601 4.40425518zM24.004651.523131411C24.004651.439992392 23.9381835.372805078 23.8548862.372805078L22.0396009.372805078C21.9567296.372805078 21.8893035.439992392 21.8893035.523131411 21.8893035.523553973 21.8898361 4.00229334 21.8898361 4.00229334L19.0601767 4.00229334 19.0601767.523131411C19.0601767.439992392 18.9934962.372805078 18.9104119.372805078L17.0952331.372805078C17.0126814.372805078 16.9452553.439992392 16.9452553.523131411L16.9452553 9.9439337C16.9452553 10.0269671 17.0126814 10.094577 17.0952331 10.094577L18.9104119 10.094577C18.9934962 10.094577 19.0601767 10.0269671 19.0601767 9.9439337L19.0601767 5.91427949 21.8898361 5.91427949C21.8898361 5.91427949 21.8848297 9.94361678 21.8848297 9.9439337 21.8848297 10.0269671 21.9521493 10.094577 22.0352336 10.094577L23.8547797 10.094577C23.9379705 10.094577 24.0044379 10.0269671 24.004651 9.9439337L24.004651.523131411zM10.8150189 1.75933573C10.8150189 1.11112605 10.2910553.587255152 9.64448903.587255152 8.99856188.587255152 8.47406563 1.11112605 8.47406563 1.75933573 8.47406563 2.40691156 8.99856188 2.93226142 9.64448903 2.93226142 10.2910553 2.93226142 10.8150189 2.40691156 10.8150189 1.75933573zM10.6852796 7.95662593C10.6852796 7.71523755 10.6852796 3.60793762 10.6852796 3.60793762 10.6852796 3.52543244 10.6180665 3.4579282 10.5350888 3.4579282L8.72544889 3.4579282C8.64247111 3.4579282 8.56822783 3.54275747 8.56822783 3.62536829 8.56822783 3.62536829 8.56822783 8.85816136 8.56822783 9.85572394 8.56822783 10.0387988 8.68326763 10.0932036 8.83207373 10.0932036 8.83207373 10.0932036 9.60454465 10.0932036 10.4624433 10.0932036 10.6413941 10.0932036 10.6852796 10.0061559 10.6852796 9.85276601 10.6852796 9.51883661 10.6852796 8.21058552 10.6852796 7.95662593zM30.9035236 3.47208402L29.1021921 3.47208402C29.0196404 3.47208402 28.9523208 3.53958826 28.9523208 3.62272728L28.9523208 8.24196073C28.9523208 8.24196073 28.4946116 8.57409424 27.8450628 8.57409424 27.1956205 8.57409424 27.0232739 8.28178717 27.0232739 7.65100816 27.0232739 7.01948967 27.0232739 3.62272728 27.0232739 3.62272728 27.0232739 3.53958826 26.9561673 3.47208402 26.8734026 3.47208402L25.045122 3.47208402C24.9626768 3.47208402 24.8950377 3.53958826 24.8950377 3.62272728 24.8950377 3.62272728 24.8950377 6.08267034 24.8950377 7.95599209 24.8950377 9.82952512 25.9478648 10.2878989 27.3961946 10.2878989 28.584513 10.2878989 29.5425389 9.63683697 29.5425389 9.63683697 29.5425389 9.63683697 29.5881287 9.97995709 29.6087933 10.0206287 29.6293513 10.0611946 29.6831431 10.1021831 29.7413021 10.1021831L30.9043757 10.0971123C30.9868209 10.0971123 31.05446 10.0295025 31.05446 9.94668035L31.0538209 3.62272728C31.0538209 3.53958826 30.9866079 3.47208402 30.9035236 3.47208402zM35.1165365 8.56838966C34.4917 8.54948002 34.0678636 8.2682652 34.0678636 8.2682652L34.0678636 5.28497945C34.0678636 5.28497945 34.485948 5.03080857 34.9989403 4.98538319 35.6476369 4.92770351 36.2726864 5.1220819 36.2726864 6.65672043 36.2726864 8.27513183 35.9906259 8.59448285 35.1165365 8.56838966zM35.8270138 3.26048624C34.8039052 3.26048624 34.108021 3.71315548 34.108021 3.71315548L34.108021.523131411C34.108021.439992392 34.0409144.372805078 33.9582562.372805078L32.1377514.372805078C32.0549867.372805078 31.9877736.439992392 31.9877736.523131411L31.9877736 9.9439337C31.9877736 10.0269671 32.0549867 10.094577 32.1379645 10.094577 32.1381775 10.094577 33.4006327 10.094577 33.4010588 10.094577 33.4579396 10.094577 33.500973 10.0655258 33.532822 10.0146072 33.5642449 9.96400538 33.6095152 9.5802137 33.6095152 9.5802137 33.6095152 9.5802137 34.3538653 10.2798703 35.7629962 10.2798703 37.4174389 10.2798703 38.3661977 9.44763496 38.3661977 6.54379081 38.3661977 3.63994667 36.8508679 3.26048624 35.8270138 3.26048624zM15.9025474 3.45708308L14.540817 3.45708308C14.540817 3.45708308 14.5387932 1.67334442 14.5387932 1.67292185 14.5387932 1.60541762 14.5036421 1.57161268 14.4249251 1.57161268L12.5693758 1.57161268C12.4971564 1.57161268 12.4584902 1.60319917 12.4584902 1.67186545L12.4584902 3.51560788C12.4584902 3.51560788 11.5285852 3.73819227 11.4656329 3.75615114 11.4031066 3.77421565 11.3569842 3.83147277 11.3569842 3.89982212L11.3569842 5.05838072C11.3569842 5.14162538 11.4240907 5.2088127 11.5070685 5.2088127L12.4584902 5.2088127C12.4584902 5.2088127 12.4584902 6.42061407 12.4584902 7.99613545 12.4584902 10.0662653 13.9226912 10.2696231 14.9106487 10.2696231 15.3621799 10.2696231 15.9022278 10.1258465 15.9913836 10.0932036 16.0452819 10.0735545 16.0765983 10.0181989 16.0765983 9.95808952L16.0781961 8.68364337C16.0781961 8.60050435 16.0073614 8.5332114 15.9275792 8.5332114 15.8481165 8.5332114 15.6453056 8.56522045 15.4363166 8.56522045 14.7673815 8.56522045 14.540817 8.25685603 14.540817 7.85764085 14.540817 7.45863694 14.5407105 5.2088127 14.5407105 5.2088127L15.9025474 5.2088127C15.9854186 5.2088127 16.0527382 5.14162538 16.0527382 5.05838072L16.0527382 3.60719813C16.0527382 3.52405911 15.9854186 3.45708308 15.9025474 3.45708308z"/>
      </g>
      <path fill="#595959" d="M61.6395746,10.2180713 L60.8966855,9.44506503 C60.6088982,9.72615961 60.2859789,9.94199686 59.9279179,10.0925832 C59.5698569,10.2431696 59.186704,10.3184617 58.7784476,10.3184617 C58.4505039,10.3184617 58.1459893,10.268267 57.8648948,10.1678761 C57.5838002,10.0674851 57.3395193,9.92861311 57.1320447,9.75125581 C56.9245701,9.57389852 56.7622739,9.3647539 56.6451511,9.12381568 C56.5280284,8.88287747 56.4694679,8.61851867 56.4694679,8.33073136 C56.4694679,8.09648587 56.5079505,7.87897547 56.5849169,7.67819362 C56.6618833,7.47741177 56.765619,7.29336451 56.8961272,7.1260463 C57.0266354,6.9587281 57.1755464,6.8031245 57.3428646,6.65923085 C57.5101828,6.51533719 57.6875374,6.37981148 57.8749338,6.25264964 C57.7143083,6.07194598 57.5771094,5.9079766 57.4633331,5.76073658 C57.3495567,5.61349656 57.2575331,5.47462453 57.1872594,5.34411633 C57.1169858,5.21360813 57.0651179,5.08979452 57.0316543,4.97267177 C56.9981906,4.85554903 56.981459,4.73340857 56.981459,4.60624674 C56.981459,4.37869398 57.0283074,4.16620304 57.1220056,3.96876756 C57.2157038,3.77133208 57.3445369,3.60067007 57.5085088,3.45677642 C57.6724806,3.31288276 57.8665668,3.20078124 58.0907732,3.12046851 C58.3149796,3.04015577 58.5575874,3 58.8186038,3 C59.059542,3 59.2854182,3.03346314 59.4962391,3.10039042 C59.70706,3.1673177 59.8911073,3.26436081 60.0483864,3.39152264 C60.2056655,3.51868448 60.3294791,3.67261492 60.419831,3.85331858 C60.5101828,4.03402224 60.555358,4.23480107 60.555358,4.4556611 C60.555358,4.65644295 60.5168754,4.84383653 60.4399091,5.01784746 C60.3629427,5.1918584 60.2592069,5.35415462 60.1286987,5.504741 C59.9981905,5.65532739 59.842587,5.79754573 59.6618833,5.93140029 C59.4811796,6.06525486 59.2904397,6.19910741 59.0896579,6.33296198 L60.9067245,8.24037998 C61.0338863,7.99944176 61.1326026,7.73675612 61.2028763,7.45231517 C61.2731499,7.16787422 61.3082862,6.86503282 61.3082862,6.54378186 L62.0411363,6.54378186 C62.0344435,6.9788092 61.9792294,7.38371318 61.8754921,7.75850596 C61.7717548,8.13329874 61.6228438,8.47462275 61.4287547,8.78248825 L62.8041035,10.2180713 L61.6395746,10.2180713 Z M58.868799,9.61572875 C59.1699717,9.61572875 59.4510621,9.5554951 59.7120785,9.43502599 C59.9730949,9.31455688 60.2073369,9.14724118 60.4148114,8.93307388 L58.3869249,6.79475791 C58.0723667,7.02231067 57.8163737,7.2582258 57.6189382,7.50251038 C57.4215027,7.74679496 57.3227865,8.02621217 57.3227865,8.3407704 C57.3227865,8.54155224 57.3662886,8.7222532 57.453294,8.88287867 C57.5402995,9.04350415 57.6557473,9.17735671 57.799641,9.28444036 C57.9435346,9.39152401 58.107504,9.4735087 58.291554,9.53039689 C58.4756041,9.58728508 58.6680171,9.61572875 58.868799,9.61572875 Z M57.7946215,4.58616865 C57.7946215,4.65978866 57.8063336,4.73173441 57.8297581,4.80200806 C57.8531827,4.8722817 57.8933384,4.95259324 57.9502266,5.04294507 C58.0071148,5.1332969 58.0857532,5.24037894 58.1861441,5.36419442 C58.286535,5.48800989 58.4170413,5.63357454 58.5776667,5.80089275 C58.9256886,5.58003272 59.206779,5.36754178 59.4209463,5.16341357 C59.6351136,4.95928536 59.7421956,4.73006286 59.7421956,4.47573919 C59.7421956,4.2414937 59.6551915,4.04908065 59.4811805,3.89849427 C59.3071696,3.74790788 59.0863129,3.67261582 58.8186038,3.67261582 C58.517431,3.67261582 58.2714769,3.76129314 58.0807342,3.93865044 C57.8899914,4.11600773 57.7946215,4.33184498 57.7946215,4.58616865 Z"/>
      <g fill-rule="nonzero">
        <path fill="#2BD9D9" d="M6.24458862,3.65606407 L5.63895881,4.8661028 C5.37645848,5.39057429 4.73849176,5.60294388 4.21402027,5.34044354 C3.68954878,5.07794321 3.4771792,4.4399765 3.73967953,3.91550501 L5.29494898,0.808101372 C5.68644014,0.0259082599 6.8027371,0.0259082599 7.19422826,0.808101372 L8.7494977,3.91550501 C9.01199804,4.4399765 8.79962845,5.07794321 8.27515696,5.34044354 C7.75068547,5.60294388 7.11271876,5.39057429 6.85021842,4.8661028 L6.24458862,3.65606407 Z"/>
        <path fill="#3DCC3D" d="M9.15398209,7.414288 C8.89148176,7.93875949 8.25351504,8.15112907 7.72904355,7.88862874 C7.20457206,7.62612841 6.99220248,6.98816169 7.25470281,6.4636902 L8.80997226,3.35628657 C9.20146342,2.57409346 10.3177604,2.57409346 10.7092515,3.35628657 L12.264521,6.4636902 C12.5270213,6.98816169 12.3146517,7.62612841 11.7901802,7.88862874 C11.2657087,8.15112907 10.627742,7.93875949 10.3652417,7.414288 L9.7596119,6.20424927 L9.15398209,7.414288 Z" transform="rotate(72 9.76 5.385)"/>
        <path fill="#FFD426" d="M8.41699248,10.3320135 L7.81136267,11.5420523 C7.54886234,12.0665238 6.91089562,12.2788933 6.38642413,12.016393 C5.86195264,11.7538927 5.64958306,11.115926 5.91208339,10.5914545 L7.46735283,7.48405083 C7.85884399,6.70185772 8.97514096,6.70185772 9.36663212,7.48405083 L10.9219016,10.5914545 C11.1844019,11.115926 10.9720323,11.7538927 10.4475608,12.016393 C9.92308933,12.2788933 9.28512261,12.0665238 9.02262228,11.5420523 L8.41699248,10.3320135 Z" transform="rotate(144 8.417 9.513)"/>
        <path fill="#F7578C" d="M4.06223802,10.3320135 L3.45660821,11.5420523 C3.19410788,12.0665238 2.55614117,12.2788933 2.03166968,12.016393 C1.50719819,11.7538927 1.2948286,11.115926 1.55732893,10.5914545 L3.11259838,7.48405083 C3.50408954,6.70185772 4.6203865,6.70185772 5.01187766,7.48405083 L6.56714711,10.5914545 C6.82964744,11.115926 6.61727786,11.7538927 6.09280637,12.016393 C5.56833487,12.2788933 4.93036816,12.0665238 4.66786783,11.5420523 L4.06223802,10.3320135 Z" transform="rotate(-144 4.062 9.513)"/>
        <path fill="#00AAFF" d="M2.12416419,7.414288 C1.86166385,7.93875949 1.22369714,8.15112907 0.69922565,7.88862874 C0.174754159,7.62612841 -0.0376154258,6.98816169 0.224884906,6.4636902 L1.78015435,3.35628657 C2.17164551,2.57409346 3.28794248,2.57409346 3.67943363,3.35628657 L5.23470308,6.4636902 C5.49720341,6.98816169 5.28483383,7.62612841 4.76036234,7.88862874 C4.23589085,8.15112907 3.59792413,7.93875949 3.3354238,7.414288 L2.72979399,6.20424927 L2.12416419,7.414288 Z" transform="rotate(-72 2.73 5.385)"/>
        <path fill="#0090D9" d="M4.74746029,5.45133669 C4.56890199,5.46129201 4.38540171,5.42622072 4.21402027,5.34044354 C3.68954878,5.07794321 3.4771792,4.4399765 3.73967953,3.91550501 L3.98870545,3.41795517 L4.52936514,3.33630226 C5.10928423,3.24872021 5.65040082,3.64783824 5.73798287,4.22775734 C5.82556491,4.80767643 5.42644688,5.34879302 4.84652779,5.43637506 L4.74746029,5.45133669 Z"/>
        <path fill="#0AAD33" d="M8.50045308,3.41791781 L8.7494977,3.91550501 C9.01199804,4.4399765 8.79962845,5.07794321 8.27515696,5.34044354 C8.10389128,5.42616279 7.92052312,5.46124461 7.74207877,5.4513568 L7.64287811,5.43637506 C7.06295901,5.34879302 6.66384098,4.80767643 6.75142303,4.22775734 C6.83900507,3.64783824 7.38012166,3.24872021 7.96004076,3.33630226 L8.50045308,3.41791781 Z"/>
        <path fill="#3DA909" d="M9.90021101,7.71446701 L9.50815971,8.10092248 C9.09047474,8.51264573 8.41810653,8.50781281 8.00638328,8.09012785 C7.59466002,7.67244288 7.59949294,7.00007467 8.01717791,6.58835141 L8.06863455,6.53762922 C8.21136774,6.41436609 8.38873035,6.32757485 8.58839785,6.29447775 C9.16699803,6.19856837 9.71379605,6.58986658 9.80970543,7.16846675 L9.90021101,7.71446701 Z"/>
        <path fill="#F74814" d="M6.23961525,10.3636217 L5.75667739,10.113164 C5.23603355,9.84315146 5.03285673,9.20219784 5.30286926,8.681554 C5.49071877,8.31933862 5.85810664,8.11077973 6.23961525,8.10831332 C6.62112385,8.11077973 6.98851173,8.31933862 7.17636124,8.681554 C7.44637377,9.20219784 7.24319695,9.84315146 6.72255311,10.113164 L6.23961525,10.3636217 Z"/>
        <path fill="#003A8C" d="M2.58044858,7.70584555 L2.66952506,7.16846675 C2.76543444,6.58986658 3.31223247,6.19856837 3.89083265,6.29447775 C4.46943282,6.39038713 4.86073102,6.93718516 4.76482164,7.51578533 L4.74081448,7.66061528 C4.69210859,7.81738376 4.60621104,7.96515566 4.48302261,8.09012785 C4.07129936,8.50781281 3.39893115,8.51264573 2.98124618,8.10092248 L2.58044858,7.70584555 Z"/>
      </g>
      <path fill="#3D474D" d="M0.144596446,4.65649828 L1.52479894,4.65649828 C1.60465735,4.65649828 1.66939539,4.72123632 1.66939539,4.80109473 L1.66939539,5.42896291 C1.74668248,5.31972494 1.82396853,5.21048861 1.9244419,5.10125064 C2.02491528,4.99201267 2.14470866,4.89448024 2.28382563,4.80865041 C2.42294261,4.72282057 2.58137901,4.65259722 2.7591396,4.59797824 C2.93690018,4.54335925 3.13011531,4.51605017 3.33879077,4.51605017 C3.73295554,4.51605017 4.08267492,4.59797742 4.3879594,4.76183437 C4.69324388,4.92569132 4.92316988,5.18317695 5.0777443,5.53429899 C5.27869105,5.16757153 5.52214211,4.9061846 5.80810478,4.75013036 C6.09406746,4.59407612 6.44571899,4.51605017 6.86306992,4.51605017 C7.24177725,4.51605017 7.56058221,4.58042158 7.81949436,4.70916633 C8.07840652,4.83791107 8.28321455,5.01346946 8.43392461,5.23584675 C8.58463467,5.45822404 8.69283514,5.71961097 8.75852927,6.02001539 C8.8242234,6.3204198 8.85706997,6.64227684 8.85706997,6.98559617 L8.85706997,10.2000504 C8.85706997,10.2799088 8.79233193,10.3446469 8.71247352,10.3446469 L7.26271289,10.3446469 C7.18285447,10.3446469 7.11811644,10.2799088 7.11811644,10.2000504 L7.11811644,7.0324122 C7.11811644,6.76712 7.06208405,6.53889409 6.9500176,6.34772765 C6.83795114,6.15656121 6.63893956,6.06097942 6.35297689,6.06097942 C6.15203014,6.06097942 5.98393298,6.09414045 5.84868036,6.1604635 C5.71342775,6.22678655 5.60522728,6.31846704 5.52407571,6.43550772 C5.44292414,6.5525484 5.3849596,6.68909381 5.35018035,6.84514805 C5.31540111,7.00120229 5.29801175,7.16505679 5.29801175,7.33671645 L5.29801175,10.2000504 C5.29801175,10.2799088 5.23327371,10.3446469 5.1534153,10.3446469 L3.70365467,10.3446469 C3.62379625,10.3446469 3.55905822,10.2799088 3.55905822,10.2000504 L3.55905822,7.33671645 C3.55905822,7.23528119 3.55519392,7.11043967 3.5474652,6.96218815 C3.53973648,6.81393662 3.51268636,6.67348991 3.46631403,6.54084381 C3.41994171,6.4081977 3.34458781,6.29506008 3.24025007,6.20142753 C3.13591234,6.10779499 2.98327239,6.06097942 2.78232564,6.06097942 C2.55819274,6.06097942 2.37657052,6.10194304 2.23745354,6.18387152 C2.09833656,6.26579999 1.99206824,6.37503632 1.91864539,6.51158378 C1.84522254,6.64813124 1.79691876,6.80223249 1.7737326,6.97389216 C1.75054644,7.14555182 1.73895353,7.3250115 1.73895353,7.51227659 L1.73895353,10.2000504 C1.73895353,10.2799088 1.67421549,10.3446469 1.59435708,10.3446469 L0.144596446,10.3446469 C0.0647380341,10.3446469 3.75354105e-17,10.2799088 2.77555756e-17,10.2000504 L0,4.80109473 C-9.77983488e-18,4.72123632 0.0647380341,4.65649828 0.144596446,4.65649828 Z M14.9763687,9.48055672 C14.90527,9.56222382 14.8467696,9.62496811 14.8008678,9.66878958 C14.5767819,9.88271913 14.3174221,10.0572866 14.0227848,10.1924948 C13.5977052,10.3875626 13.1571747,10.485095 12.7011802,10.485095 C12.2683718,10.485095 11.8606879,10.4148716 11.4781162,10.2744228 C11.0955445,10.133974 10.7632145,9.93305719 10.4811162,9.67166634 C10.1990178,9.41027549 9.97682045,9.09622104 9.81451731,8.72949358 C9.65221417,8.36276611 9.57106381,7.95312988 9.57106381,7.50057258 C9.57106381,7.04801529 9.65221417,6.63837905 9.81451731,6.27165159 C9.97682045,5.90492413 10.1990178,5.59086968 10.4811162,5.32947883 C10.7632145,5.06808798 11.0955445,4.86717116 11.4781162,4.72672234 C11.8606879,4.58627352 12.2683718,4.51605017 12.7011802,4.51605017 C13.1030737,4.51605017 13.4682502,4.58627352 13.7967209,4.72672234 C14.1251915,4.86717116 14.4034213,5.06808798 14.6314186,5.32947883 C14.8594158,5.59086968 15.0352416,5.90492413 15.1589011,6.27165159 C15.2825607,6.63837905 15.3443895,7.04801529 15.3443895,7.50057258 L15.3443895,7.85786577 C15.3443895,7.96434365 15.2580721,8.05066103 15.1515943,8.05066103 L11.3100173,8.05066103 C11.3795758,8.38617764 11.5302836,8.65341652 11.7621453,8.85238568 C11.9940069,9.05135483 12.2799653,9.15083792 12.620029,9.15083792 C12.9059917,9.15083792 13.1475106,9.08646651 13.344593,8.95772176 C13.4662494,8.87824927 13.5783337,8.78465515 13.680847,8.67693824 C13.7059757,8.650534 13.7372619,8.6143908 13.7747055,8.56850865 L13.7745286,8.5683643 C13.8234211,8.50845299 13.9107566,8.49752199 13.9729068,8.54353508 L14.9533676,9.26956286 C15.0175004,9.31704384 15.0309994,9.4075247 14.9835184,9.47165751 C14.9812533,9.47471694 14.9788683,9.47768566 14.9763687,9.48055672 Z M33.3880135,9.48055672 C33.3169148,9.56222382 33.2584144,9.62496811 33.2125125,9.66878958 C32.9884267,9.88271913 32.7290669,10.0572866 32.4344296,10.1924948 C32.00935,10.3875626 31.5688195,10.485095 31.1128249,10.485095 C30.6800166,10.485095 30.2723326,10.4148716 29.889761,10.2744228 C29.5071893,10.133974 29.1748593,9.93305719 28.8927609,9.67166634 C28.6106626,9.41027549 28.3884652,9.09622104 28.2261621,8.72949358 C28.0638589,8.36276611 27.9827086,7.95312988 27.9827086,7.50057258 C27.9827086,7.04801529 28.0638589,6.63837905 28.2261621,6.27165159 C28.3884652,5.90492413 28.6106626,5.59086968 28.8927609,5.32947883 C29.1748593,5.06808798 29.5071893,4.86717116 29.889761,4.72672234 C30.2723326,4.58627352 30.6800166,4.51605017 31.1128249,4.51605017 C31.5147184,4.51605017 31.879895,4.58627352 32.2083657,4.72672234 C32.5368363,4.86717116 32.8150661,5.06808798 33.0430634,5.32947883 C33.2710606,5.59086968 33.4468864,5.90492413 33.5705459,6.27165159 C33.6942055,6.63837905 33.7560343,7.04801529 33.7560343,7.50057258 L33.7560343,7.85786577 C33.7560343,7.96434365 33.6697169,8.05066103 33.563239,8.05066103 L29.7216621,8.05066103 C29.7912206,8.38617764 29.9419284,8.65341652 30.17379,8.85238568 C30.4056517,9.05135483 30.6916101,9.15083792 31.0316738,9.15083792 C31.3176365,9.15083792 31.5591554,9.08646651 31.7562377,8.95772176 C31.8778942,8.87824927 31.9899785,8.78465515 32.0924918,8.67693824 C32.1176205,8.650534 32.1489066,8.6143908 32.1863502,8.56850865 L32.1861734,8.5683643 C32.2350659,8.50845299 32.3224014,8.49752199 32.3845515,8.54353508 L33.3650124,9.26956286 C33.4291452,9.31704384 33.4426442,9.4075247 33.3951632,9.47165751 C33.3928981,9.47471694 33.390513,9.47768566 33.3880135,9.48055672 Z M13.605436,6.85685206 C13.6131647,6.56034901 13.5165572,6.30676467 13.3156104,6.09609145 C13.1146637,5.88541822 12.8557554,5.78008319 12.5388778,5.78008319 C12.3456598,5.78008319 12.1756305,5.81129357 12.0287848,5.87371527 C11.8819391,5.93613696 11.7563493,6.01611356 11.6520115,6.11364746 C11.5476738,6.21118136 11.4665234,6.32431899 11.408558,6.45306374 C11.3505926,6.58180848 11.3177461,6.71640325 11.3100173,6.85685206 L13.605436,6.85685206 Z M16.2262093,4.65649828 L17.67597,4.65649828 C17.7558284,4.65649828 17.8205664,4.72123632 17.8205664,4.80109473 L17.8205664,10.2000504 C17.8205664,10.2799088 17.7558284,10.3446469 17.67597,10.3446469 L16.2262093,10.3446469 C16.1463509,10.3446469 16.0816129,10.2799088 16.0816129,10.2000504 L16.0816129,4.80109473 C16.0816129,4.72123632 16.1463509,4.65649828 16.2262093,4.65649828 Z M16.9547969,4.13222751 C16.3945401,4.13222751 15.9403623,3.67325959 15.9403623,3.10709397 C15.9403623,2.54092835 16.3945401,2.08196044 16.9547969,2.08196044 C17.5150536,2.08196044 17.9692315,2.54092835 17.9692315,3.10709397 C17.9692315,3.67325959 17.5150536,4.13222751 16.9547969,4.13222751 Z M21.9196797,6.33017164 C21.6646319,6.01026044 21.3284375,5.85030725 20.9110866,5.85030725 C20.7642409,5.85030725 20.6212617,5.88541893 20.4821447,5.95564333 C20.3430278,6.02586774 20.2734703,6.14680796 20.2734703,6.31846763 C20.2734703,6.45891644 20.3449599,6.56230083 20.4879413,6.62862388 C20.6309226,6.69494693 20.8125448,6.75346639 21.0328134,6.80418402 C21.2530819,6.85490165 21.4888044,6.90951981 21.7399878,6.96804015 C21.9911712,7.02656049 22.2268937,7.11824098 22.4471622,7.24308437 C22.6674308,7.36792777 22.849053,7.53763421 22.9920343,7.75220879 C23.1350157,7.96678337 23.2065053,8.25352873 23.2065053,8.61245348 C23.2065053,8.97918095 23.1272871,9.2815315 22.9688483,9.51951422 C22.8104095,9.75749693 22.6075336,9.94866051 22.3602146,10.0930107 C22.1128955,10.2373609 21.8346657,10.3387946 21.5255169,10.3973149 C21.216368,10.4558353 20.9110881,10.485095 20.609668,10.485095 C20.2155032,10.485095 19.8174801,10.4285262 19.4155866,10.3153869 C19.0136931,10.2022475 18.6736345,10.0013307 18.3954005,9.71263037 L19.4503656,8.53052542 C19.6126688,8.73339593 19.7923589,8.88749718 19.9894412,8.99283379 C20.1865236,9.0981704 20.4164496,9.15083792 20.6792261,9.15083792 C20.8801729,9.15083792 21.0617951,9.12157819 21.2240982,9.06305785 C21.3864014,9.00453751 21.4675517,8.89725183 21.4675517,8.74119759 C21.4675517,8.59294606 21.3960621,8.48175908 21.2530808,8.40763332 C21.1100995,8.33350755 20.9284772,8.27108679 20.7082087,8.22036916 C20.4879402,8.16965154 20.2522177,8.11503337 20.0010343,8.05651303 C19.7498508,7.99799269 19.5141284,7.9102135 19.2938598,7.79317282 C19.0735913,7.67613214 18.8919691,7.510327 18.7489877,7.29575242 C18.6060064,7.08117784 18.5345168,6.79443247 18.5345168,6.43550772 C18.5345168,6.09999111 18.6021421,5.81129509 18.7373947,5.56941102 C18.8726473,5.32752695 19.0504052,5.12856078 19.2706738,4.97250654 C19.4909423,4.8164523 19.7440541,4.70136402 20.0300168,4.62723826 C20.3159795,4.5531125 20.6058022,4.51605017 20.8994936,4.51605017 C21.2704722,4.51605017 21.6453095,4.57066833 22.0240169,4.6799063 C22.4027242,4.78914427 22.7234613,4.98420914 22.9862378,5.26510677 L21.9196797,6.33017164 Z M27.4508911,6.06097942 L26.0652085,6.06097942 L26.0652085,7.95702895 C26.0652085,8.11308319 26.0729371,8.25548055 26.0883945,8.3842253 C26.103852,8.51297004 26.1386307,8.62415702 26.1927317,8.71778957 C26.2468328,8.81142211 26.3299153,8.88359611 26.4419817,8.93431374 C26.5540482,8.98503137 26.7028238,9.0103898 26.8883131,9.0103898 C26.9810578,9.0103898 27.1027833,9.00063656 27.2534934,8.98112978 C27.2995611,8.97516712 27.3484721,8.96250639 27.4002264,8.9431476 L27.4002243,8.94314189 C27.4750245,8.91516274 27.5583436,8.9531187 27.5863228,9.02791891 C27.5923835,9.04412167 27.5954876,9.06128048 27.5954876,9.07857965 L27.5955714,10.2008257 C27.5955714,10.2655823 27.5525412,10.3224524 27.4902235,10.340057 C27.2784254,10.3998893 27.1125677,10.4365313 26.9926503,10.449983 C26.7839749,10.4733911 26.5791668,10.485095 26.3782201,10.485095 C26.0845287,10.485095 25.8140275,10.4538846 25.5667085,10.3914629 C25.3193894,10.3290412 25.1029884,10.2295581 24.9174991,10.0930107 C24.7320098,9.95646322 24.5870985,9.77895418 24.4827608,9.56047825 C24.378423,9.34200231 24.3262549,9.07671408 24.3262549,8.7646056 L24.3262549,6.06097942 L23.3579211,6.06097942 C23.2780627,6.06097942 23.2133247,5.99624138 23.2133247,5.91638297 L23.2133247,4.80109473 C23.2133247,4.72123632 23.2780627,4.65649828 23.3579211,4.65649828 L24.3262549,4.65649828 L24.3262549,3.11571737 C24.3262549,3.03585895 24.390993,2.97112092 24.4708514,2.97112092 L25.920612,2.97112092 C26.0004704,2.97112092 26.0652085,3.03585895 26.0652085,3.11571737 L26.0652085,4.65649828 L27.4508911,4.65649828 C27.5307495,4.65649828 27.5954876,4.72123632 27.5954876,4.80109473 L27.5954876,5.91638297 C27.5954876,5.99624138 27.5307495,6.06097942 27.4508911,6.06097942 Z M31.9960629,6.85685206 C32.0037916,6.56034901 31.9071841,6.30676467 31.7062373,6.09609145 C31.5052906,5.88541822 31.2463823,5.78008319 30.9295047,5.78008319 C30.7362867,5.78008319 30.5662574,5.81129357 30.4194117,5.87371527 C30.272566,5.93613696 30.1469762,6.01611356 30.0426384,6.11364746 C29.9383007,6.21118136 29.8571503,6.32431899 29.7991849,6.45306374 C29.7412195,6.58180848 29.708373,6.71640325 29.7006442,6.85685206 L31.9960629,6.85685206 Z M34.5936067,4.65649828 L36.0433673,4.65649828 C36.1232258,4.65649828 36.1879638,4.72123632 36.1879638,4.80109473 L36.1879638,5.56941102 L36.2111498,5.56941102 C36.3966391,5.21828898 36.6169044,4.9549514 36.8719522,4.77939038 C37.127,4.60382936 37.4477371,4.51605017 37.8341731,4.51605017 C37.9346465,4.51605017 38.0351184,4.51995147 38.1355917,4.52775418 C38.1783627,4.53107575 38.2316377,4.53863921 38.2954168,4.55044457 L38.2954402,4.55031821 C38.3640453,4.56301685 38.4138243,4.62285543 38.4138243,4.69262588 L38.4140436,5.98983692 C38.4140436,6.06981644 38.3492074,6.13465265 38.2692279,6.13465265 C38.2574279,6.13465265 38.2456721,6.13321042 38.234222,6.13035804 C38.1577261,6.11130179 38.0958668,6.09792893 38.0486441,6.09023944 C37.9288489,6.07073266 37.8032591,6.06097942 37.6718708,6.06097942 C37.3395358,6.06097942 37.0767632,6.10779499 36.8835452,6.20142753 C36.6903272,6.29506008 36.5415515,6.42575354 36.4372138,6.59351185 C36.3328761,6.76127016 36.2652508,6.96218698 36.2343359,7.19626834 C36.203421,7.4303497 36.1879638,7.68783533 36.1879638,7.96873296 L36.1879638,10.2000504 C36.1879638,10.2799088 36.1232258,10.3446469 36.0433673,10.3446469 L34.5936067,10.3446469 C34.5137483,10.3446469 34.4490103,10.2799088 34.4490103,10.2000504 L34.4490103,4.80109473 C34.4490103,4.72123632 34.5137483,4.65649828 34.5936067,4.65649828 Z" transform="translate(15.116)"/>
    </g>
    <path fill="#797979" d="M4.464,42.07 C4.16066515,42.07 3.89350116,41.9953341 3.6625,41.846 C3.43149885,41.6966659 3.24833401,41.5076678 3.113,41.279 L3.113,43.491 L2.497,43.491 L2.497,38.346 L3.043,38.346 L3.043,39.032 C3.18766739,38.8079989 3.37549885,38.6271674 3.6065,38.4895 C3.83750115,38.3518326 4.0929986,38.283 4.373,38.283 C4.62500126,38.283 4.85599895,38.3343328 5.066,38.437 C5.27600105,38.5396672 5.45799923,38.6784991 5.612,38.8535 C5.76600077,39.0285009 5.88616624,39.2303322 5.9725,39.459 C6.05883377,39.6876678 6.102,39.9256654 6.102,40.173 C6.102,40.4343346 6.06233373,40.6804988 5.983,40.9115 C5.90366627,41.1425012 5.79166739,41.3431658 5.647,41.5135 C5.50233261,41.6838342 5.32966767,41.8191662 5.129,41.9195 C4.92833233,42.0198338 4.70666788,42.07 4.464,42.07 Z M4.275,41.538 C4.45700091,41.538 4.62149927,41.4995004 4.7685,41.4225 C4.91550074,41.3454996 5.04149948,41.242834 5.1465,41.1145 C5.25150053,40.986166 5.33199972,40.8403342 5.388,40.677 C5.44400028,40.5136659 5.472,40.3456675 5.472,40.173 C5.472,39.9909991 5.43933366,39.8171675 5.374,39.6515 C5.30866634,39.4858325 5.22000056,39.3411673 5.108,39.2175 C4.99599944,39.0938327 4.86416742,38.9958337 4.7125,38.9235 C4.56083258,38.8511663 4.39633422,38.815 4.219,38.815 C4.10699944,38.815 3.9915006,38.8371664 3.8725,38.8815 C3.7534994,38.9258336 3.64150053,38.9841663 3.5365,39.0565 C3.43149947,39.1288337 3.34050038,39.2151662 3.2635,39.3155 C3.18649962,39.4158338 3.13633345,39.5219994 3.113,39.634 L3.113,40.677 C3.16433359,40.7983339 3.22966627,40.9114995 3.309,41.0165 C3.38833373,41.1215005 3.47933282,41.2124996 3.582,41.2895 C3.68466718,41.3665004 3.79433275,41.4271664 3.911,41.4715 C4.02766725,41.5158336 4.14899937,41.538 4.275,41.538 Z M8.454,42.07 C8.17866529,42.07 7.92783446,42.0186672 7.7015,41.916 C7.47516553,41.8133328 7.28150081,41.6756675 7.1205,41.503 C6.95949919,41.3303325 6.83466711,41.1296678 6.746,40.901 C6.65733289,40.6723322 6.613,40.4320013 6.613,40.18 C6.613,39.923332 6.65849954,39.6806678 6.7495,39.452 C6.84050045,39.2233322 6.96649919,39.0226675 7.1275,38.85 C7.2885008,38.6773325 7.48216554,38.5396672 7.7085,38.437 C7.93483446,38.3343328 8.18333198,38.283 8.454,38.283 C8.72466802,38.283 8.97433219,38.3343328 9.203,38.437 C9.43166781,38.5396672 9.62649919,38.6773325 9.7875,38.85 C9.94850081,39.0226675 10.0744995,39.2233322 10.1655,39.452 C10.2565005,39.6806678 10.302,39.923332 10.302,40.18 C10.302,40.4320013 10.2576671,40.6723322 10.169,40.901 C10.0803329,41.1296678 9.95433415,41.3303325 9.791,41.503 C9.62766585,41.6756675 9.43283446,41.8133328 9.2065,41.916 C8.98016553,42.0186672 8.72933471,42.07 8.454,42.07 Z M7.243,40.187 C7.243,40.3783343 7.27449968,40.5556658 7.3375,40.719 C7.40050031,40.8823341 7.48683278,41.0246661 7.5965,41.146 C7.70616721,41.2673339 7.83449926,41.3629996 7.9815,41.433 C8.12850073,41.5030004 8.28599916,41.538 8.454,41.538 C8.62200084,41.538 8.77949926,41.5030004 8.9265,41.433 C9.07350073,41.3629996 9.20299944,41.2661673 9.315,41.1425 C9.42700056,41.0188327 9.51449969,40.8741675 9.5775,40.7085 C9.64050032,40.5428325 9.672,40.3643343 9.672,40.173 C9.672,39.9863324 9.64050032,39.8101675 9.5775,39.6445 C9.51449969,39.4788325 9.42700056,39.3341673 9.315,39.2105 C9.20299944,39.0868327 9.07350073,38.9900004 8.9265,38.92 C8.77949926,38.8499997 8.62200084,38.815 8.454,38.815 C8.28599916,38.815 8.12850073,38.8511663 7.9815,38.9235 C7.83449926,38.9958337 7.70616721,39.0938327 7.5965,39.2175 C7.48683278,39.3411673 7.40050031,39.4858325 7.3375,39.6515 C7.27449968,39.8171675 7.243,39.9956657 7.243,40.187 Z M15.503,38.346 L16.098,38.346 L14.544,42 L14.033,42 L13.298,40.215 L12.57,42 L12.059,42 L10.505,38.346 L11.093,38.346 L12.353,41.391 L12.969,39.872 L12.339,38.353 L12.85,38.353 L13.298,39.522 L13.746,38.353 L14.257,38.353 L13.634,39.872 L14.25,41.391 L15.503,38.346 Z M18.163,42.07 C17.8876653,42.07 17.6356678,42.0198338 17.407,41.9195 C17.1783322,41.8191662 16.9823341,41.6826675 16.819,41.51 C16.6556658,41.3373325 16.5285005,41.1355012 16.4375,40.9045 C16.3464995,40.6734988 16.301,40.429668 16.301,40.173 C16.301,39.9163321 16.3464995,39.6736678 16.4375,39.445 C16.5285005,39.2163322 16.6568325,39.0156675 16.8225,38.843 C16.9881675,38.6703325 17.1853322,38.5338338 17.414,38.4335 C17.6426678,38.3331662 17.8946653,38.283 18.17,38.283 C18.4453347,38.283 18.6961655,38.3343328 18.9225,38.437 C19.1488345,38.5396672 19.3413325,38.6761658 19.5,38.8465 C19.6586675,39.0168342 19.7811662,39.2151655 19.8675,39.4415 C19.9538338,39.6678345 19.997,39.9023321 19.997,40.145 C19.997,40.1963336 19.9958333,40.2429998 19.9935,40.285 C19.9911667,40.3270002 19.9876667,40.3596666 19.983,40.383 L16.952,40.383 C16.9660001,40.5650009 17.0079996,40.7306659 17.078,40.88 C17.1480004,41.0293341 17.2389994,41.1576661 17.351,41.265 C17.4630006,41.3723339 17.590166,41.456333 17.7325,41.517 C17.874834,41.577667 18.0253325,41.608 18.184,41.608 C18.2960006,41.608 18.4056661,41.5928335 18.513,41.5625 C18.6203339,41.5321665 18.7206662,41.4913336 18.814,41.44 C18.9073338,41.3886664 18.9901663,41.325667 19.0625,41.251 C19.1348337,41.176333 19.1896665,41.0923338 19.227,40.999 L19.759,41.146 C19.698333,41.281334 19.6155005,41.4049994 19.5105,41.517 C19.4054995,41.6290006 19.2841674,41.7258329 19.1465,41.8075 C19.0088326,41.8891671 18.8560008,41.9533331 18.688,42 C18.5199992,42.0466669 18.3450009,42.07 18.163,42.07 Z M19.416,39.928 C19.4019999,39.7553325 19.3588337,39.5955007 19.2865,39.4485 C19.2141663,39.3014993 19.1231672,39.1766672 19.0135,39.074 C18.9038328,38.9713328 18.7766674,38.8908336 18.632,38.8325 C18.4873326,38.7741664 18.3333341,38.745 18.17,38.745 C18.0066658,38.745 17.8526674,38.7741664 17.708,38.8325 C17.5633326,38.8908336 17.4361672,38.9724995 17.3265,39.0775 C17.2168328,39.1825005 17.128167,39.3073326 17.0605,39.452 C16.992833,39.5966674 16.9520001,39.7553325 16.938,39.928 L19.416,39.928 Z M22.615,38.885 C22.3069985,38.8943334 22.0351678,38.9736659 21.7995,39.123 C21.5638322,39.2723341 21.3970005,39.4799987 21.299,39.746 L21.299,42 L20.683,42 L20.683,38.346 L21.257,38.346 L21.257,39.193 C21.3830006,38.9409987 21.5486656,38.7368341 21.754,38.5805 C21.9593344,38.4241659 22.1786655,38.3366668 22.412,38.318 L22.531,38.318 C22.5636668,38.318 22.5916665,38.3203333 22.615,38.325 L22.615,38.885 Z M24.757,42.07 C24.4816653,42.07 24.2296678,42.0198338 24.001,41.9195 C23.7723322,41.8191662 23.5763342,41.6826675 23.413,41.51 C23.2496659,41.3373325 23.1225005,41.1355012 23.0315,40.9045 C22.9404995,40.6734988 22.895,40.429668 22.895,40.173 C22.895,39.9163321 22.9404995,39.6736678 23.0315,39.445 C23.1225005,39.2163322 23.2508325,39.0156675 23.4165,38.843 C23.5821675,38.6703325 23.7793322,38.5338338 24.008,38.4335 C24.2366678,38.3331662 24.4886653,38.283 24.764,38.283 C25.0393347,38.283 25.2901655,38.3343328 25.5165,38.437 C25.7428345,38.5396672 25.9353325,38.6761658 26.094,38.8465 C26.2526675,39.0168342 26.3751662,39.2151655 26.4615,39.4415 C26.5478338,39.6678345 26.591,39.9023321 26.591,40.145 C26.591,40.1963336 26.5898333,40.2429998 26.5875,40.285 C26.5851667,40.3270002 26.5816667,40.3596666 26.577,40.383 L23.546,40.383 C23.5600001,40.5650009 23.6019997,40.7306659 23.672,40.88 C23.7420004,41.0293341 23.8329994,41.1576661 23.945,41.265 C24.0570006,41.3723339 24.184166,41.456333 24.3265,41.517 C24.468834,41.577667 24.6193325,41.608 24.778,41.608 C24.8900006,41.608 24.9996661,41.5928335 25.107,41.5625 C25.2143339,41.5321665 25.3146662,41.4913336 25.408,41.44 C25.5013338,41.3886664 25.5841663,41.325667 25.6565,41.251 C25.7288337,41.176333 25.7836665,41.0923338 25.821,40.999 L26.353,41.146 C26.292333,41.281334 26.2095005,41.4049994 26.1045,41.517 C25.9994995,41.6290006 25.8781674,41.7258329 25.7405,41.8075 C25.6028326,41.8891671 25.4500008,41.9533331 25.282,42 C25.1139992,42.0466669 24.9390009,42.07 24.757,42.07 Z M26.01,39.928 C25.9959999,39.7553325 25.9528337,39.5955007 25.8805,39.4485 C25.8081663,39.3014993 25.7171672,39.1766672 25.6075,39.074 C25.4978328,38.9713328 25.3706674,38.8908336 25.226,38.8325 C25.0813326,38.7741664 24.9273342,38.745 24.764,38.745 C24.6006658,38.745 24.4466674,38.7741664 24.302,38.8325 C24.1573326,38.8908336 24.0301672,38.9724995 23.9205,39.0775 C23.8108328,39.1825005 23.722167,39.3073326 23.6545,39.452 C23.586833,39.5966674 23.5460001,39.7553325 23.532,39.928 L26.01,39.928 Z M28.782,42.07 C28.5299987,42.07 28.2966677,42.0186672 28.082,41.916 C27.8673323,41.8133328 27.6830008,41.6756675 27.529,41.503 C27.3749992,41.3303325 27.2548338,41.1296678 27.1685,40.901 C27.0821662,40.6723322 27.039,40.4320013 27.039,40.18 C27.039,39.923332 27.0798329,39.6795012 27.1615,39.4485 C27.2431671,39.2174988 27.3574993,39.0156675 27.5045,38.843 C27.6515007,38.6703325 27.826499,38.5338338 28.0295,38.4335 C28.232501,38.3331662 28.4553321,38.283 28.698,38.283 C28.9920015,38.283 29.2544988,38.3599992 29.4855,38.514 C29.7165012,38.6680008 29.899666,38.8546656 30.035,39.074 L30.035,36.89 L30.651,36.89 L30.651,41.244 C30.651,41.3886674 30.7163327,41.4633333 30.847,41.468 L30.847,42 C30.7816663,42.0093334 30.7291669,42.0163333 30.6895,42.021 C30.6498331,42.0256667 30.6113335,42.028 30.574,42.028 C30.4526661,42.028 30.3465005,41.9871671 30.2555,41.9055 C30.1644995,41.8238329 30.119,41.7293339 30.119,41.622 L30.119,41.314 C29.9743326,41.5520012 29.7818345,41.7374993 29.5415,41.8705 C29.3011655,42.0035007 29.0480013,42.07 28.782,42.07 Z M28.929,41.538 C29.0410006,41.538 29.1564994,41.5170002 29.2755,41.475 C29.3945006,41.4329998 29.5064995,41.374667 29.6115,41.3 C29.7165005,41.225333 29.8074996,41.1378338 29.8845,41.0375 C29.9615004,40.9371662 30.0116666,40.8310006 30.035,40.719 L30.035,39.669 C29.9929998,39.5523327 29.9300004,39.4415005 29.846,39.3365 C29.7619996,39.2314995 29.6675005,39.1405004 29.5625,39.0635 C29.4574995,38.9864996 29.3455006,38.9258336 29.2265,38.8815 C29.1074994,38.8371664 28.9896673,38.815 28.873,38.815 C28.6909991,38.815 28.5265007,38.8534996 28.3795,38.9305 C28.2324993,39.0075004 28.1065005,39.110166 28.0015,39.2385 C27.8964995,39.366834 27.8160003,39.5138325 27.76,39.6795 C27.7039997,39.8451675 27.676,40.0143325 27.676,40.187 C27.676,40.3690009 27.7086663,40.5428325 27.774,40.7085 C27.8393337,40.8741675 27.9279994,41.0176661 28.04,41.139 C28.1520006,41.2603339 28.2838326,41.3571663 28.4355,41.4295 C28.5871674,41.5018337 28.7516658,41.538 28.929,41.538 Z M35.327,42.07 C35.0423319,42.07 34.7833345,42.0000007 34.55,41.86 C34.3166655,41.7199993 34.132334,41.5380011 33.997,41.314 L33.997,42 L33.451,42 L33.451,36.89 L34.067,36.89 L34.067,39.074 C34.2210008,38.8359988 34.4099989,38.6446674 34.634,38.5 C34.8580011,38.3553326 35.1193318,38.283 35.418,38.283 C35.6700013,38.283 35.8963323,38.3366661 36.097,38.444 C36.2976677,38.5513339 36.469166,38.6924991 36.6115,38.8675 C36.753834,39.0425009 36.8634996,39.2454988 36.9405,39.4765 C37.0175004,39.7075012 37.056,39.9443321 37.056,40.187 C37.056,40.4436679 37.0116671,40.6863322 36.923,40.915 C36.8343329,41.1436678 36.7130008,41.3431658 36.559,41.5135 C36.4049992,41.6838342 36.2218344,41.8191662 36.0095,41.9195 C35.7971656,42.0198338 35.5696679,42.07 35.327,42.07 Z M35.173,41.538 C35.3550009,41.538 35.5229992,41.500667 35.677,41.426 C35.8310008,41.351333 35.9639994,41.2510006 36.076,41.125 C36.1880006,40.9989994 36.274333,40.8555008 36.335,40.6945 C36.395667,40.5334992 36.426,40.3643342 36.426,40.187 C36.426,40.0096658 36.3968336,39.8381675 36.3385,39.6725 C36.2801664,39.5068325 36.1985005,39.3610006 36.0935,39.235 C35.9884995,39.1089994 35.8625007,39.0075004 35.7155,38.9305 C35.5684993,38.8534996 35.4063342,38.815 35.229,38.815 C35.0983327,38.815 34.9746672,38.8383331 34.858,38.885 C34.7413327,38.9316669 34.6328338,38.9934996 34.5325,39.0705 C34.4321662,39.1475004 34.3435004,39.2373328 34.2665,39.34 C34.1894996,39.4426672 34.1230003,39.5523327 34.067,39.669 L34.067,40.726 C34.0903335,40.8426672 34.1404996,40.9499995 34.2175,41.048 C34.2945004,41.1460005 34.3854995,41.2311663 34.4905,41.3035 C34.5955005,41.3758337 34.7074994,41.4329998 34.8265,41.475 C34.9455006,41.5170002 35.0609994,41.538 35.173,41.538 Z M37.854,42.994 C37.914667,43.0033334 37.975333,43.0103333 38.036,43.015 C38.096667,43.0196667 38.1433332,43.022 38.176,43.022 C38.2320003,43.022 38.2821664,43.0091668 38.3265,42.9835 C38.3708336,42.9578332 38.4151664,42.907667 38.4595,42.833 C38.5038336,42.758333 38.5539997,42.6545007 38.61,42.5215 C38.6660003,42.3884993 38.7359996,42.2146677 38.82,42 L37.273,38.346 L37.91,38.346 L39.156,41.447 L40.29,38.346 L40.878,38.346 L39.1,42.959 C39.0346663,43.1223342 38.9261674,43.2658327 38.7745,43.3895 C38.6228326,43.5131673 38.4140013,43.575 38.148,43.575 C38.1059998,43.575 38.0628336,43.5726667 38.0185,43.568 C37.9741664,43.5633333 37.9193337,43.5540001 37.854,43.54 L37.854,42.994 Z"/>
  </g>
</svg>
