<?xml version="1.0" encoding="UTF-8"?>
<svg width="189px" height="38px" viewBox="0 0 189 38" version="1.1" xmlns="http://www.w3.org/2000/svg" xmlns:xlink="http://www.w3.org/1999/xlink">
    <!-- Generator: Sketch 48.2 (47327) - http://www.bohemiancoding.com/sketch -->
    <title>Logo</title>
    <desc>Created with Sketch.</desc>
    <defs></defs>
    <g id="Symbols" stroke="none" stroke-width="1" fill="none" fill-rule="evenodd">
        <g id="Logo">
            <g id="Icon" transform="translate(77.760000, 0.000000)">
                <polygon id="Shape" fill="#FF8680" points="6.667 0.25 13.333 9.417 0 9.417"></polygon>
                <polygon id="Shape" fill="#FF6A62" points="20 37.75 13.333 9.417 0 9.417"></polygon>
                <polygon id="Shape" fill="#FF9E99" points="26.667 9.417 20 0.25 33.333 0.25"></polygon>
                <polygon id="Shape" fill="#FF8680" points="20 0.25 26.667 9.417 13.333 9.417"></polygon>
                <polygon id="Shape" fill="#FF564C" points="20 37.75 26.667 9.417 13.333 9.417"></polygon>
                <polygon id="Shape" fill="#FF9E99" points="13.333 9.417 6.667 0.25 20 0.25"></polygon>
                <polygon id="Shape" fill="#FF8680" points="33.333 0.25 40 9.417 26.667 9.417"></polygon>
                <polygon id="Shape" fill="#FF6A62" points="20 37.75 40 9.417 26.667 9.417"></polygon>
            </g>
            <path d="M19.96,27.64 L19.96,33.4 L0,33.4 L0,5 L19.6,5 L19.6,10.76 L6.56,10.76 L6.56,16.28 L17.76,16.28 L17.76,21.6 L6.56,21.6 L6.56,27.64 L19.96,27.64 Z M36.16,27.8 C37.2800056,27.8 38.2266628,27.566669 39,27.1 C39.7733372,26.633331 40.3999976,26.0133372 40.88,25.24 C41.3600024,24.4666628 41.699999,23.580005 41.9,22.58 C42.100001,21.579995 42.2,20.5600052 42.2,19.52 L42.2,5 L48.76,5 L48.76,19.52 C48.76,21.4933432 48.5133358,23.3333248 48.02,25.04 C47.5266642,26.7466752 46.7666718,28.2399936 45.74,29.52 C44.7133282,30.8000064 43.4066746,31.806663 41.82,32.54 C40.2333254,33.273337 38.3466776,33.64 36.16,33.64 C33.893322,33.64 31.960008,33.2533372 30.36,32.48 C28.759992,31.7066628 27.460005,30.6733398 26.46,29.38 C25.459995,28.0866602 24.726669,26.5866752 24.26,24.88 C23.793331,23.1733248 23.56,21.386676 23.56,19.52 L23.56,5 L30.12,5 L30.12,19.52 C30.12,20.6133388 30.2266656,21.6533284 30.44,22.64 C30.6533344,23.6266716 30.9999976,24.5066628 31.48,25.28 C31.9600024,26.0533372 32.5799962,26.6666644 33.34,27.12 C34.1000038,27.5733356 35.0399944,27.8 36.16,27.8 Z M53.84,33.4 L53.84,5 L66.64,5 C67.97334,5 69.206661,5.2799972 70.34,5.84 C71.473339,6.4000028 72.4533292,7.1333288 73.28,8.04 C74.1066708,8.9466712 74.753331,9.9733276 75.22,11.12 C75.686669,12.2666724 75.92,13.4266608 75.92,14.6 C75.92,15.4800044 75.8133344,16.3266626 75.6,17.14 C75.3866656,17.9533374 75.080002,18.7199964 74.68,19.44 C74.279998,20.1600036 73.7933362,20.8066638 73.22,21.38 C72.6466638,21.9533362 72.0000036,22.439998 71.28,22.84 L77.52,33.4 L70.12,33.4 L64.68,24.24 L60.4,24.24 L60.4,33.4 L53.84,33.4 Z M60.4,18.52 L66.4,18.52 C67.1733372,18.52 67.8399972,18.153337 68.4,17.42 C68.9600028,16.686663 69.24,15.7466724 69.24,14.6 C69.24,13.4266608 68.9200032,12.4933368 68.28,11.8 C67.6399968,11.1066632 66.9466704,10.76 66.2,10.76 L60.4,10.76 L60.4,18.52 Z" id="EUR" fill="#595959"></path>
            <path d="M120,33.56 L120,5.16 L126.56,5.16 L126.56,17.4 L136.96,5.16 L144.32,5.16 L133.68,17.84 L145.04,33.56 L137.56,33.56 L129.52,22.12 L126.56,25.2 L126.56,33.56 L120,33.56 Z M158.08,33.8 C155.973323,33.8 154.053342,33.3866708 152.32,32.56 C150.586658,31.7333292 149.106673,30.6466734 147.88,29.3 C146.653327,27.9533266 145.700003,26.413342 145.02,24.68 C144.339997,22.946658 144,21.1600092 144,19.32 C144,17.453324 144.35333,15.653342 145.06,13.92 C145.76667,12.186658 146.753327,10.6600066 148.02,9.34 C149.286673,8.0199934 150.786658,6.9666706 152.52,6.18 C154.253342,5.3933294 156.146656,5 158.2,5 C160.306677,5 162.226658,5.4133292 163.96,6.24 C165.693342,7.0666708 167.173327,8.1599932 168.4,9.52 C169.626673,10.8800068 170.57333,12.426658 171.24,14.16 C171.90667,15.893342 172.24,17.6533244 172.24,19.44 C172.24,21.306676 171.88667,23.106658 171.18,24.84 C170.47333,26.573342 169.49334,28.0999934 168.24,29.42 C166.98666,30.7400066 165.493342,31.799996 163.76,32.6 C162.026658,33.400004 160.133344,33.8 158.08,33.8 Z M150.68,19.4 C150.68,20.4933388 150.839998,21.5533282 151.16,22.58 C151.480002,23.6066718 151.95333,24.519996 152.58,25.32 C153.20667,26.120004 153.986662,26.7599976 154.92,27.24 C155.853338,27.7200024 156.919994,27.96 158.12,27.96 C159.37334,27.96 160.466662,27.7066692 161.4,27.2 C162.333338,26.6933308 163.106664,26.0333374 163.72,25.22 C164.333336,24.4066626 164.793332,23.4866718 165.1,22.46 C165.406668,21.4333282 165.56,20.386672 165.56,19.32 C165.56,18.2266612 165.400002,17.1666718 165.08,16.14 C164.759998,15.1133282 164.280003,14.2066706 163.64,13.42 C162.999997,12.6333294 162.220005,12.006669 161.3,11.54 C160.379995,11.073331 159.320006,10.84 158.12,10.84 C156.86666,10.84 155.780005,11.0866642 154.86,11.58 C153.939995,12.0733358 153.16667,12.719996 152.54,13.52 C151.91333,14.320004 151.446668,15.2333282 151.14,16.26 C150.833332,17.2866718 150.68,18.333328 150.68,19.4 Z" id="KO" fill="#595959"></path>
            <path d="M172.76,2.992 L171,2.992 L171,0.336 L175.896,0.336 L175.896,12.4 L172.76,12.4 L172.76,2.992 Z M182.456,8.752 C182.456,8.95466768 182.493333,9.14666576 182.568,9.328 C182.642667,9.50933424 182.743999,9.666666 182.872,9.8 C183.000001,9.933334 183.151999,10.0399996 183.328,10.12 C183.504001,10.2000004 183.693332,10.24 183.896,10.24 C184.088001,10.24 184.271999,10.2000004 184.448,10.12 C184.624001,10.0399996 184.778666,9.933334 184.912,9.8 C185.045334,9.666666 185.149333,9.51200088 185.224,9.336 C185.298667,9.15999912 185.336,8.97066768 185.336,8.768 C185.336,8.36266464 185.194668,8.01866808 184.912,7.736 C184.629332,7.45333192 184.290669,7.312 183.896,7.312 C183.490665,7.312 183.149335,7.45333192 182.872,7.736 C182.594665,8.01866808 182.456,8.35733136 182.456,8.752 Z M182.568,3.408 C182.568,3.7813352 182.695999,4.09866536 182.952,4.36 C183.208001,4.62133464 183.522665,4.752 183.896,4.752 C184.088001,4.752 184.263999,4.71466704 184.424,4.64 C184.584001,4.56533296 184.722666,4.46666728 184.84,4.344 C184.957334,4.22133272 185.050666,4.0800008 185.12,3.92 C185.189334,3.7599992 185.224,3.59466752 185.224,3.424 C185.224,3.06133152 185.096001,2.74933464 184.84,2.488 C184.583999,2.22666536 184.269335,2.096 183.896,2.096 C183.522665,2.096 183.208001,2.22399872 182.952,2.48 C182.695999,2.73600128 182.568,3.04533152 182.568,3.408 Z M181.672,6.032 C180.413327,5.50933072 179.784,4.62400624 179.784,3.376 C179.784,2.86399744 179.885332,2.40266872 180.088,1.992 C180.290668,1.58133128 180.570665,1.22666816 180.928,0.928 C181.285335,0.62933184 181.717331,0.4000008 182.224,0.24 C182.730669,0.0799992 183.287997,1.77635684e-15 183.896,0 C184.504003,1.77635684e-15 185.061331,0.0799992 185.568,0.24 C186.074669,0.4000008 186.506665,0.62933184 186.864,0.928 C187.221335,1.22666816 187.501332,1.58133128 187.704,1.992 C187.906668,2.40266872 188.008,2.86399744 188.008,3.376 C188.008,3.6960016 187.976,3.98133208 187.912,4.232 C187.848,4.48266792 187.738667,4.71199896 187.584,4.92 C187.429333,5.12800104 187.226668,5.32266576 186.976,5.504 C186.725332,5.68533424 186.413335,5.86133248 186.04,6.032 C187.682675,6.6720032 188.504,7.70665952 188.504,9.136 C188.504,9.64800256 188.389334,10.1226645 188.16,10.56 C187.930666,10.9973355 187.610669,11.3759984 187.2,11.696 C186.789331,12.0160016 186.304003,12.2666658 185.744,12.448 C185.183997,12.6293342 184.568003,12.72 183.896,12.72 C183.24533,12.72 182.640003,12.6320009 182.08,12.456 C181.519997,12.2799991 181.032002,12.0320016 180.616,11.712 C180.199998,11.3919984 179.874668,11.0133355 179.64,10.576 C179.405332,10.1386645 179.288,9.65866928 179.288,9.136 C179.288,7.67465936 180.082659,6.64000304 181.672,6.032 Z" id="18" fill="#FF6A62"></path>
        </g>
    </g>
</svg>