<?xml version="1.0" encoding="UTF-8"?>
<svg width="32px" height="32px" viewBox="0 0 32 32" version="1.1" xmlns="http://www.w3.org/2000/svg" xmlns:xlink="http://www.w3.org/1999/xlink">
    <!-- Generator: Sketch 48.2 (47327) - http://www.bohemiancoding.com/sketch -->
    <title>Icons/twitter</title>
    <desc>Created with Sketch.</desc>
    <defs></defs>
    <g id="Symbols" stroke="none" stroke-width="1" fill="none" fill-rule="evenodd">
        <g id="Icons/twitter" fill="#00AAFF" fill-rule="nonzero">
            <path d="M32,6.10658875 C30.8012903,6.63616485 29.5300645,6.98431926 28.2286452,7.13816692 C29.5989677,6.31841919 30.6250323,5.02785126 31.1130323,3.50896 C29.8330323,4.27149804 28.4325161,4.81009369 26.9713548,5.10232692 C25.7290323,3.76228034 23.9809032,3 22.1522581,3 C18.5486452,3 15.5829677,5.96124524 15.5829677,9.56004341 C15.5829677,10.0726112 15.6425806,10.5838905 15.7623226,11.0822848 C10.4869677,10.8189141 5.56335484,8.32771596 2.23096774,4.23490446 C0.499612903,7.21315799 1.39432258,11.0709459 4.26064516,12.985924 C3.21832258,12.9526806 2.19974194,12.6710131 1.28903226,12.1643724 L1.28903226,12.2463214 C1.29006452,15.3552295 3.504,18.0577426 6.55535484,18.6739064 C5.58812903,18.9367617 4.57316129,18.9761899 3.58864516,18.788068 C4.44258065,21.4573377 6.91793548,23.2991287 9.72335484,23.3529882 C7.39664516,25.170813 4.52258065,26.1560049 1.568,26.1467277 C1.04412903,26.1467277 0.520258065,26.1168343 0,26.0555014 C2.99974194,27.9800145 6.49135484,29.0023154 10.0570323,28.9999961 C22.1349677,28.9999961 28.736,19.0117527 28.736,10.3473208 L28.736,9.49819511 C30.0170323,8.56969745 31.1223226,7.42112291 32,6.10658875 Z" id="Shape"></path>
        </g>
    </g>
</svg>